# MagicaVoxel @ Ephtracy

# group
g 44

# material
mtllib 44.mtl
usemtl palette

# normals
vn -1 0 0
vn 1 0 0
vn 0 0 1
vn 0 0 -1
vn 0 -1 0
vn 0 1 0

# texcoords
vt 0.0136719 0.5
vt 0.0175781 0.5
vt 0.0214844 0.5
vt 0.0332031 0.5
vt 0.751953 0.5
vt 0.822266 0.5
vt 0.841797 0.5
vt 0.904297 0.5
vt 0.958984 0.5
vt 0.994141 0.5

# verts
v -6 4 0.5
v -6 4 -1.5
v -6 5 0.5
v -6 5 -1.5
v -6 9 0.5
v -6 9 -1.5
v -6 15 1.5
v -6 15 -1.5
v -6 17 1.5
v -6 17 -1.5
v -5 10 3.5
v -5 10 -2.5
v -5 12 1.5
v -5 12 0.5
v -5 14 1.5
v -5 14 0.5
v -5 15 3.5
v -5 15 2.5
v -5 15 1.5
v -5 15 -1.5
v -5 15 -2.5
v -5 17 1.5
v -5 17 -1.5
v -5 18 2.5
v -5 18 -2.5
v -4 4 1.5
v -4 4 0.5
v -4 4 -1.5
v -4 4 -2.5
v -4 5 0.5
v -4 5 -1.5
v -4 9 0.5
v -4 9 -1.5
v -4 10 1.5
v -4 10 -2.5
v -4 10 -3.5
v -4 15 6.5
v -4 15 3.5
v -4 15 2.5
v -4 15 -2.5
v -4 15 -3.5
v -4 16 6.5
v -4 16 5.5
v -4 17 5.5
v -4 17 3.5
v -4 18 3.5
v -4 18 2.5
v -4 18 -2.5
v -4 18 -3.5
v -4 19 3.5
v -4 19 0.5
v -4 19 -1.5
v -4 19 -3.5
v -4 20 3.5
v -4 20 0.5
v -4 20 -1.5
v -4 20 -3.5
v -3 0 1.5
v -3 0 -2.5
v -3 1 1.5
v -3 1 0.5
v -3 1 -1.5
v -3 1 -2.5
v -3 4 0.5
v -3 4 -1.5
v -3 10 -3.5
v -3 10 -4.5
v -3 15 -3.5
v -3 15 -4.5
v -3 18 -3.5
v -3 18 -4.5
v -2 15 -4.5
v -2 15 -5.5
v -2 17 -4.5
v -2 17 -5.5
v 1 0 1.5
v 1 0 -2.5
v 1 1 1.5
v 1 1 0.5
v 1 1 -1.5
v 1 1 -2.5
v 1 3 0.5
v 1 3 -1.5
v 4 10 3.5
v 4 10 2.5
v 4 14 3.5
v 4 14 2.5
v -4 10 3.5
v -4 10 2.5
v -4 14 3.5
v -4 14 2.5
v -1 0 1.5
v -1 0 -2.5
v -1 1 1.5
v -1 1 0.5
v -1 1 -1.5
v -1 1 -2.5
v -1 3 0.5
v -1 3 -1.5
v 2 15 -4.5
v 2 15 -5.5
v 2 17 -4.5
v 2 17 -5.5
v 3 0 1.5
v 3 0 -2.5
v 3 1 1.5
v 3 1 0.5
v 3 1 -1.5
v 3 1 -2.5
v 3 4 0.5
v 3 4 -1.5
v 3 10 -3.5
v 3 10 -4.5
v 3 15 -3.5
v 3 15 -4.5
v 3 18 -3.5
v 3 18 -4.5
v 4 4 1.5
v 4 4 0.5
v 4 4 -1.5
v 4 4 -2.5
v 4 5 0.5
v 4 5 -1.5
v 4 7 1.5
v 4 7 0.5
v 4 8 1.5
v 4 8 0.5
v 4 9 1.5
v 4 9 0.5
v 4 9 -1.5
v 4 10 1.5
v 4 10 -2.5
v 4 10 -3.5
v 4 15 6.5
v 4 15 3.5
v 4 15 2.5
v 4 15 -2.5
v 4 15 -3.5
v 4 16 6.5
v 4 16 5.5
v 4 17 5.5
v 4 17 3.5
v 4 18 3.5
v 4 18 2.5
v 4 18 -2.5
v 4 18 -3.5
v 4 19 3.5
v 4 19 0.5
v 4 19 -0.5
v 4 19 -3.5
v 4 20 3.5
v 4 20 0.5
v 4 20 -0.5
v 4 20 -3.5
v 5 10 3.5
v 5 10 -2.5
v 5 12 1.5
v 5 12 0.5
v 5 14 1.5
v 5 14 0.5
v 5 15 3.5
v 5 15 2.5
v 5 15 1.5
v 5 15 -1.5
v 5 15 -2.5
v 5 17 1.5
v 5 17 -1.5
v 5 18 2.5
v 5 18 -2.5
v 6 4 0.5
v 6 4 -1.5
v 6 5 0.5
v 6 5 -1.5
v 6 9 0.5
v 6 9 -1.5
v 6 15 1.5
v 6 15 -1.5
v 6 17 1.5
v 6 17 -1.5
v -4 15 6.5
v -4 16 6.5
v 4 15 6.5
v 4 16 6.5
v -4 16 5.5
v -4 17 5.5
v 4 16 5.5
v 4 17 5.5
v -5 10 3.5
v -5 15 3.5
v -4 10 3.5
v -4 14 3.5
v -4 15 3.5
v -4 17 3.5
v -4 18 3.5
v -4 19 3.5
v -4 20 3.5
v 4 10 3.5
v 4 14 3.5
v 4 15 3.5
v 4 17 3.5
v 4 18 3.5
v 4 19 3.5
v 4 20 3.5
v 5 10 3.5
v 5 15 3.5
v -5 15 2.5
v -5 18 2.5
v -4 10 2.5
v -4 14 2.5
v -4 15 2.5
v -4 18 2.5
v -3 13 2.5
v -3 14 2.5
v -2 13 2.5
v -2 14 2.5
v -1 11 2.5
v -1 12 2.5
v 1 11 2.5
v 1 12 2.5
v 2 13 2.5
v 2 14 2.5
v 3 13 2.5
v 3 14 2.5
v 4 10 2.5
v 4 14 2.5
v 4 15 2.5
v 4 18 2.5
v 5 15 2.5
v 5 18 2.5
v -6 15 1.5
v -6 17 1.5
v -5 15 1.5
v -5 17 1.5
v -4 4 1.5
v -4 10 1.5
v -3 0 1.5
v -3 1 1.5
v -3 7 1.5
v -3 8 1.5
v -3 9 1.5
v -2 7 1.5
v -2 8 1.5
v -2 9 1.5
v -1 0 1.5
v -1 1 1.5
v -1 7 1.5
v -1 10 1.5
v 1 0 1.5
v 1 1 1.5
v 1 7 1.5
v 1 10 1.5
v 2 7 1.5
v 2 8 1.5
v 2 9 1.5
v 3 0 1.5
v 3 1 1.5
v 3 7 1.5
v 3 8 1.5
v 3 9 1.5
v 4 4 1.5
v 4 7 1.5
v 4 8 1.5
v 4 9 1.5
v 4 10 1.5
v 5 15 1.5
v 5 17 1.5
v 6 15 1.5
v 6 17 1.5
v -6 4 0.5
v -6 5 0.5
v -6 9 0.5
v -4 4 0.5
v -4 5 0.5
v -4 9 0.5
v -3 1 0.5
v -3 4 0.5
v -1 1 0.5
v -1 3 0.5
v 1 1 0.5
v 1 3 0.5
v 3 1 0.5
v 3 4 0.5
v 4 4 0.5
v 4 5 0.5
v 4 7 0.5
v 4 8 0.5
v 4 9 0.5
v 6 4 0.5
v 6 5 0.5
v 6 9 0.5
v -6 4 -1.5
v -6 5 -1.5
v -6 9 -1.5
v -6 15 -1.5
v -6 17 -1.5
v -5 15 -1.5
v -5 17 -1.5
v -4 4 -1.5
v -4 5 -1.5
v -4 9 -1.5
v -3 1 -1.5
v -3 4 -1.5
v -1 1 -1.5
v -1 3 -1.5
v 1 1 -1.5
v 1 3 -1.5
v 3 1 -1.5
v 3 4 -1.5
v 4 4 -1.5
v 4 5 -1.5
v 4 9 -1.5
v 5 15 -1.5
v 5 17 -1.5
v 6 4 -1.5
v 6 5 -1.5
v 6 9 -1.5
v 6 15 -1.5
v 6 17 -1.5
v -5 10 -2.5
v -5 15 -2.5
v -5 18 -2.5
v -4 4 -2.5
v -4 10 -2.5
v -4 15 -2.5
v -4 18 -2.5
v -3 0 -2.5
v -3 1 -2.5
v -1 0 -2.5
v -1 1 -2.5
v 1 0 -2.5
v 1 1 -2.5
v 3 0 -2.5
v 3 1 -2.5
v 4 4 -2.5
v 4 10 -2.5
v 4 15 -2.5
v 4 18 -2.5
v 5 10 -2.5
v 5 15 -2.5
v 5 18 -2.5
v -4 10 -3.5
v -4 15 -3.5
v -4 18 -3.5
v -4 19 -3.5
v -4 20 -3.5
v -3 10 -3.5
v -3 15 -3.5
v -3 18 -3.5
v 3 10 -3.5
v 3 15 -3.5
v 3 18 -3.5
v 4 10 -3.5
v 4 15 -3.5
v 4 18 -3.5
v 4 19 -3.5
v 4 20 -3.5
v -3 10 -4.5
v -3 15 -4.5
v -3 18 -4.5
v -2 15 -4.5
v -2 17 -4.5
v 2 15 -4.5
v 2 17 -4.5
v 3 10 -4.5
v 3 15 -4.5
v 3 18 -4.5
v -2 15 -5.5
v -2 17 -5.5
v 2 15 -5.5
v 2 17 -5.5
v -3 0 1.5
v -1 0 1.5
v 1 0 1.5
v 3 0 1.5
v -3 0 -2.5
v -1 0 -2.5
v 1 0 -2.5
v 3 0 -2.5
v -1 3 0.5
v 1 3 0.5
v -1 3 -1.5
v 1 3 -1.5
v -4 4 1.5
v 4 4 1.5
v -6 4 0.5
v -4 4 0.5
v -3 4 0.5
v 3 4 0.5
v 4 4 0.5
v 6 4 0.5
v -6 4 -1.5
v -4 4 -1.5
v -3 4 -1.5
v 3 4 -1.5
v 4 4 -1.5
v 6 4 -1.5
v -4 4 -2.5
v 4 4 -2.5
v -5 10 3.5
v -4 10 3.5
v 4 10 3.5
v 5 10 3.5
v -4 10 2.5
v 4 10 2.5
v -4 10 1.5
v -1 10 1.5
v 1 10 1.5
v 4 10 1.5
v -5 10 -2.5
v -4 10 -2.5
v 4 10 -2.5
v 5 10 -2.5
v -4 10 -3.5
v -3 10 -3.5
v 3 10 -3.5
v 4 10 -3.5
v -3 10 -4.5
v 3 10 -4.5
v -4 14 3.5
v 4 14 3.5
v -4 14 2.5
v -3 14 2.5
v -2 14 2.5
v 2 14 2.5
v 3 14 2.5
v 4 14 2.5
v -4 15 6.5
v 4 15 6.5
v -4 15 3.5
v 4 15 3.5
v -6 15 1.5
v -5 15 1.5
v 5 15 1.5
v 6 15 1.5
v -6 15 -1.5
v -5 15 -1.5
v 5 15 -1.5
v 6 15 -1.5
v -2 15 -4.5
v 2 15 -4.5
v -2 15 -5.5
v 2 15 -5.5
v -3 1 1.5
v -1 1 1.5
v 1 1 1.5
v 3 1 1.5
v -3 1 0.5
v -1 1 0.5
v 1 1 0.5
v 3 1 0.5
v -3 1 -1.5
v -1 1 -1.5
v 1 1 -1.5
v 3 1 -1.5
v -3 1 -2.5
v -1 1 -2.5
v 1 1 -2.5
v 3 1 -2.5
v -6 9 0.5
v -4 9 0.5
v 4 9 0.5
v 6 9 0.5
v -6 9 -1.5
v -4 9 -1.5
v 4 9 -1.5
v 6 9 -1.5
v -5 15 3.5
v -4 15 3.5
v 4 15 3.5
v 5 15 3.5
v -5 15 2.5
v -4 15 2.5
v 4 15 2.5
v 5 15 2.5
v -4 16 6.5
v 4 16 6.5
v -4 16 5.5
v 4 16 5.5
v -4 17 5.5
v 4 17 5.5
v -4 17 3.5
v 4 17 3.5
v -6 17 1.5
v -5 17 1.5
v 5 17 1.5
v 6 17 1.5
v -6 17 -1.5
v -5 17 -1.5
v 5 17 -1.5
v 6 17 -1.5
v -2 17 -4.5
v 2 17 -4.5
v -2 17 -5.5
v 2 17 -5.5
v -5 18 2.5
v -4 18 2.5
v 4 18 2.5
v 5 18 2.5
v -5 18 -2.5
v -4 18 -2.5
v 4 18 -2.5
v 5 18 -2.5
v -3 18 -3.5
v 3 18 -3.5
v -3 18 -4.5
v 3 18 -4.5
v -4 20 3.5
v 4 20 3.5
v -2 20 1.5
v -1 20 1.5
v 2 20 1.5
v 3 20 1.5
v -4 20 0.5
v -2 20 0.5
v -1 20 0.5
v 2 20 0.5
v 3 20 0.5
v 4 20 0.5
v -3 20 -0.5
v -2 20 -0.5
v -1 20 -0.5
v 0 20 -0.5
v 1 20 -0.5
v 2 20 -0.5
v 3 20 -0.5
v 4 20 -0.5
v -4 20 -1.5
v -3 20 -1.5
v -2 20 -1.5
v 0 20 -1.5
v 1 20 -1.5
v 2 20 -1.5
v -3 20 -2.5
v -1 20 -2.5
v 1 20 -2.5
v 3 20 -2.5
v -4 20 -3.5
v 4 20 -3.5

# faces
f 3/9/1 2/9/1 1/9/1
f 4/9/1 2/9/1 3/9/1
f 5/8/1 4/8/1 3/8/1
f 6/8/1 4/8/1 5/8/1
f 9/8/1 8/8/1 7/8/1
f 10/8/1 8/8/1 9/8/1
f 13/10/1 12/10/1 11/10/1
f 14/10/1 12/10/1 13/10/1
f 15/10/1 13/10/1 11/10/1
f 15/4/1 14/4/1 13/4/1
f 16/10/1 12/10/1 14/10/1
f 16/4/1 14/4/1 15/4/1
f 17/10/1 15/10/1 11/10/1
f 17/10/1 16/10/1 15/10/1
f 18/10/1 16/10/1 17/10/1
f 19/10/1 16/10/1 18/10/1
f 20/10/1 12/10/1 16/10/1
f 20/10/1 16/10/1 19/10/1
f 21/10/1 12/10/1 20/10/1
f 22/8/1 19/8/1 18/8/1
f 23/8/1 21/8/1 20/8/1
f 24/8/1 22/8/1 18/8/1
f 24/8/1 23/8/1 22/8/1
f 25/8/1 21/8/1 23/8/1
f 25/8/1 23/8/1 24/8/1
f 30/8/1 27/8/1 26/8/1
f 31/8/1 29/8/1 28/8/1
f 32/8/1 30/8/1 26/8/1
f 33/8/1 29/8/1 31/8/1
f 34/8/1 32/8/1 26/8/1
f 34/8/1 33/8/1 32/8/1
f 35/8/1 29/8/1 33/8/1
f 35/8/1 33/8/1 34/8/1
f 40/10/1 36/10/1 35/10/1
f 41/10/1 36/10/1 40/10/1
f 42/8/1 39/8/1 38/8/1
f 42/8/1 38/8/1 37/8/1
f 43/8/1 39/8/1 42/8/1
f 44/8/1 39/8/1 43/8/1
f 45/8/1 39/8/1 44/8/1
f 46/8/1 39/8/1 45/8/1
f 47/8/1 39/8/1 46/8/1
f 48/8/1 41/8/1 40/8/1
f 49/8/1 41/8/1 48/8/1
f 50/7/1 47/7/1 46/7/1
f 50/7/1 48/7/1 47/7/1
f 50/7/1 49/7/1 48/7/1
f 51/7/1 49/7/1 50/7/1
f 52/7/1 49/7/1 51/7/1
f 53/7/1 49/7/1 52/7/1
f 54/8/1 51/8/1 50/8/1
f 55/2/1 52/2/1 51/2/1
f 55/8/1 51/8/1 54/8/1
f 56/8/1 53/8/1 52/8/1
f 56/2/1 52/2/1 55/2/1
f 57/8/1 53/8/1 56/8/1
f 60/10/1 59/10/1 58/10/1
f 61/10/1 59/10/1 60/10/1
f 62/10/1 59/10/1 61/10/1
f 63/10/1 59/10/1 62/10/1
f 64/8/1 62/8/1 61/8/1
f 65/8/1 62/8/1 64/8/1
f 68/10/1 67/10/1 66/10/1
f 69/10/1 67/10/1 68/10/1
f 70/8/1 69/8/1 68/8/1
f 71/8/1 69/8/1 70/8/1
f 74/8/1 73/8/1 72/8/1
f 75/8/1 73/8/1 74/8/1
f 78/10/1 77/10/1 76/10/1
f 79/10/1 77/10/1 78/10/1
f 80/10/1 77/10/1 79/10/1
f 81/10/1 77/10/1 80/10/1
f 82/8/1 80/8/1 79/8/1
f 83/8/1 80/8/1 82/8/1
f 86/10/1 85/10/1 84/10/1
f 87/10/1 85/10/1 86/10/1
f 88/10/2 89/10/2 90/10/2
f 90/10/2 89/10/2 91/10/2
f 92/10/2 93/10/2 94/10/2
f 94/10/2 93/10/2 95/10/2
f 95/10/2 93/10/2 96/10/2
f 96/10/2 93/10/2 97/10/2
f 95/8/2 96/8/2 98/8/2
f 98/8/2 96/8/2 99/8/2
f 100/8/2 101/8/2 102/8/2
f 102/8/2 101/8/2 103/8/2
f 104/10/2 105/10/2 106/10/2
f 106/10/2 105/10/2 107/10/2
f 107/10/2 105/10/2 108/10/2
f 108/10/2 105/10/2 109/10/2
f 107/8/2 108/8/2 110/8/2
f 110/8/2 108/8/2 111/8/2
f 112/10/2 113/10/2 114/10/2
f 114/10/2 113/10/2 115/10/2
f 114/8/2 115/8/2 116/8/2
f 116/8/2 115/8/2 117/8/2
f 118/8/2 119/8/2 122/8/2
f 120/8/2 121/8/2 123/8/2
f 118/8/2 122/8/2 124/8/2
f 124/8/2 122/8/2 125/8/2
f 124/7/2 125/7/2 126/7/2
f 126/7/2 125/7/2 127/7/2
f 126/2/2 127/2/2 128/2/2
f 128/2/2 127/2/2 129/2/2
f 123/8/2 121/8/2 130/8/2
f 128/8/2 129/8/2 131/8/2
f 129/8/2 130/8/2 131/8/2
f 130/8/2 121/8/2 132/8/2
f 131/8/2 130/8/2 132/8/2
f 132/10/2 133/10/2 137/10/2
f 137/10/2 133/10/2 138/10/2
f 135/8/2 136/8/2 139/8/2
f 134/8/2 135/8/2 139/8/2
f 139/8/2 136/8/2 140/8/2
f 140/8/2 136/8/2 141/8/2
f 141/8/2 136/8/2 142/8/2
f 142/8/2 136/8/2 143/8/2
f 143/8/2 136/8/2 144/8/2
f 137/8/2 138/8/2 145/8/2
f 145/8/2 138/8/2 146/8/2
f 143/7/2 144/7/2 147/7/2
f 144/7/2 145/7/2 147/7/2
f 145/7/2 146/7/2 147/7/2
f 147/7/2 146/7/2 148/7/2
f 148/7/2 146/7/2 149/7/2
f 149/7/2 146/7/2 150/7/2
f 147/8/2 148/8/2 151/8/2
f 148/2/2 149/2/2 152/2/2
f 151/8/2 148/8/2 152/8/2
f 149/8/2 150/8/2 153/8/2
f 152/2/2 149/2/2 153/2/2
f 153/8/2 150/8/2 154/8/2
f 155/10/2 156/10/2 157/10/2
f 157/10/2 156/10/2 158/10/2
f 155/10/2 157/10/2 159/10/2
f 157/4/2 158/4/2 159/4/2
f 158/10/2 156/10/2 160/10/2
f 159/4/2 158/4/2 160/4/2
f 155/10/2 159/10/2 161/10/2
f 159/10/2 160/10/2 161/10/2
f 161/10/2 160/10/2 162/10/2
f 162/10/2 160/10/2 163/10/2
f 160/10/2 156/10/2 164/10/2
f 163/10/2 160/10/2 164/10/2
f 164/10/2 156/10/2 165/10/2
f 162/8/2 163/8/2 166/8/2
f 164/8/2 165/8/2 167/8/2
f 162/8/2 166/8/2 168/8/2
f 166/8/2 167/8/2 168/8/2
f 167/8/2 165/8/2 169/8/2
f 168/8/2 167/8/2 169/8/2
f 170/9/2 171/9/2 172/9/2
f 172/9/2 171/9/2 173/9/2
f 172/8/2 173/8/2 174/8/2
f 174/8/2 173/8/2 175/8/2
f 176/8/2 177/8/2 178/8/2
f 178/8/2 177/8/2 179/8/2
f 182/8/3 181/8/3 180/8/3
f 183/8/3 181/8/3 182/8/3
f 186/8/3 185/8/3 184/8/3
f 187/8/3 185/8/3 186/8/3
f 190/10/3 189/10/3 188/10/3
f 191/10/3 189/10/3 190/10/3
f 192/10/3 189/10/3 191/10/3
f 198/10/3 192/10/3 191/10/3
f 199/10/3 192/10/3 198/10/3
f 200/8/3 194/8/3 193/8/3
f 201/7/3 195/7/3 194/7/3
f 201/8/3 194/8/3 200/8/3
f 202/8/3 196/8/3 195/8/3
f 202/7/3 195/7/3 201/7/3
f 203/8/3 196/8/3 202/8/3
f 204/10/3 199/10/3 198/10/3
f 204/10/3 198/10/3 197/10/3
f 205/10/3 199/10/3 204/10/3
f 210/8/3 207/8/3 206/8/3
f 211/8/3 207/8/3 210/8/3
f 212/4/3 209/4/3 208/4/3
f 213/4/3 209/4/3 212/4/3
f 214/4/3 212/4/3 208/4/3
f 214/10/3 213/10/3 212/10/3
f 215/10/3 213/10/3 214/10/3
f 216/4/3 214/4/3 208/4/3
f 216/4/3 215/4/3 214/4/3
f 217/4/3 215/4/3 216/4/3
f 218/4/3 216/4/3 208/4/3
f 218/10/3 217/10/3 216/10/3
f 219/4/3 215/4/3 217/4/3
f 219/10/3 217/10/3 218/10/3
f 220/4/3 219/4/3 218/4/3
f 220/4/3 215/4/3 219/4/3
f 221/4/3 215/4/3 220/4/3
f 222/4/3 220/4/3 218/4/3
f 222/10/3 221/10/3 220/10/3
f 223/10/3 221/10/3 222/10/3
f 224/4/3 218/4/3 208/4/3
f 224/4/3 222/4/3 218/4/3
f 224/4/3 223/4/3 222/4/3
f 225/4/3 223/4/3 224/4/3
f 228/8/3 227/8/3 226/8/3
f 229/8/3 227/8/3 228/8/3
f 232/8/3 231/8/3 230/8/3
f 233/8/3 231/8/3 232/8/3
f 238/8/3 235/8/3 234/8/3
f 239/8/3 235/8/3 238/8/3
f 240/8/3 235/8/3 239/8/3
f 241/8/3 238/8/3 234/8/3
f 241/1/3 239/1/3 238/1/3
f 242/3/3 240/3/3 239/3/3
f 242/1/3 239/1/3 241/1/3
f 243/8/3 235/8/3 240/8/3
f 243/3/3 240/3/3 242/3/3
f 244/10/3 237/10/3 236/10/3
f 245/10/3 237/10/3 244/10/3
f 246/8/3 242/8/3 241/8/3
f 246/8/3 241/8/3 234/8/3
f 246/8/3 243/8/3 242/8/3
f 247/8/3 235/8/3 243/8/3
f 247/8/3 243/8/3 246/8/3
f 250/8/3 246/8/3 234/8/3
f 250/7/3 247/7/3 246/7/3
f 251/7/3 247/7/3 250/7/3
f 252/8/3 250/8/3 234/8/3
f 252/8/3 251/8/3 250/8/3
f 253/8/3 251/8/3 252/8/3
f 254/8/3 251/8/3 253/8/3
f 255/10/3 249/10/3 248/10/3
f 256/10/3 249/10/3 255/10/3
f 257/8/3 252/8/3 234/8/3
f 257/2/3 253/2/3 252/2/3
f 258/7/3 254/7/3 253/7/3
f 258/2/3 253/2/3 257/2/3
f 259/8/3 251/8/3 254/8/3
f 259/7/3 254/7/3 258/7/3
f 260/8/3 257/8/3 234/8/3
f 261/7/3 258/7/3 257/7/3
f 261/8/3 257/8/3 260/8/3
f 262/2/3 259/2/3 258/2/3
f 262/7/3 258/7/3 261/7/3
f 263/8/3 251/8/3 259/8/3
f 263/2/3 259/2/3 262/2/3
f 264/8/3 251/8/3 263/8/3
f 267/8/3 266/8/3 265/8/3
f 268/8/3 266/8/3 267/8/3
f 272/9/3 270/9/3 269/9/3
f 273/8/3 271/8/3 270/8/3
f 273/9/3 270/9/3 272/9/3
f 274/8/3 271/8/3 273/8/3
f 277/8/3 276/8/3 275/8/3
f 278/8/3 276/8/3 277/8/3
f 280/8/3 276/8/3 278/8/3
f 281/8/3 280/8/3 279/8/3
f 282/8/3 276/8/3 280/8/3
f 282/8/3 280/8/3 281/8/3
f 288/9/3 284/9/3 283/9/3
f 289/8/3 287/8/3 286/8/3
f 289/9/3 284/9/3 288/9/3
f 289/8/3 285/8/3 284/8/3
f 289/8/3 286/8/3 285/8/3
f 290/8/3 287/8/3 289/8/3
f 294/8/4 295/8/4 296/8/4
f 296/8/4 295/8/4 297/8/4
f 291/9/4 292/9/4 298/9/4
f 292/8/4 293/8/4 299/8/4
f 298/9/4 292/9/4 299/9/4
f 299/8/4 293/8/4 300/8/4
f 301/8/4 302/8/4 303/8/4
f 303/8/4 302/8/4 304/8/4
f 304/8/4 302/8/4 306/8/4
f 305/8/4 306/8/4 307/8/4
f 306/8/4 302/8/4 308/8/4
f 307/8/4 306/8/4 308/8/4
f 309/9/4 310/9/4 314/9/4
f 310/8/4 311/8/4 315/8/4
f 314/9/4 310/9/4 315/9/4
f 315/8/4 311/8/4 316/8/4
f 312/8/4 313/8/4 317/8/4
f 317/8/4 313/8/4 318/8/4
f 319/10/4 320/10/4 323/10/4
f 320/8/4 321/8/4 324/8/4
f 323/10/4 320/10/4 324/10/4
f 324/8/4 321/8/4 325/8/4
f 326/10/4 327/10/4 328/10/4
f 328/10/4 327/10/4 329/10/4
f 330/10/4 331/10/4 332/10/4
f 332/10/4 331/10/4 333/10/4
f 322/8/4 323/8/4 334/8/4
f 334/8/4 323/8/4 335/8/4
f 335/10/4 336/10/4 338/10/4
f 336/8/4 337/8/4 339/8/4
f 338/10/4 336/10/4 339/10/4
f 339/8/4 337/8/4 340/8/4
f 341/10/4 342/10/4 346/10/4
f 342/8/4 343/8/4 347/8/4
f 346/10/4 342/10/4 347/10/4
f 343/7/4 344/7/4 348/7/4
f 347/8/4 343/8/4 348/8/4
f 348/7/4 344/7/4 351/7/4
f 349/10/4 350/10/4 352/10/4
f 350/8/4 351/8/4 353/8/4
f 352/10/4 350/10/4 353/10/4
f 351/7/4 344/7/4 354/7/4
f 353/8/4 351/8/4 354/8/4
f 344/8/4 345/8/4 355/8/4
f 354/7/4 344/7/4 355/7/4
f 355/8/4 345/8/4 356/8/4
f 357/10/4 358/10/4 360/10/4
f 358/8/4 359/8/4 360/8/4
f 360/8/4 359/8/4 361/8/4
f 357/10/4 360/10/4 362/10/4
f 361/8/4 359/8/4 363/8/4
f 357/10/4 362/10/4 364/10/4
f 362/8/4 363/8/4 365/8/4
f 364/10/4 362/10/4 365/10/4
f 363/8/4 359/8/4 366/8/4
f 365/8/4 363/8/4 366/8/4
f 367/8/4 368/8/4 369/8/4
f 369/8/4 368/8/4 370/8/4
f 375/10/5 372/10/5 371/10/5
f 376/10/5 372/10/5 375/10/5
f 377/10/5 374/10/5 373/10/5
f 378/10/5 374/10/5 377/10/5
f 381/8/5 380/8/5 379/8/5
f 382/8/5 380/8/5 381/8/5
f 386/8/5 384/8/5 383/8/5
f 387/8/5 384/8/5 386/8/5
f 388/8/5 384/8/5 387/8/5
f 389/8/5 384/8/5 388/8/5
f 391/9/5 386/9/5 385/9/5
f 392/8/5 387/8/5 386/8/5
f 392/9/5 386/9/5 391/9/5
f 393/8/5 387/8/5 392/8/5
f 394/8/5 389/8/5 388/8/5
f 395/9/5 390/9/5 389/9/5
f 395/8/5 389/8/5 394/8/5
f 396/9/5 390/9/5 395/9/5
f 397/8/5 394/8/5 393/8/5
f 397/8/5 393/8/5 392/8/5
f 397/8/5 395/8/5 394/8/5
f 398/8/5 395/8/5 397/8/5
f 403/10/5 400/10/5 399/10/5
f 404/10/5 402/10/5 401/10/5
f 405/10/5 403/10/5 399/10/5
f 405/4/5 404/4/5 403/4/5
f 406/4/5 404/4/5 405/4/5
f 407/4/5 404/4/5 406/4/5
f 408/10/5 402/10/5 404/10/5
f 408/4/5 404/4/5 407/4/5
f 409/10/5 405/10/5 399/10/5
f 410/10/5 405/10/5 409/10/5
f 411/10/5 402/10/5 408/10/5
f 412/10/5 402/10/5 411/10/5
f 413/10/5 411/10/5 410/10/5
f 414/10/5 411/10/5 413/10/5
f 415/10/5 411/10/5 414/10/5
f 416/10/5 411/10/5 415/10/5
f 417/10/5 415/10/5 414/10/5
f 418/10/5 415/10/5 417/10/5
f 421/10/5 420/10/5 419/10/5
f 422/10/5 420/10/5 421/10/5
f 423/10/5 420/10/5 422/10/5
f 424/10/5 420/10/5 423/10/5
f 425/10/5 420/10/5 424/10/5
f 426/10/5 420/10/5 425/10/5
f 429/8/5 428/8/5 427/8/5
f 430/8/5 428/8/5 429/8/5
f 435/8/5 432/8/5 431/8/5
f 436/8/5 432/8/5 435/8/5
f 437/8/5 434/8/5 433/8/5
f 438/8/5 434/8/5 437/8/5
f 441/8/5 440/8/5 439/8/5
f 442/8/5 440/8/5 441/8/5
f 443/10/6 444/10/6 447/10/6
f 447/10/6 444/10/6 448/10/6
f 445/10/6 446/10/6 449/10/6
f 449/10/6 446/10/6 450/10/6
f 451/10/6 452/10/6 455/10/6
f 455/10/6 452/10/6 456/10/6
f 453/10/6 454/10/6 457/10/6
f 457/10/6 454/10/6 458/10/6
f 459/8/6 460/8/6 463/8/6
f 463/8/6 460/8/6 464/8/6
f 461/8/6 462/8/6 465/8/6
f 465/8/6 462/8/6 466/8/6
f 467/10/6 468/10/6 471/10/6
f 471/10/6 468/10/6 472/10/6
f 469/10/6 470/10/6 473/10/6
f 473/10/6 470/10/6 474/10/6
f 475/8/6 476/8/6 477/8/6
f 477/8/6 476/8/6 478/8/6
f 479/8/6 480/8/6 481/8/6
f 481/8/6 480/8/6 482/8/6
f 483/8/6 484/8/6 487/8/6
f 487/8/6 484/8/6 488/8/6
f 485/8/6 486/8/6 489/8/6
f 489/8/6 486/8/6 490/8/6
f 491/8/6 492/8/6 493/8/6
f 493/8/6 492/8/6 494/8/6
f 495/8/6 496/8/6 499/8/6
f 499/8/6 496/8/6 500/8/6
f 497/8/6 498/8/6 501/8/6
f 501/8/6 498/8/6 502/8/6
f 503/8/6 504/8/6 505/8/6
f 505/8/6 504/8/6 506/8/6
f 507/8/6 508/8/6 509/8/6
f 509/8/6 508/8/6 510/8/6
f 510/8/6 508/8/6 511/8/6
f 511/8/6 508/8/6 512/8/6
f 507/8/6 509/8/6 513/8/6
f 509/2/6 510/2/6 514/2/6
f 513/8/6 509/8/6 514/8/6
f 510/8/6 511/8/6 515/8/6
f 514/2/6 510/2/6 515/2/6
f 511/2/6 512/2/6 516/2/6
f 515/8/6 511/8/6 516/8/6
f 512/8/6 508/8/6 517/8/6
f 516/2/6 512/2/6 517/2/6
f 517/8/6 508/8/6 518/8/6
f 515/2/6 516/2/6 519/2/6
f 513/2/6 514/2/6 519/2/6
f 517/2/6 518/2/6 519/2/6
f 516/2/6 517/2/6 519/2/6
f 514/2/6 515/2/6 519/2/6
f 519/2/6 518/2/6 520/2/6
f 520/2/6 518/2/6 521/2/6
f 521/2/6 518/2/6 522/2/6
f 522/2/6 518/2/6 523/2/6
f 523/2/6 518/2/6 524/2/6
f 524/2/6 518/2/6 525/2/6
f 525/2/6 518/2/6 526/2/6
f 513/2/6 519/2/6 527/2/6
f 519/8/6 520/8/6 528/8/6
f 527/2/6 519/2/6 528/2/6
f 520/2/6 521/2/6 529/2/6
f 528/8/6 520/8/6 529/8/6
f 521/8/6 522/8/6 530/8/6
f 522/2/6 523/2/6 530/2/6
f 523/8/6 524/8/6 531/8/6
f 530/2/6 523/2/6 531/2/6
f 524/2/6 525/2/6 532/2/6
f 531/8/6 524/8/6 532/8/6
f 527/8/6 528/8/6 533/8/6
f 528/2/6 529/2/6 533/2/6
f 529/2/6 521/2/6 534/2/6
f 533/2/6 529/2/6 534/2/6
f 521/8/6 530/8/6 534/8/6
f 530/8/6 531/8/6 534/8/6
f 531/2/6 532/2/6 535/2/6
f 534/8/6 531/8/6 535/8/6
f 532/2/6 525/2/6 536/2/6
f 535/2/6 532/2/6 536/2/6
f 525/8/6 526/8/6 536/8/6
f 534/8/6 535/8/6 537/8/6
f 527/8/6 533/8/6 537/8/6
f 535/8/6 536/8/6 537/8/6
f 533/8/6 534/8/6 537/8/6
f 536/8/6 526/8/6 538/8/6
f 537/8/6 536/8/6 538/8/6
