# MagicaVoxel @ Ephtracy

# group
g car-2

# material
mtllib car-2.mtl
usemtl palette

# normals
vn -1 0 0
vn 1 0 0
vn 0 0 1
vn 0 0 -1
vn 0 -1 0
vn 0 1 0

# texcoords
vt 0.591797 0.5
vt 0.841797 0.5
vt 0.974609 0.5
vt 0.994141 0.5

# verts
v -6 0 7
v -6 0 3
v -6 0 -3
v -6 0 -7
v -6 1 6
v -6 1 4
v -6 1 -4
v -6 1 -6
v -6 2 6
v -6 2 4
v -6 2 -4
v -6 2 -6
v -6 3 9
v -6 3 7
v -6 3 3
v -6 3 -3
v -6 3 -7
v -6 3 -9
v -6 7 9
v -6 7 -9
v -5 7 4
v -5 7 1
v -5 7 -4
v -5 7 -7
v -5 9 1
v -5 9 -4
v -5 10 4
v -5 10 -7
v 3 0 7
v 3 0 3
v 3 0 -3
v 3 0 -7
v 3 1 6
v 3 1 4
v 3 1 -4
v 3 1 -6
v 3 2 6
v 3 2 4
v 3 2 -4
v 3 2 -6
v 3 3 7
v 3 3 3
v 3 3 -3
v 3 3 -7
v 4 7 1
v 4 7 -4
v 4 9 1
v 4 9 -4
v -4 7 1
v -4 7 -4
v -4 9 1
v -4 9 -4
v -3 0 7
v -3 0 3
v -3 0 -3
v -3 0 -7
v -3 1 6
v -3 1 4
v -3 1 -4
v -3 1 -6
v -3 2 6
v -3 2 4
v -3 2 -4
v -3 2 -6
v -3 3 7
v -3 3 3
v -3 3 -3
v -3 3 -7
v 5 7 4
v 5 7 1
v 5 7 -4
v 5 7 -7
v 5 9 1
v 5 9 -4
v 5 10 4
v 5 10 -7
v 6 0 7
v 6 0 3
v 6 0 -3
v 6 0 -7
v 6 1 6
v 6 1 4
v 6 1 -4
v 6 1 -6
v 6 2 6
v 6 2 4
v 6 2 -4
v 6 2 -6
v 6 3 9
v 6 3 7
v 6 3 3
v 6 3 -3
v 6 3 -7
v 6 3 -9
v 6 7 9
v 6 7 -9
v -6 3 9
v -6 7 9
v 6 3 9
v 6 7 9
v -6 0 7
v -6 3 7
v -3 0 7
v -3 3 7
v 3 0 7
v 3 3 7
v 6 0 7
v 6 3 7
v -5 7 4
v -5 10 4
v 5 7 4
v 5 10 4
v -6 0 -3
v -6 3 -3
v -3 0 -3
v -3 3 -3
v 3 0 -3
v 3 3 -3
v 6 0 -3
v 6 3 -3
v -4 7 -4
v -4 9 -4
v 4 7 -4
v 4 9 -4
v -6 0 3
v -6 3 3
v -3 0 3
v -3 3 3
v 3 0 3
v 3 3 3
v 6 0 3
v 6 3 3
v -4 7 1
v -4 9 1
v 4 7 1
v 4 9 1
v -6 0 -7
v -6 3 -7
v -5 7 -7
v -5 10 -7
v -3 0 -7
v -3 3 -7
v 3 0 -7
v 3 3 -7
v 5 7 -7
v 5 10 -7
v 6 0 -7
v 6 3 -7
v -6 3 -9
v -6 7 -9
v 6 3 -9
v 6 7 -9
v -6 0 7
v -3 0 7
v 3 0 7
v 6 0 7
v -6 0 3
v -3 0 3
v 3 0 3
v 6 0 3
v -6 0 -3
v -3 0 -3
v 3 0 -3
v 6 0 -3
v -6 0 -7
v -3 0 -7
v 3 0 -7
v 6 0 -7
v -6 3 9
v 6 3 9
v -6 3 7
v -3 3 7
v 3 3 7
v 6 3 7
v -6 3 3
v -3 3 3
v 3 3 3
v 6 3 3
v -6 3 -3
v -3 3 -3
v 3 3 -3
v 6 3 -3
v -6 3 -7
v -3 3 -7
v 3 3 -7
v 6 3 -7
v -6 3 -9
v 6 3 -9
v -4 9 1
v 4 9 1
v -4 9 -4
v 4 9 -4
v -6 7 9
v 6 7 9
v -5 7 4
v 5 7 4
v -5 7 1
v -4 7 1
v 4 7 1
v 5 7 1
v -5 7 -4
v -4 7 -4
v 4 7 -4
v 5 7 -4
v -5 7 -7
v 5 7 -7
v -6 7 -9
v 6 7 -9
v -5 10 4
v 5 10 4
v -5 10 -7
v 5 10 -7

# faces
f 5/4/1 2/4/1 1/4/1
f 6/4/1 2/4/1 5/4/1
f 7/4/1 4/4/1 3/4/1
f 8/4/1 4/4/1 7/4/1
f 9/4/1 5/4/1 1/4/1
f 9/3/1 6/3/1 5/3/1
f 10/4/1 2/4/1 6/4/1
f 10/3/1 6/3/1 9/3/1
f 11/3/1 8/3/1 7/3/1
f 11/4/1 7/4/1 3/4/1
f 12/4/1 4/4/1 8/4/1
f 12/3/1 8/3/1 11/3/1
f 14/4/1 9/4/1 1/4/1
f 14/4/1 10/4/1 9/4/1
f 15/4/1 2/4/1 10/4/1
f 15/4/1 10/4/1 14/4/1
f 16/4/1 11/4/1 3/4/1
f 16/4/1 12/4/1 11/4/1
f 17/4/1 4/4/1 12/4/1
f 17/4/1 12/4/1 16/4/1
f 19/2/1 16/2/1 15/2/1
f 19/2/1 18/2/1 17/2/1
f 19/2/1 17/2/1 16/2/1
f 19/2/1 15/2/1 14/2/1
f 19/2/1 14/2/1 13/2/1
f 20/2/1 18/2/1 19/2/1
f 25/2/1 22/2/1 21/2/1
f 25/1/1 23/1/1 22/1/1
f 26/2/1 24/2/1 23/2/1
f 26/1/1 23/1/1 25/1/1
f 27/2/1 25/2/1 21/2/1
f 27/2/1 26/2/1 25/2/1
f 28/2/1 24/2/1 26/2/1
f 28/2/1 26/2/1 27/2/1
f 33/4/1 30/4/1 29/4/1
f 34/4/1 30/4/1 33/4/1
f 35/4/1 32/4/1 31/4/1
f 36/4/1 32/4/1 35/4/1
f 37/4/1 33/4/1 29/4/1
f 37/3/1 34/3/1 33/3/1
f 38/4/1 30/4/1 34/4/1
f 38/3/1 34/3/1 37/3/1
f 39/3/1 36/3/1 35/3/1
f 39/4/1 35/4/1 31/4/1
f 40/4/1 32/4/1 36/4/1
f 40/3/1 36/3/1 39/3/1
f 41/4/1 37/4/1 29/4/1
f 41/4/1 38/4/1 37/4/1
f 42/4/1 30/4/1 38/4/1
f 42/4/1 38/4/1 41/4/1
f 43/4/1 39/4/1 31/4/1
f 43/4/1 40/4/1 39/4/1
f 44/4/1 32/4/1 40/4/1
f 44/4/1 40/4/1 43/4/1
f 47/1/1 46/1/1 45/1/1
f 48/1/1 46/1/1 47/1/1
f 49/1/2 50/1/2 51/1/2
f 51/1/2 50/1/2 52/1/2
f 53/4/2 54/4/2 57/4/2
f 57/4/2 54/4/2 58/4/2
f 55/4/2 56/4/2 59/4/2
f 59/4/2 56/4/2 60/4/2
f 53/4/2 57/4/2 61/4/2
f 57/3/2 58/3/2 61/3/2
f 58/4/2 54/4/2 62/4/2
f 61/3/2 58/3/2 62/3/2
f 59/3/2 60/3/2 63/3/2
f 55/4/2 59/4/2 63/4/2
f 60/4/2 56/4/2 64/4/2
f 63/3/2 60/3/2 64/3/2
f 53/4/2 61/4/2 65/4/2
f 61/4/2 62/4/2 65/4/2
f 62/4/2 54/4/2 66/4/2
f 65/4/2 62/4/2 66/4/2
f 55/4/2 63/4/2 67/4/2
f 63/4/2 64/4/2 67/4/2
f 64/4/2 56/4/2 68/4/2
f 67/4/2 64/4/2 68/4/2
f 69/2/2 70/2/2 73/2/2
f 70/1/2 71/1/2 73/1/2
f 71/2/2 72/2/2 74/2/2
f 73/1/2 71/1/2 74/1/2
f 69/2/2 73/2/2 75/2/2
f 73/2/2 74/2/2 75/2/2
f 74/2/2 72/2/2 76/2/2
f 75/2/2 74/2/2 76/2/2
f 77/4/2 78/4/2 81/4/2
f 81/4/2 78/4/2 82/4/2
f 79/4/2 80/4/2 83/4/2
f 83/4/2 80/4/2 84/4/2
f 77/4/2 81/4/2 85/4/2
f 81/3/2 82/3/2 85/3/2
f 82/4/2 78/4/2 86/4/2
f 85/3/2 82/3/2 86/3/2
f 83/3/2 84/3/2 87/3/2
f 79/4/2 83/4/2 87/4/2
f 84/4/2 80/4/2 88/4/2
f 87/3/2 84/3/2 88/3/2
f 77/4/2 85/4/2 90/4/2
f 85/4/2 86/4/2 90/4/2
f 86/4/2 78/4/2 91/4/2
f 90/4/2 86/4/2 91/4/2
f 79/4/2 87/4/2 92/4/2
f 87/4/2 88/4/2 92/4/2
f 88/4/2 80/4/2 93/4/2
f 92/4/2 88/4/2 93/4/2
f 91/2/2 92/2/2 95/2/2
f 93/2/2 94/2/2 95/2/2
f 92/2/2 93/2/2 95/2/2
f 90/2/2 91/2/2 95/2/2
f 89/2/2 90/2/2 95/2/2
f 95/2/2 94/2/2 96/2/2
f 99/2/3 98/2/3 97/2/3
f 100/2/3 98/2/3 99/2/3
f 103/4/3 102/4/3 101/4/3
f 104/4/3 102/4/3 103/4/3
f 107/4/3 106/4/3 105/4/3
f 108/4/3 106/4/3 107/4/3
f 111/2/3 110/2/3 109/2/3
f 112/2/3 110/2/3 111/2/3
f 115/4/3 114/4/3 113/4/3
f 116/4/3 114/4/3 115/4/3
f 119/4/3 118/4/3 117/4/3
f 120/4/3 118/4/3 119/4/3
f 123/2/3 122/2/3 121/2/3
f 124/2/3 122/2/3 123/2/3
f 125/4/4 126/4/4 127/4/4
f 127/4/4 126/4/4 128/4/4
f 129/4/4 130/4/4 131/4/4
f 131/4/4 130/4/4 132/4/4
f 133/2/4 134/2/4 135/2/4
f 135/2/4 134/2/4 136/2/4
f 137/4/4 138/4/4 141/4/4
f 141/4/4 138/4/4 142/4/4
f 139/2/4 140/2/4 145/2/4
f 145/2/4 140/2/4 146/2/4
f 143/4/4 144/4/4 147/4/4
f 147/4/4 144/4/4 148/4/4
f 149/2/4 150/2/4 151/2/4
f 151/2/4 150/2/4 152/2/4
f 157/4/5 154/4/5 153/4/5
f 158/4/5 154/4/5 157/4/5
f 159/4/5 156/4/5 155/4/5
f 160/4/5 156/4/5 159/4/5
f 165/4/5 162/4/5 161/4/5
f 166/4/5 162/4/5 165/4/5
f 167/4/5 164/4/5 163/4/5
f 168/4/5 164/4/5 167/4/5
f 171/2/5 170/2/5 169/2/5
f 172/2/5 170/2/5 171/2/5
f 173/2/5 170/2/5 172/2/5
f 174/2/5 170/2/5 173/2/5
f 176/2/5 173/2/5 172/2/5
f 177/2/5 173/2/5 176/2/5
f 179/2/5 176/2/5 175/2/5
f 179/2/5 178/2/5 177/2/5
f 179/2/5 177/2/5 176/2/5
f 180/2/5 178/2/5 179/2/5
f 181/2/5 178/2/5 180/2/5
f 182/2/5 178/2/5 181/2/5
f 184/2/5 181/2/5 180/2/5
f 185/2/5 181/2/5 184/2/5
f 187/2/5 184/2/5 183/2/5
f 187/2/5 186/2/5 185/2/5
f 187/2/5 185/2/5 184/2/5
f 188/2/5 186/2/5 187/2/5
f 191/2/5 190/2/5 189/2/5
f 192/2/5 190/2/5 191/2/5
f 193/2/6 194/2/6 195/2/6
f 195/2/6 194/2/6 196/2/6
f 193/2/6 195/2/6 197/2/6
f 196/2/6 194/2/6 200/2/6
f 193/2/6 197/2/6 201/2/6
f 198/2/6 199/2/6 202/2/6
f 202/2/6 199/2/6 203/2/6
f 200/2/6 194/2/6 204/2/6
f 193/2/6 201/2/6 205/2/6
f 204/2/6 194/2/6 206/2/6
f 193/2/6 205/2/6 207/2/6
f 205/2/6 206/2/6 207/2/6
f 206/2/6 194/2/6 208/2/6
f 207/2/6 206/2/6 208/2/6
f 209/2/6 210/2/6 211/2/6
f 211/2/6 210/2/6 212/2/6
