# MagicaVoxel @ Ephtracy

# group
g cow

# material
mtllib cow.mtl
usemtl palette

# normals
vn -1 0 0
vn 1 0 0
vn 0 0 1
vn 0 0 -1
vn 0 -1 0
vn 0 1 0

# texcoords
vt 0.0605469 0.5
vt 0.958984 0.5
vt 0.990234 0.5
vt 0.994141 0.5

# verts
v -13 9 2
v -13 9 -2
v -13 11 1
v -13 11 -1
v -13 12 2
v -13 12 1
v -13 12 -1
v -13 12 -2
v -10 12 2
v -10 12 1
v -10 12 -1
v -10 12 -2
v -10 13 2
v -10 13 1
v -10 13 -1
v -10 13 -2
v -10 14 2
v -10 14 -2
v -9 8 2
v -9 8 -1
v -9 8 -2
v -9 9 2
v -9 9 -1
v -9 9 -2
v -8 12 3
v -8 12 2
v -8 12 -2
v -8 12 -3
v -8 14 3
v -8 14 2
v -8 14 -2
v -8 14 -3
v -7 0 4
v -7 0 2
v -7 0 -2
v -7 0 -4
v -7 1 4
v -7 1 2
v -7 1 -2
v -7 1 -4
v -7 3 -3
v -7 3 -4
v -7 4 4
v -7 4 3
v -7 4 -3
v -7 4 -4
v -7 6 2
v -7 6 -2
v -7 7 4
v -7 7 3
v -7 7 -1
v -7 7 -3
v -7 8 2
v -7 8 -1
v -7 8 -2
v -7 9 -2
v -7 9 -3
v -7 10 4
v -7 10 2
v -7 10 -2
v -7 10 -4
v -6 10 4
v -6 10 2
v -6 10 -2
v -6 10 -4
v -6 11 4
v -6 11 2
v -6 11 -2
v -6 11 -4
v 0 5 1
v 0 5 -1
v 0 6 1
v 0 6 -1
v 1 4 1
v 1 4 -1
v 1 5 1
v 1 5 -1
v 3 4 1
v 3 4 -1
v 3 5 1
v 3 5 -1
v 5 0 4
v 5 0 2
v 5 0 -2
v 5 0 -4
v 5 1 4
v 5 1 2
v 5 1 -2
v 5 1 -4
v 5 4 4
v 5 4 3
v 5 5 4
v 5 5 3
v 5 5 -3
v 5 5 -4
v 5 6 4
v 5 6 2
v 5 6 -2
v 5 6 -3
v 5 6 -4
v 9 7 1
v 9 7 -1
v 9 8 1
v 9 8 -1
v 10 4 1
v 10 4 -1
v 10 5 1
v 10 5 -1
v 10 7 1
v 10 7 -1
v -6 12 3
v -6 12 2
v -6 12 -2
v -6 12 -3
v -6 13 2
v -6 13 -2
v -6 14 3
v -6 14 2
v -6 14 -2
v -6 14 -3
v -5 0 4
v -5 0 2
v -5 0 -2
v -5 0 -4
v -5 1 4
v -5 1 2
v -5 1 -2
v -5 1 -4
v -5 3 -2
v -5 3 -3
v -5 5 -2
v -5 5 -3
v -5 6 4
v -5 6 2
v -5 6 -2
v -5 6 -3
v -5 6 -4
v -5 11 2
v -5 11 -2
v -5 13 2
v -5 13 -2
v 2 4 1
v 2 4 -1
v 2 5 1
v 2 5 -1
v 4 4 1
v 4 4 -1
v 4 5 1
v 4 5 -1
v 5 5 1
v 5 5 -1
v 5 6 1
v 5 6 -1
v 6 10 4
v 6 10 -1
v 6 10 -4
v 6 11 4
v 6 11 -1
v 6 11 -4
v 7 0 4
v 7 0 2
v 7 0 -2
v 7 0 -4
v 7 1 4
v 7 1 2
v 7 1 -2
v 7 1 -4
v 7 5 -3
v 7 5 -4
v 7 6 2
v 7 6 -2
v 7 8 1
v 7 8 -1
v 7 8 -3
v 7 8 -4
v 7 9 1
v 7 9 -1
v 7 9 -4
v 7 10 4
v 7 10 -1
v 7 10 -4
v 10 8 1
v 10 8 -1
v 10 9 1
v 10 9 -1
v 11 5 1
v 11 5 -1
v 11 8 1
v 11 8 -1
v 12 4 1
v 12 4 -1
v 12 5 1
v 12 5 -1
v -7 0 4
v -7 1 4
v -7 4 4
v -7 7 4
v -7 10 4
v -6 4 4
v -6 7 4
v -6 10 4
v -6 11 4
v -5 0 4
v -5 1 4
v -5 6 4
v -3 8 4
v -3 10 4
v 0 8 4
v 0 10 4
v 2 10 4
v 2 11 4
v 4 10 4
v 4 11 4
v 5 0 4
v 5 1 4
v 5 4 4
v 5 5 4
v 5 6 4
v 6 4 4
v 6 5 4
v 6 10 4
v 6 11 4
v 7 0 4
v 7 1 4
v 7 10 4
v -8 12 3
v -8 14 3
v -6 12 3
v -6 14 3
v -13 9 2
v -13 12 2
v -10 12 2
v -10 13 2
v -10 14 2
v -9 8 2
v -9 9 2
v -9 12 2
v -9 13 2
v -8 12 2
v -8 14 2
v -7 8 2
v -7 10 2
v -6 10 2
v -6 11 2
v -6 12 2
v -6 13 2
v -5 11 2
v -5 13 2
v 0 5 1
v 0 6 1
v 1 4 1
v 1 5 1
v 2 4 1
v 2 5 1
v 3 4 1
v 3 5 1
v 4 4 1
v 4 5 1
v 5 5 1
v 5 6 1
v 7 8 1
v 7 9 1
v 9 7 1
v 9 8 1
v 10 4 1
v 10 5 1
v 10 7 1
v 10 8 1
v 10 9 1
v 11 5 1
v 11 8 1
v 12 4 1
v 12 5 1
v -7 0 -2
v -7 1 -2
v -7 6 -2
v -6 3 -2
v -6 5 -2
v -5 0 -2
v -5 1 -2
v -5 3 -2
v -5 5 -2
v -5 6 -2
v 5 0 -2
v 5 1 -2
v 5 6 -2
v 7 0 -2
v 7 1 -2
v 7 6 -2
v -7 0 2
v -7 1 2
v -7 6 2
v -5 0 2
v -5 1 2
v -5 6 2
v 5 0 2
v 5 1 2
v 5 6 2
v 7 0 2
v 7 1 2
v 7 6 2
v 0 5 -1
v 0 6 -1
v 1 4 -1
v 1 5 -1
v 2 4 -1
v 2 5 -1
v 3 4 -1
v 3 5 -1
v 4 4 -1
v 4 5 -1
v 5 5 -1
v 5 6 -1
v 7 8 -1
v 7 9 -1
v 9 7 -1
v 9 8 -1
v 10 4 -1
v 10 5 -1
v 10 7 -1
v 10 8 -1
v 10 9 -1
v 11 5 -1
v 11 8 -1
v 12 4 -1
v 12 5 -1
v -13 9 -2
v -13 12 -2
v -10 12 -2
v -10 13 -2
v -10 14 -2
v -9 8 -2
v -9 9 -2
v -9 12 -2
v -9 13 -2
v -8 10 -2
v -8 11 -2
v -8 12 -2
v -8 14 -2
v -7 8 -2
v -7 9 -2
v -7 10 -2
v -7 11 -2
v -6 10 -2
v -6 11 -2
v -6 12 -2
v -6 13 -2
v -5 11 -2
v -5 13 -2
v -8 12 -3
v -8 14 -3
v -6 12 -3
v -6 14 -3
v -7 0 -4
v -7 1 -4
v -7 3 -4
v -7 4 -4
v -7 10 -4
v -6 3 -4
v -6 4 -4
v -6 10 -4
v -6 11 -4
v -5 0 -4
v -5 1 -4
v -5 6 -4
v -5 7 -4
v -3 9 -4
v -3 11 -4
v -2 6 -4
v -2 7 -4
v 0 9 -4
v 0 11 -4
v 2 8 -4
v 2 9 -4
v 3 8 -4
v 3 9 -4
v 4 6 -4
v 4 8 -4
v 5 0 -4
v 5 1 -4
v 5 5 -4
v 5 6 -4
v 5 9 -4
v 5 11 -4
v 6 10 -4
v 6 11 -4
v 7 0 -4
v 7 1 -4
v 7 5 -4
v 7 8 -4
v 7 9 -4
v 7 10 -4
v -7 0 4
v -5 0 4
v 5 0 4
v 7 0 4
v -7 0 2
v -5 0 2
v 5 0 2
v 7 0 2
v -7 0 -2
v -5 0 -2
v 5 0 -2
v 7 0 -2
v -7 0 -4
v -5 0 -4
v 5 0 -4
v 7 0 -4
v 1 4 1
v 2 4 1
v 3 4 1
v 4 4 1
v 10 4 1
v 12 4 1
v 1 4 -1
v 2 4 -1
v 3 4 -1
v 4 4 -1
v 10 4 -1
v 12 4 -1
v 0 5 1
v 1 5 1
v 2 5 1
v 3 5 1
v 4 5 1
v 5 5 1
v 0 5 -1
v 1 5 -1
v 2 5 -1
v 3 5 -1
v 4 5 -1
v 5 5 -1
v -5 6 4
v 5 6 4
v -7 6 2
v -5 6 2
v 5 6 2
v 7 6 2
v 0 6 1
v 5 6 1
v 0 6 -1
v 5 6 -1
v -7 6 -2
v -5 6 -2
v 5 6 -2
v 7 6 -2
v -5 6 -3
v -2 6 -3
v 4 6 -3
v 5 6 -3
v -5 6 -4
v -2 6 -4
v 4 6 -4
v 5 6 -4
v 9 7 1
v 10 7 1
v 9 7 -1
v 10 7 -1
v -9 8 2
v -7 8 2
v 7 8 1
v 9 8 1
v -9 8 -1
v -7 8 -1
v 7 8 -1
v 9 8 -1
v -9 8 -2
v -7 8 -2
v -13 9 2
v -9 9 2
v -9 9 -1
v -13 9 -2
v -9 9 -2
v -8 12 3
v -6 12 3
v -8 12 2
v -6 12 2
v -8 12 -2
v -6 12 -2
v -8 12 -3
v -6 12 -3
v 11 5 1
v 12 5 1
v 11 5 -1
v 12 5 -1
v 10 8 1
v 11 8 1
v 10 8 -1
v 11 8 -1
v 7 9 1
v 10 9 1
v 7 9 -1
v 10 9 -1
v -7 10 4
v -6 10 4
v 6 10 4
v 7 10 4
v -7 10 2
v -6 10 2
v 6 10 -1
v 7 10 -1
v -7 10 -2
v -6 10 -2
v -7 10 -4
v -6 10 -4
v 6 10 -4
v 7 10 -4
v -6 11 4
v 2 11 4
v 4 11 4
v 6 11 4
v -2 11 3
v 1 11 3
v -6 11 2
v -5 11 2
v 2 11 1
v 4 11 1
v -2 11 -1
v 1 11 -1
v 5 11 -1
v 6 11 -1
v -6 11 -2
v -5 11 -2
v -3 11 -3
v 0 11 -3
v -6 11 -4
v -3 11 -4
v 0 11 -4
v 5 11 -4
v 6 11 -4
v -13 12 2
v -10 12 2
v -13 12 1
v -12 12 1
v -10 12 1
v -13 12 -1
v -12 12 -1
v -10 12 -1
v -13 12 -2
v -10 12 -2
v -6 13 2
v -5 13 2
v -6 13 -2
v -5 13 -2
v -8 14 3
v -6 14 3
v -10 14 2
v -8 14 2
v -6 14 2
v -10 14 -2
v -8 14 -2
v -6 14 -2
v -8 14 -3
v -6 14 -3

# faces
f 3/2/1 2/2/1 1/2/1
f 4/2/1 2/2/1 3/2/1
f 5/2/1 3/2/1 1/2/1
f 6/4/1 4/4/1 3/4/1
f 6/2/1 3/2/1 5/2/1
f 7/2/1 2/2/1 4/2/1
f 7/4/1 4/4/1 6/4/1
f 8/2/1 2/2/1 7/2/1
f 13/4/1 10/4/1 9/4/1
f 14/2/1 11/2/1 10/2/1
f 14/4/1 10/4/1 13/4/1
f 15/4/1 12/4/1 11/4/1
f 15/2/1 11/2/1 14/2/1
f 16/4/1 12/4/1 15/4/1
f 17/2/1 14/2/1 13/2/1
f 17/2/1 15/2/1 14/2/1
f 17/2/1 16/2/1 15/2/1
f 18/2/1 16/2/1 17/2/1
f 22/2/1 20/2/1 19/2/1
f 23/4/1 21/4/1 20/4/1
f 23/2/1 20/2/1 22/2/1
f 24/4/1 21/4/1 23/4/1
f 29/4/1 26/4/1 25/4/1
f 30/4/1 26/4/1 29/4/1
f 31/4/1 28/4/1 27/4/1
f 32/4/1 28/4/1 31/4/1
f 37/3/1 34/3/1 33/3/1
f 38/3/1 34/3/1 37/3/1
f 39/3/1 36/3/1 35/3/1
f 40/3/1 36/3/1 39/3/1
f 41/2/1 40/2/1 39/2/1
f 42/2/1 40/2/1 41/2/1
f 43/2/1 38/2/1 37/2/1
f 44/2/1 38/2/1 43/2/1
f 45/2/1 41/2/1 39/2/1
f 45/4/1 42/4/1 41/4/1
f 46/4/1 42/4/1 45/4/1
f 47/2/1 38/2/1 44/2/1
f 48/2/1 45/2/1 39/2/1
f 48/2/1 46/2/1 45/2/1
f 49/4/1 44/4/1 43/4/1
f 50/2/1 48/2/1 47/2/1
f 50/4/1 44/4/1 49/4/1
f 50/2/1 47/2/1 44/2/1
f 51/2/1 48/2/1 50/2/1
f 52/2/1 46/2/1 48/2/1
f 52/2/1 48/2/1 51/2/1
f 53/2/1 51/2/1 50/2/1
f 53/2/1 50/2/1 49/2/1
f 54/4/1 52/4/1 51/4/1
f 54/2/1 51/2/1 53/2/1
f 55/4/1 52/4/1 54/4/1
f 56/4/1 52/4/1 55/4/1
f 57/2/1 46/2/1 52/2/1
f 57/4/1 52/4/1 56/4/1
f 58/2/1 53/2/1 49/2/1
f 59/2/1 53/2/1 58/2/1
f 60/2/1 57/2/1 56/2/1
f 61/2/1 46/2/1 57/2/1
f 61/2/1 57/2/1 60/2/1
f 66/2/1 63/2/1 62/2/1
f 67/2/1 63/2/1 66/2/1
f 68/2/1 65/2/1 64/2/1
f 69/2/1 65/2/1 68/2/1
f 72/1/1 71/1/1 70/1/1
f 73/1/1 71/1/1 72/1/1
f 76/1/1 75/1/1 74/1/1
f 77/1/1 75/1/1 76/1/1
f 80/1/1 79/1/1 78/1/1
f 81/1/1 79/1/1 80/1/1
f 86/3/1 83/3/1 82/3/1
f 87/3/1 83/3/1 86/3/1
f 88/3/1 85/3/1 84/3/1
f 89/3/1 85/3/1 88/3/1
f 90/2/1 87/2/1 86/2/1
f 91/2/1 87/2/1 90/2/1
f 92/4/1 91/4/1 90/4/1
f 93/2/1 87/2/1 91/2/1
f 93/4/1 91/4/1 92/4/1
f 94/2/1 89/2/1 88/2/1
f 95/2/1 89/2/1 94/2/1
f 96/2/1 93/2/1 92/2/1
f 97/2/1 87/2/1 93/2/1
f 97/2/1 93/2/1 96/2/1
f 98/2/1 94/2/1 88/2/1
f 99/4/1 95/4/1 94/4/1
f 99/2/1 94/2/1 98/2/1
f 100/4/1 95/4/1 99/4/1
f 103/2/1 102/2/1 101/2/1
f 104/2/1 102/2/1 103/2/1
f 107/4/1 106/4/1 105/4/1
f 108/4/1 106/4/1 107/4/1
f 109/2/1 108/2/1 107/2/1
f 110/2/1 108/2/1 109/2/1
f 111/4/2 112/4/2 115/4/2
f 113/4/2 114/4/2 116/4/2
f 111/4/2 115/4/2 117/4/2
f 115/2/2 116/2/2 118/2/2
f 117/4/2 115/4/2 118/4/2
f 116/4/2 114/4/2 119/4/2
f 118/2/2 116/2/2 119/2/2
f 119/4/2 114/4/2 120/4/2
f 121/3/2 122/3/2 125/3/2
f 125/3/2 122/3/2 126/3/2
f 123/3/2 124/3/2 127/3/2
f 127/3/2 124/3/2 128/3/2
f 127/2/2 128/2/2 129/2/2
f 129/2/2 128/2/2 130/2/2
f 129/4/2 130/4/2 131/4/2
f 130/2/2 128/2/2 132/2/2
f 131/4/2 130/4/2 132/4/2
f 125/2/2 126/2/2 133/2/2
f 133/2/2 126/2/2 134/2/2
f 131/2/2 132/2/2 135/2/2
f 132/2/2 128/2/2 136/2/2
f 135/2/2 132/2/2 136/2/2
f 136/2/2 128/2/2 137/2/2
f 138/2/2 139/2/2 140/2/2
f 140/2/2 139/2/2 141/2/2
f 142/1/2 143/1/2 144/1/2
f 144/1/2 143/1/2 145/1/2
f 146/1/2 147/1/2 148/1/2
f 148/1/2 147/1/2 149/1/2
f 150/1/2 151/1/2 152/1/2
f 152/1/2 151/1/2 153/1/2
f 154/2/2 155/2/2 157/2/2
f 155/4/2 156/4/2 158/4/2
f 157/2/2 155/2/2 158/2/2
f 158/4/2 156/4/2 159/4/2
f 160/3/2 161/3/2 164/3/2
f 164/3/2 161/3/2 165/3/2
f 162/3/2 163/3/2 166/3/2
f 166/3/2 163/3/2 167/3/2
f 166/2/2 167/2/2 168/2/2
f 168/2/2 167/2/2 169/2/2
f 164/2/2 165/2/2 170/2/2
f 166/2/2 168/2/2 171/2/2
f 170/2/2 171/2/2 172/2/2
f 172/2/2 171/2/2 173/2/2
f 168/4/2 169/4/2 174/4/2
f 173/2/2 171/2/2 174/2/2
f 171/2/2 168/2/2 174/2/2
f 174/4/2 169/4/2 175/4/2
f 170/2/2 172/2/2 176/2/2
f 174/2/2 175/2/2 177/2/2
f 173/2/2 174/2/2 177/2/2
f 177/2/2 175/2/2 178/2/2
f 164/2/2 170/2/2 179/2/2
f 170/2/2 176/2/2 179/2/2
f 176/2/2 177/2/2 179/2/2
f 177/4/2 178/4/2 180/4/2
f 179/2/2 177/2/2 180/2/2
f 180/4/2 178/4/2 181/4/2
f 182/2/2 183/2/2 184/2/2
f 184/2/2 183/2/2 185/2/2
f 186/2/2 187/2/2 188/2/2
f 188/2/2 187/2/2 189/2/2
f 190/4/2 191/4/2 192/4/2
f 192/4/2 191/4/2 193/4/2
f 199/2/3 196/2/3 195/2/3
f 199/4/3 197/4/3 196/4/3
f 200/2/3 198/2/3 197/2/3
f 200/4/3 197/4/3 199/4/3
f 201/2/3 198/2/3 200/2/3
f 203/3/3 195/3/3 194/3/3
f 204/2/3 202/2/3 201/2/3
f 204/3/3 195/3/3 203/3/3
f 204/2/3 199/2/3 195/2/3
f 204/2/3 201/2/3 200/2/3
f 204/2/3 200/2/3 199/2/3
f 205/2/3 202/2/3 204/2/3
f 206/2/3 202/2/3 205/2/3
f 207/2/3 202/2/3 206/2/3
f 208/2/3 206/2/3 205/2/3
f 208/4/3 207/4/3 206/4/3
f 209/2/3 202/2/3 207/2/3
f 209/4/3 207/4/3 208/4/3
f 210/2/3 209/2/3 208/2/3
f 210/2/3 202/2/3 209/2/3
f 211/2/3 202/2/3 210/2/3
f 212/2/3 210/2/3 208/2/3
f 212/4/3 211/4/3 210/4/3
f 213/4/3 211/4/3 212/4/3
f 218/2/3 208/2/3 205/2/3
f 218/2/3 212/2/3 208/2/3
f 218/2/3 213/2/3 212/2/3
f 219/4/3 217/4/3 216/4/3
f 219/2/3 216/2/3 215/2/3
f 220/2/3 218/2/3 217/2/3
f 220/4/3 217/4/3 219/4/3
f 221/2/3 213/2/3 218/2/3
f 221/2/3 218/2/3 220/2/3
f 222/2/3 213/2/3 221/2/3
f 223/3/3 215/3/3 214/3/3
f 224/2/3 219/2/3 215/2/3
f 224/3/3 215/3/3 223/3/3
f 224/2/3 220/2/3 219/2/3
f 224/2/3 221/2/3 220/2/3
f 225/2/3 221/2/3 224/2/3
f 228/4/3 227/4/3 226/4/3
f 229/4/3 227/4/3 228/4/3
f 232/2/3 231/2/3 230/2/3
f 236/2/3 232/2/3 230/2/3
f 237/4/3 233/4/3 232/4/3
f 237/2/3 232/2/3 236/2/3
f 238/2/3 234/2/3 233/2/3
f 238/4/3 233/4/3 237/4/3
f 239/2/3 237/2/3 236/2/3
f 239/2/3 236/2/3 235/2/3
f 239/2/3 238/2/3 237/2/3
f 240/2/3 234/2/3 238/2/3
f 240/2/3 238/2/3 239/2/3
f 241/2/3 239/2/3 235/2/3
f 242/2/3 239/2/3 241/2/3
f 243/2/3 239/2/3 242/2/3
f 244/2/3 239/2/3 243/2/3
f 245/2/3 239/2/3 244/2/3
f 247/2/3 246/2/3 245/2/3
f 247/2/3 245/2/3 244/2/3
f 248/2/3 246/2/3 247/2/3
f 252/1/3 250/1/3 249/1/3
f 253/1/3 252/1/3 251/1/3
f 254/1/3 250/1/3 252/1/3
f 254/1/3 252/1/3 253/1/3
f 256/1/3 250/1/3 254/1/3
f 257/1/3 256/1/3 255/1/3
f 258/1/3 250/1/3 256/1/3
f 258/1/3 256/1/3 257/1/3
f 259/1/3 250/1/3 258/1/3
f 260/1/3 250/1/3 259/1/3
f 264/2/3 262/2/3 261/2/3
f 267/2/3 264/2/3 263/2/3
f 268/2/3 262/2/3 264/2/3
f 268/2/3 264/2/3 267/2/3
f 269/2/3 262/2/3 268/2/3
f 270/2/3 267/2/3 266/2/3
f 270/4/3 266/4/3 265/4/3
f 270/2/3 268/2/3 267/2/3
f 271/2/3 268/2/3 270/2/3
f 272/4/3 270/4/3 265/4/3
f 273/4/3 270/4/3 272/4/3
f 277/2/3 276/2/3 275/2/3
f 278/2/3 276/2/3 277/2/3
f 279/3/3 275/3/3 274/3/3
f 280/2/3 277/2/3 275/2/3
f 280/3/3 275/3/3 279/3/3
f 281/4/3 278/4/3 277/4/3
f 281/2/3 277/2/3 280/2/3
f 282/2/3 276/2/3 278/2/3
f 282/4/3 278/4/3 281/4/3
f 283/2/3 276/2/3 282/2/3
f 287/3/3 285/3/3 284/3/3
f 288/2/3 286/2/3 285/2/3
f 288/3/3 285/3/3 287/3/3
f 289/2/3 286/2/3 288/2/3
f 290/3/4 291/3/4 293/3/4
f 291/2/4 292/2/4 294/2/4
f 293/3/4 291/3/4 294/3/4
f 294/2/4 292/2/4 295/2/4
f 296/3/4 297/3/4 299/3/4
f 297/2/4 298/2/4 300/2/4
f 299/3/4 297/3/4 300/3/4
f 300/2/4 298/2/4 301/2/4
f 302/1/4 303/1/4 305/1/4
f 304/1/4 305/1/4 306/1/4
f 305/1/4 303/1/4 307/1/4
f 306/1/4 305/1/4 307/1/4
f 307/1/4 303/1/4 309/1/4
f 308/1/4 309/1/4 310/1/4
f 309/1/4 303/1/4 311/1/4
f 310/1/4 309/1/4 311/1/4
f 311/1/4 303/1/4 312/1/4
f 312/1/4 303/1/4 313/1/4
f 314/2/4 315/2/4 317/2/4
f 316/2/4 317/2/4 320/2/4
f 317/2/4 315/2/4 321/2/4
f 320/2/4 317/2/4 321/2/4
f 321/2/4 315/2/4 322/2/4
f 319/2/4 320/2/4 323/2/4
f 318/4/4 319/4/4 323/4/4
f 320/2/4 321/2/4 323/2/4
f 323/2/4 321/2/4 324/2/4
f 318/4/4 323/4/4 325/4/4
f 325/4/4 323/4/4 326/4/4
f 327/2/4 328/2/4 329/2/4
f 327/2/4 329/2/4 333/2/4
f 329/4/4 330/4/4 334/4/4
f 333/2/4 329/2/4 334/2/4
f 330/2/4 331/2/4 335/2/4
f 334/4/4 330/4/4 335/4/4
f 333/2/4 334/2/4 336/2/4
f 334/2/4 335/2/4 336/2/4
f 336/2/4 335/2/4 337/2/4
f 337/2/4 335/2/4 338/2/4
f 335/2/4 331/2/4 339/2/4
f 338/2/4 335/2/4 339/2/4
f 332/4/4 333/4/4 340/4/4
f 333/2/4 336/2/4 341/2/4
f 340/4/4 333/4/4 341/4/4
f 336/4/4 337/4/4 342/4/4
f 341/2/4 336/2/4 342/2/4
f 337/2/4 338/2/4 343/2/4
f 342/4/4 337/4/4 343/4/4
f 342/2/4 343/2/4 344/2/4
f 343/2/4 338/2/4 345/2/4
f 344/2/4 343/2/4 345/2/4
f 345/2/4 338/2/4 346/2/4
f 346/2/4 347/2/4 348/2/4
f 345/2/4 346/2/4 348/2/4
f 348/2/4 347/2/4 349/2/4
f 350/4/4 351/4/4 352/4/4
f 352/4/4 351/4/4 353/4/4
f 355/2/4 356/2/4 359/2/4
f 356/4/4 357/4/4 359/4/4
f 357/2/4 358/2/4 360/2/4
f 359/4/4 357/4/4 360/4/4
f 360/2/4 358/2/4 361/2/4
f 354/3/4 355/3/4 363/3/4
f 361/2/4 362/2/4 364/2/4
f 363/3/4 355/3/4 364/3/4
f 355/2/4 359/2/4 364/2/4
f 360/2/4 361/2/4 364/2/4
f 359/2/4 360/2/4 364/2/4
f 364/2/4 362/2/4 365/2/4
f 365/2/4 362/2/4 366/2/4
f 366/2/4 362/2/4 367/2/4
f 367/2/4 362/2/4 368/2/4
f 365/4/4 366/4/4 369/4/4
f 366/2/4 367/2/4 370/2/4
f 369/4/4 366/4/4 370/4/4
f 367/4/4 368/4/4 371/4/4
f 370/2/4 367/2/4 371/2/4
f 369/2/4 370/2/4 371/2/4
f 371/4/4 368/4/4 372/4/4
f 369/2/4 371/2/4 373/2/4
f 371/2/4 372/2/4 373/2/4
f 373/2/4 372/2/4 374/2/4
f 369/2/4 373/2/4 375/2/4
f 373/4/4 374/4/4 375/4/4
f 374/2/4 372/2/4 376/2/4
f 375/4/4 374/4/4 376/4/4
f 369/2/4 375/2/4 377/2/4
f 375/2/4 376/2/4 377/2/4
f 377/2/4 376/2/4 378/2/4
f 377/4/4 378/4/4 382/4/4
f 376/2/4 372/2/4 383/2/4
f 378/2/4 376/2/4 383/2/4
f 383/2/4 372/2/4 384/2/4
f 383/4/4 384/4/4 385/4/4
f 385/4/4 384/4/4 386/4/4
f 379/3/4 380/3/4 387/3/4
f 380/2/4 381/2/4 388/2/4
f 387/3/4 380/3/4 388/3/4
f 381/4/4 382/4/4 389/4/4
f 388/2/4 381/2/4 389/2/4
f 382/4/4 378/4/4 390/4/4
f 389/4/4 382/4/4 390/4/4
f 378/2/4 383/2/4 390/2/4
f 383/4/4 385/4/4 391/4/4
f 390/2/4 383/2/4 391/2/4
f 391/4/4 385/4/4 392/4/4
f 397/3/5 394/3/5 393/3/5
f 398/3/5 394/3/5 397/3/5
f 399/3/5 396/3/5 395/3/5
f 400/3/5 396/3/5 399/3/5
f 405/3/5 402/3/5 401/3/5
f 406/3/5 402/3/5 405/3/5
f 407/3/5 404/3/5 403/3/5
f 408/3/5 404/3/5 407/3/5
f 415/1/5 410/1/5 409/1/5
f 416/1/5 410/1/5 415/1/5
f 417/1/5 412/1/5 411/1/5
f 418/1/5 412/1/5 417/1/5
f 419/4/5 414/4/5 413/4/5
f 420/4/5 414/4/5 419/4/5
f 427/1/5 422/1/5 421/1/5
f 428/1/5 422/1/5 427/1/5
f 429/1/5 424/1/5 423/1/5
f 430/1/5 424/1/5 429/1/5
f 431/1/5 426/1/5 425/1/5
f 432/1/5 426/1/5 431/1/5
f 436/2/5 434/2/5 433/2/5
f 437/2/5 434/2/5 436/2/5
f 439/2/5 436/2/5 435/2/5
f 439/2/5 438/2/5 437/2/5
f 439/2/5 437/2/5 436/2/5
f 440/2/5 438/2/5 439/2/5
f 441/2/5 439/2/5 435/2/5
f 442/2/5 438/2/5 440/2/5
f 443/2/5 441/2/5 435/2/5
f 443/2/5 442/2/5 441/2/5
f 444/2/5 442/2/5 443/2/5
f 445/2/5 438/2/5 442/2/5
f 445/2/5 442/2/5 444/2/5
f 446/2/5 438/2/5 445/2/5
f 447/2/5 445/2/5 444/2/5
f 448/2/5 445/2/5 447/2/5
f 449/2/5 445/2/5 448/2/5
f 450/2/5 445/2/5 449/2/5
f 451/4/5 448/4/5 447/4/5
f 452/2/5 449/2/5 448/2/5
f 452/4/5 448/4/5 451/4/5
f 453/4/5 450/4/5 449/4/5
f 453/2/5 449/2/5 452/2/5
f 454/4/5 450/4/5 453/4/5
f 457/2/5 456/2/5 455/2/5
f 458/2/5 456/2/5 457/2/5
f 463/2/5 460/2/5 459/2/5
f 464/2/5 460/2/5 463/2/5
f 465/2/5 462/2/5 461/2/5
f 466/2/5 462/2/5 465/2/5
f 467/4/5 464/4/5 463/4/5
f 468/4/5 464/4/5 467/4/5
f 471/2/5 470/2/5 469/2/5
f 472/2/5 471/2/5 469/2/5
f 473/2/5 471/2/5 472/2/5
f 476/4/5 475/4/5 474/4/5
f 477/4/5 475/4/5 476/4/5
f 480/4/5 479/4/5 478/4/5
f 481/4/5 479/4/5 480/4/5
f 482/4/6 483/4/6 484/4/6
f 484/4/6 483/4/6 485/4/6
f 486/2/6 487/2/6 488/2/6
f 488/2/6 487/2/6 489/2/6
f 490/2/6 491/2/6 492/2/6
f 492/2/6 491/2/6 493/2/6
f 494/2/6 495/2/6 498/2/6
f 498/2/6 495/2/6 499/2/6
f 496/2/6 497/2/6 500/2/6
f 500/2/6 497/2/6 501/2/6
f 502/2/6 503/2/6 504/2/6
f 504/2/6 503/2/6 505/2/6
f 500/4/6 501/4/6 506/4/6
f 506/4/6 501/4/6 507/4/6
f 508/2/6 509/2/6 512/2/6
f 512/2/6 509/2/6 513/2/6
f 508/2/6 512/2/6 514/2/6
f 514/2/6 512/2/6 515/2/6
f 509/4/6 510/4/6 516/4/6
f 513/2/6 509/2/6 516/2/6
f 510/2/6 511/2/6 517/2/6
f 516/4/6 510/4/6 517/4/6
f 515/2/6 512/2/6 518/2/6
f 512/4/6 513/4/6 518/4/6
f 513/2/6 516/2/6 519/2/6
f 518/4/6 513/4/6 519/4/6
f 516/2/6 517/2/6 519/2/6
f 517/2/6 511/2/6 520/2/6
f 519/2/6 517/2/6 520/2/6
f 520/2/6 511/2/6 521/2/6
f 515/2/6 518/2/6 523/2/6
f 518/2/6 519/2/6 523/2/6
f 519/2/6 520/2/6 523/2/6
f 523/2/6 520/2/6 524/2/6
f 522/2/6 523/2/6 524/2/6
f 524/2/6 520/2/6 525/2/6
f 522/2/6 524/2/6 526/2/6
f 524/4/6 525/4/6 527/4/6
f 526/2/6 524/2/6 527/2/6
f 525/2/6 520/2/6 528/2/6
f 527/4/6 525/4/6 528/4/6
f 520/4/6 521/4/6 529/4/6
f 528/2/6 520/2/6 529/2/6
f 529/4/6 521/4/6 530/4/6
f 531/2/6 532/2/6 533/2/6
f 533/2/6 532/2/6 534/2/6
f 534/2/6 532/2/6 535/2/6
f 533/4/6 534/4/6 536/4/6
f 534/2/6 535/2/6 537/2/6
f 536/4/6 534/4/6 537/4/6
f 537/2/6 535/2/6 538/2/6
f 536/2/6 537/2/6 539/2/6
f 537/2/6 538/2/6 539/2/6
f 539/2/6 538/2/6 540/2/6
f 541/2/6 542/2/6 543/2/6
f 543/2/6 542/2/6 544/2/6
f 545/4/6 546/4/6 548/4/6
f 548/4/6 546/4/6 549/4/6
f 547/2/6 548/2/6 550/2/6
f 548/2/6 549/2/6 550/2/6
f 550/2/6 549/2/6 551/2/6
f 551/2/6 549/2/6 552/2/6
f 551/4/6 552/4/6 553/4/6
f 553/4/6 552/4/6 554/4/6
