# MagicaVoxel @ Ephtracy

# group
g farmH

# material
mtllib farmH.mtl
usemtl palette

# normals
vn -1 0 0
vn 1 0 0
vn 0 0 1
vn 0 0 -1
vn 0 -1 0
vn 0 1 0

# texcoords
vt 0.0683594 0.5
vt 0.537109 0.5

# verts
v -20 30 20
v -20 30 -19
v -20 31 20
v -20 31 18
v -20 31 -17
v -20 31 -19
v -20 32 18
v -20 32 16
v -20 32 -15
v -20 32 -17
v -20 33 16
v -20 33 14
v -20 33 -13
v -20 33 -15
v -20 34 14
v -20 34 12
v -20 34 -11
v -20 34 -13
v -20 35 12
v -20 35 10
v -20 35 -9
v -20 35 -11
v -20 36 10
v -20 36 8
v -20 36 -7
v -20 36 -9
v -20 37 8
v -20 37 6
v -20 37 -5
v -20 37 -7
v -20 38 6
v -20 38 4
v -20 38 -3
v -20 38 -5
v -20 40 4
v -20 40 -3
v -19 31 20
v -19 31 18
v -19 31 -17
v -19 31 -19
v -19 32 20
v -19 32 18
v -19 32 16
v -19 32 -15
v -19 32 -17
v -19 32 -19
v -19 33 18
v -19 33 16
v -19 33 14
v -19 33 -13
v -19 33 -15
v -19 33 -17
v -19 34 16
v -19 34 14
v -19 34 12
v -19 34 -11
v -19 34 -13
v -19 34 -15
v -19 35 14
v -19 35 12
v -19 35 10
v -19 35 -9
v -19 35 -11
v -19 35 -13
v -19 36 12
v -19 36 10
v -19 36 8
v -19 36 -7
v -19 36 -9
v -19 36 -11
v -19 37 10
v -19 37 8
v -19 37 6
v -19 37 -5
v -19 37 -7
v -19 37 -9
v -19 38 8
v -19 38 6
v -19 38 4
v -19 38 -3
v -19 38 -5
v -19 38 -7
v -19 39 6
v -19 39 4
v -19 39 -3
v -19 39 -5
v -17 0 17
v -17 0 14
v -17 0 -14
v -17 0 -17
v -17 30 17
v -17 30 14
v -17 30 -14
v -17 30 -17
v -16 7 14
v -16 7 -14
v -16 8 14
v -16 8 -14
v 14 0 17
v 14 0 14
v 14 0 -14
v 14 0 -17
v 14 7 16
v 14 7 14
v 14 7 -14
v 14 7 -16
v 14 8 16
v 14 8 14
v 14 8 -14
v 14 8 -16
v 14 30 17
v 14 30 14
v 14 30 -14
v 14 30 -17
v 16 0 6
v 16 0 5
v 16 0 -1
v 16 0 -2
v 16 7 6
v 16 7 5
v 16 7 -1
v 16 7 -2
v 16 8 6
v 16 8 5
v 16 8 -1
v 16 8 -2
v 16 9 6
v 16 9 5
v 16 9 -1
v 16 9 -2
v 18 4 5
v 18 4 -1
v 18 6 5
v 18 6 -1
v 19 1 5
v 19 1 -1
v 19 3 5
v 19 3 -1
v -14 0 17
v -14 0 14
v -14 0 -14
v -14 0 -17
v -14 7 16
v -14 7 14
v -14 7 -14
v -14 7 -16
v -14 8 16
v -14 8 14
v -14 8 -14
v -14 8 -16
v -14 30 17
v -14 30 14
v -14 30 -14
v -14 30 -17
v 16 7 14
v 16 7 6
v 16 7 -2
v 16 7 -14
v 16 8 14
v 16 8 6
v 16 8 -2
v 16 8 -14
v 17 0 17
v 17 0 14
v 17 0 -14
v 17 0 -17
v 17 30 17
v 17 30 14
v 17 30 -14
v 17 30 -17
v 18 6 6
v 18 6 5
v 18 6 -1
v 18 6 -2
v 18 7 5
v 18 7 -1
v 18 8 5
v 18 8 -1
v 18 9 6
v 18 9 5
v 18 9 -1
v 18 9 -2
v 19 3 6
v 19 3 5
v 19 3 -1
v 19 3 -2
v 19 4 5
v 19 4 -1
v 19 6 6
v 19 6 -2
v 19 31 20
v 19 31 18
v 19 31 -17
v 19 31 -19
v 19 32 20
v 19 32 18
v 19 32 16
v 19 32 -15
v 19 32 -17
v 19 32 -19
v 19 33 18
v 19 33 16
v 19 33 14
v 19 33 -13
v 19 33 -15
v 19 33 -17
v 19 34 16
v 19 34 14
v 19 34 12
v 19 34 -11
v 19 34 -13
v 19 34 -15
v 19 35 14
v 19 35 12
v 19 35 10
v 19 35 -9
v 19 35 -11
v 19 35 -13
v 19 36 12
v 19 36 10
v 19 36 8
v 19 36 -7
v 19 36 -9
v 19 36 -11
v 19 37 10
v 19 37 8
v 19 37 6
v 19 37 -5
v 19 37 -7
v 19 37 -9
v 19 38 8
v 19 38 6
v 19 38 4
v 19 38 -3
v 19 38 -5
v 19 38 -7
v 19 39 6
v 19 39 4
v 19 39 -3
v 19 39 -5
v 20 0 6
v 20 0 5
v 20 0 -1
v 20 0 -2
v 20 1 5
v 20 1 -1
v 20 3 6
v 20 3 -2
v 20 30 20
v 20 30 -19
v 20 31 20
v 20 31 18
v 20 31 -17
v 20 31 -19
v 20 32 18
v 20 32 16
v 20 32 -15
v 20 32 -17
v 20 33 16
v 20 33 14
v 20 33 -13
v 20 33 -15
v 20 34 14
v 20 34 12
v 20 34 -11
v 20 34 -13
v 20 35 12
v 20 35 10
v 20 35 -9
v 20 35 -11
v 20 36 10
v 20 36 8
v 20 36 -7
v 20 36 -9
v 20 37 8
v 20 37 6
v 20 37 -5
v 20 37 -7
v 20 38 6
v 20 38 4
v 20 38 -3
v 20 38 -5
v 20 40 4
v 20 40 -3
v -20 30 20
v -20 31 20
v -19 31 20
v -19 32 20
v 19 31 20
v 19 32 20
v 20 30 20
v 20 31 20
v -20 31 18
v -20 32 18
v -19 31 18
v -19 32 18
v -19 33 18
v 19 31 18
v 19 32 18
v 19 33 18
v 20 31 18
v 20 32 18
v -17 0 17
v -17 30 17
v -14 0 17
v -14 30 17
v 14 0 17
v 14 30 17
v 17 0 17
v 17 30 17
v -20 32 16
v -20 33 16
v -19 32 16
v -19 33 16
v -19 34 16
v -14 7 16
v -14 8 16
v 14 7 16
v 14 8 16
v 19 32 16
v 19 33 16
v 19 34 16
v 20 32 16
v 20 33 16
v -20 33 14
v -20 34 14
v -19 33 14
v -19 34 14
v -19 35 14
v 19 33 14
v 19 34 14
v 19 35 14
v 20 33 14
v 20 34 14
v -20 34 12
v -20 35 12
v -19 34 12
v -19 35 12
v -19 36 12
v 19 34 12
v 19 35 12
v 19 36 12
v 20 34 12
v 20 35 12
v -20 35 10
v -20 36 10
v -19 35 10
v -19 36 10
v -19 37 10
v 19 35 10
v 19 36 10
v 19 37 10
v 20 35 10
v 20 36 10
v -20 36 8
v -20 37 8
v -19 36 8
v -19 37 8
v -19 38 8
v 19 36 8
v 19 37 8
v 19 38 8
v 20 36 8
v 20 37 8
v -20 37 6
v -20 38 6
v -19 37 6
v -19 38 6
v -19 39 6
v 16 0 6
v 16 7 6
v 16 8 6
v 16 9 6
v 18 6 6
v 18 9 6
v 19 3 6
v 19 6 6
v 19 37 6
v 19 38 6
v 19 39 6
v 20 0 6
v 20 3 6
v 20 37 6
v 20 38 6
v -20 38 4
v -20 40 4
v -19 38 4
v -19 39 4
v 19 38 4
v 19 39 4
v 20 38 4
v 20 40 4
v 16 0 -1
v 16 7 -1
v 16 8 -1
v 16 9 -1
v 18 4 -1
v 18 6 -1
v 18 7 -1
v 18 8 -1
v 18 9 -1
v 19 1 -1
v 19 3 -1
v 19 4 -1
v 20 0 -1
v 20 1 -1
v -17 0 -14
v -17 30 -14
v -16 7 -14
v -16 8 -14
v -14 0 -14
v -14 7 -14
v -14 8 -14
v -14 30 -14
v 14 0 -14
v 14 7 -14
v 14 8 -14
v 14 30 -14
v 16 7 -14
v 16 8 -14
v 17 0 -14
v 17 30 -14
v -17 0 14
v -17 30 14
v -16 7 14
v -16 8 14
v -14 0 14
v -14 7 14
v -14 8 14
v -14 30 14
v 14 0 14
v 14 7 14
v 14 8 14
v 14 30 14
v 16 7 14
v 16 8 14
v 17 0 14
v 17 30 14
v 16 0 5
v 16 7 5
v 16 8 5
v 16 9 5
v 18 4 5
v 18 6 5
v 18 7 5
v 18 8 5
v 18 9 5
v 19 1 5
v 19 3 5
v 19 4 5
v 20 0 5
v 20 1 5
v 16 0 -2
v 16 7 -2
v 16 8 -2
v 16 9 -2
v 18 6 -2
v 18 9 -2
v 19 3 -2
v 19 6 -2
v 20 0 -2
v 20 3 -2
v -20 38 -3
v -20 40 -3
v -19 38 -3
v -19 39 -3
v 19 38 -3
v 19 39 -3
v 20 38 -3
v 20 40 -3
v -20 37 -5
v -20 38 -5
v -19 37 -5
v -19 38 -5
v -19 39 -5
v 19 37 -5
v 19 38 -5
v 19 39 -5
v 20 37 -5
v 20 38 -5
v -20 36 -7
v -20 37 -7
v -19 36 -7
v -19 37 -7
v -19 38 -7
v 19 36 -7
v 19 37 -7
v 19 38 -7
v 20 36 -7
v 20 37 -7
v -20 35 -9
v -20 36 -9
v -19 35 -9
v -19 36 -9
v -19 37 -9
v 19 35 -9
v 19 36 -9
v 19 37 -9
v 20 35 -9
v 20 36 -9
v -20 34 -11
v -20 35 -11
v -19 34 -11
v -19 35 -11
v -19 36 -11
v 19 34 -11
v 19 35 -11
v 19 36 -11
v 20 34 -11
v 20 35 -11
v -20 33 -13
v -20 34 -13
v -19 33 -13
v -19 34 -13
v -19 35 -13
v 19 33 -13
v 19 34 -13
v 19 35 -13
v 20 33 -13
v 20 34 -13
v -20 32 -15
v -20 33 -15
v -19 32 -15
v -19 33 -15
v -19 34 -15
v 19 32 -15
v 19 33 -15
v 19 34 -15
v 20 32 -15
v 20 33 -15
v -14 7 -16
v -14 8 -16
v 14 7 -16
v 14 8 -16
v -20 31 -17
v -20 32 -17
v -19 31 -17
v -19 32 -17
v -19 33 -17
v -17 0 -17
v -17 30 -17
v -14 0 -17
v -14 30 -17
v 14 0 -17
v 14 30 -17
v 17 0 -17
v 17 30 -17
v 19 31 -17
v 19 32 -17
v 19 33 -17
v 20 31 -17
v 20 32 -17
v -20 30 -19
v -20 31 -19
v -19 31 -19
v -19 32 -19
v 19 31 -19
v 19 32 -19
v 20 30 -19
v 20 31 -19
v -17 0 17
v -14 0 17
v 14 0 17
v 17 0 17
v -17 0 14
v -14 0 14
v 14 0 14
v 17 0 14
v 16 0 6
v 20 0 6
v 16 0 5
v 20 0 5
v 16 0 -1
v 20 0 -1
v 16 0 -2
v 20 0 -2
v -17 0 -14
v -14 0 -14
v 14 0 -14
v 17 0 -14
v -17 0 -17
v -14 0 -17
v 14 0 -17
v 17 0 -17
v 19 1 5
v 20 1 5
v 19 1 -1
v 20 1 -1
v 18 4 5
v 19 4 5
v 18 4 -1
v 19 4 -1
v -14 7 16
v 14 7 16
v -16 7 14
v -14 7 14
v 14 7 14
v 16 7 14
v 16 7 6
v 16 7 5
v 18 7 5
v 16 7 -1
v 18 7 -1
v 16 7 -2
v -16 7 -14
v -14 7 -14
v 14 7 -14
v 16 7 -14
v -14 7 -16
v 14 7 -16
v -20 30 20
v 20 30 20
v -17 30 17
v -14 30 17
v 14 30 17
v 17 30 17
v -17 30 14
v -14 30 14
v 14 30 14
v 17 30 14
v -17 30 -14
v -14 30 -14
v 14 30 -14
v 17 30 -14
v -17 30 -17
v -14 30 -17
v 14 30 -17
v 17 30 -17
v -20 30 -19
v 20 30 -19
v 19 3 6
v 20 3 6
v 19 3 5
v 19 3 -1
v 19 3 -2
v 20 3 -2
v 18 6 6
v 19 6 6
v 18 6 5
v 18 6 -1
v 18 6 -2
v 19 6 -2
v -14 8 16
v 14 8 16
v -16 8 14
v -14 8 14
v 14 8 14
v 16 8 14
v 16 8 6
v 16 8 5
v 18 8 5
v 16 8 -1
v 18 8 -1
v 16 8 -2
v -16 8 -14
v -14 8 -14
v 14 8 -14
v 16 8 -14
v -14 8 -16
v 14 8 -16
v 16 9 6
v 18 9 6
v 16 9 5
v 18 9 5
v 16 9 -1
v 18 9 -1
v 16 9 -2
v 18 9 -2
v -20 31 20
v -19 31 20
v 19 31 20
v 20 31 20
v -20 31 18
v -19 31 18
v 19 31 18
v 20 31 18
v -20 31 -17
v -19 31 -17
v 19 31 -17
v 20 31 -17
v -20 31 -19
v -19 31 -19
v 19 31 -19
v 20 31 -19
v -19 32 20
v 19 32 20
v -20 32 18
v -19 32 18
v 19 32 18
v 20 32 18
v -20 32 16
v -19 32 16
v 19 32 16
v 20 32 16
v -20 32 -15
v -19 32 -15
v 19 32 -15
v 20 32 -15
v -20 32 -17
v -19 32 -17
v 19 32 -17
v 20 32 -17
v -19 32 -19
v 19 32 -19
v -19 33 18
v 19 33 18
v -20 33 16
v -19 33 16
v 19 33 16
v 20 33 16
v -20 33 14
v -19 33 14
v 19 33 14
v 20 33 14
v -20 33 -13
v -19 33 -13
v 19 33 -13
v 20 33 -13
v -20 33 -15
v -19 33 -15
v 19 33 -15
v 20 33 -15
v -19 33 -17
v 19 33 -17
v -19 34 16
v 19 34 16
v -20 34 14
v -19 34 14
v 19 34 14
v 20 34 14
v -20 34 12
v -19 34 12
v 19 34 12
v 20 34 12
v -20 34 -11
v -19 34 -11
v 19 34 -11
v 20 34 -11
v -20 34 -13
v -19 34 -13
v 19 34 -13
v 20 34 -13
v -19 34 -15
v 19 34 -15
v -19 35 14
v 19 35 14
v -20 35 12
v -19 35 12
v 19 35 12
v 20 35 12
v -20 35 10
v -19 35 10
v 19 35 10
v 20 35 10
v -20 35 -9
v -19 35 -9
v 19 35 -9
v 20 35 -9
v -20 35 -11
v -19 35 -11
v 19 35 -11
v 20 35 -11
v -19 35 -13
v 19 35 -13
v -19 36 12
v 19 36 12
v -20 36 10
v -19 36 10
v 19 36 10
v 20 36 10
v -20 36 8
v -19 36 8
v 19 36 8
v 20 36 8
v -20 36 -7
v -19 36 -7
v 19 36 -7
v 20 36 -7
v -20 36 -9
v -19 36 -9
v 19 36 -9
v 20 36 -9
v -19 36 -11
v 19 36 -11
v -19 37 10
v 19 37 10
v -20 37 8
v -19 37 8
v 19 37 8
v 20 37 8
v -20 37 6
v -19 37 6
v 19 37 6
v 20 37 6
v -20 37 -5
v -19 37 -5
v 19 37 -5
v 20 37 -5
v -20 37 -7
v -19 37 -7
v 19 37 -7
v 20 37 -7
v -19 37 -9
v 19 37 -9
v -19 38 8
v 19 38 8
v -20 38 6
v -19 38 6
v 19 38 6
v 20 38 6
v -20 38 4
v -19 38 4
v 19 38 4
v 20 38 4
v -20 38 -3
v -19 38 -3
v 19 38 -3
v 20 38 -3
v -20 38 -5
v -19 38 -5
v 19 38 -5
v 20 38 -5
v -19 38 -7
v 19 38 -7
v -19 39 6
v 19 39 6
v -19 39 4
v 19 39 4
v -19 39 -3
v 19 39 -3
v -19 39 -5
v 19 39 -5
v -20 40 4
v 20 40 4
v -20 40 -3
v 20 40 -3

# faces
f 3/1/1 2/1/1 1/1/1
f 4/1/1 2/1/1 3/1/1
f 5/1/1 2/1/1 4/1/1
f 6/1/1 2/1/1 5/1/1
f 7/1/1 5/1/1 4/1/1
f 8/1/1 5/1/1 7/1/1
f 9/1/1 5/1/1 8/1/1
f 10/1/1 5/1/1 9/1/1
f 11/1/1 9/1/1 8/1/1
f 12/1/1 9/1/1 11/1/1
f 13/1/1 9/1/1 12/1/1
f 14/1/1 9/1/1 13/1/1
f 15/1/1 13/1/1 12/1/1
f 16/1/1 13/1/1 15/1/1
f 17/1/1 13/1/1 16/1/1
f 18/1/1 13/1/1 17/1/1
f 19/1/1 17/1/1 16/1/1
f 20/1/1 17/1/1 19/1/1
f 21/1/1 17/1/1 20/1/1
f 22/1/1 17/1/1 21/1/1
f 23/1/1 21/1/1 20/1/1
f 24/1/1 21/1/1 23/1/1
f 25/1/1 21/1/1 24/1/1
f 26/1/1 21/1/1 25/1/1
f 27/1/1 25/1/1 24/1/1
f 28/1/1 25/1/1 27/1/1
f 29/1/1 25/1/1 28/1/1
f 30/1/1 25/1/1 29/1/1
f 31/1/1 29/1/1 28/1/1
f 32/1/1 29/1/1 31/1/1
f 33/1/1 29/1/1 32/1/1
f 34/1/1 29/1/1 33/1/1
f 35/1/1 33/1/1 32/1/1
f 36/1/1 33/1/1 35/1/1
f 41/1/1 38/1/1 37/1/1
f 42/1/1 38/1/1 41/1/1
f 45/1/1 40/1/1 39/1/1
f 46/1/1 40/1/1 45/1/1
f 47/1/1 43/1/1 42/1/1
f 48/1/1 43/1/1 47/1/1
f 51/1/1 45/1/1 44/1/1
f 52/1/1 45/1/1 51/1/1
f 53/1/1 49/1/1 48/1/1
f 54/1/1 49/1/1 53/1/1
f 57/1/1 51/1/1 50/1/1
f 58/1/1 51/1/1 57/1/1
f 59/1/1 55/1/1 54/1/1
f 60/1/1 55/1/1 59/1/1
f 63/1/1 57/1/1 56/1/1
f 64/1/1 57/1/1 63/1/1
f 65/1/1 61/1/1 60/1/1
f 66/1/1 61/1/1 65/1/1
f 69/1/1 63/1/1 62/1/1
f 70/1/1 63/1/1 69/1/1
f 71/1/1 67/1/1 66/1/1
f 72/1/1 67/1/1 71/1/1
f 75/1/1 69/1/1 68/1/1
f 76/1/1 69/1/1 75/1/1
f 77/1/1 73/1/1 72/1/1
f 78/1/1 73/1/1 77/1/1
f 81/1/1 75/1/1 74/1/1
f 82/1/1 75/1/1 81/1/1
f 83/1/1 79/1/1 78/1/1
f 84/1/1 79/1/1 83/1/1
f 85/1/1 81/1/1 80/1/1
f 86/1/1 81/1/1 85/1/1
f 91/2/1 88/2/1 87/2/1
f 92/2/1 88/2/1 91/2/1
f 93/2/1 90/2/1 89/2/1
f 94/2/1 90/2/1 93/2/1
f 97/2/1 96/2/1 95/2/1
f 98/2/1 96/2/1 97/2/1
f 103/2/1 100/2/1 99/2/1
f 104/2/1 100/2/1 103/2/1
f 105/2/1 102/2/1 101/2/1
f 106/2/1 102/2/1 105/2/1
f 107/2/1 103/2/1 99/2/1
f 110/2/1 102/2/1 106/2/1
f 111/2/1 108/2/1 107/2/1
f 111/2/1 107/2/1 99/2/1
f 112/2/1 108/2/1 111/2/1
f 113/2/1 110/2/1 109/2/1
f 114/2/1 102/2/1 110/2/1
f 114/2/1 110/2/1 113/2/1
f 119/2/1 116/2/1 115/2/1
f 120/2/1 116/2/1 119/2/1
f 121/2/1 118/2/1 117/2/1
f 122/2/1 118/2/1 121/2/1
f 127/2/1 124/2/1 123/2/1
f 128/2/1 124/2/1 127/2/1
f 129/2/1 126/2/1 125/2/1
f 130/2/1 126/2/1 129/2/1
f 133/2/1 132/2/1 131/2/1
f 134/2/1 132/2/1 133/2/1
f 137/2/1 136/2/1 135/2/1
f 138/2/1 136/2/1 137/2/1
f 139/2/2 140/2/2 143/2/2
f 143/2/2 140/2/2 144/2/2
f 141/2/2 142/2/2 145/2/2
f 145/2/2 142/2/2 146/2/2
f 139/2/2 143/2/2 147/2/2
f 146/2/2 142/2/2 150/2/2
f 147/2/2 148/2/2 151/2/2
f 139/2/2 147/2/2 151/2/2
f 151/2/2 148/2/2 152/2/2
f 149/2/2 150/2/2 153/2/2
f 150/2/2 142/2/2 154/2/2
f 153/2/2 150/2/2 154/2/2
f 155/2/2 156/2/2 159/2/2
f 159/2/2 156/2/2 160/2/2
f 157/2/2 158/2/2 161/2/2
f 161/2/2 158/2/2 162/2/2
f 163/2/2 164/2/2 167/2/2
f 167/2/2 164/2/2 168/2/2
f 165/2/2 166/2/2 169/2/2
f 169/2/2 166/2/2 170/2/2
f 171/2/2 172/2/2 175/2/2
f 173/2/2 174/2/2 176/2/2
f 171/2/2 175/2/2 177/2/2
f 175/2/2 176/2/2 177/2/2
f 176/2/2 174/2/2 178/2/2
f 177/2/2 176/2/2 178/2/2
f 171/2/2 177/2/2 179/2/2
f 179/2/2 177/2/2 180/2/2
f 178/2/2 174/2/2 181/2/2
f 181/2/2 174/2/2 182/2/2
f 183/2/2 184/2/2 187/2/2
f 185/2/2 186/2/2 188/2/2
f 183/2/2 187/2/2 189/2/2
f 187/2/2 188/2/2 189/2/2
f 188/2/2 186/2/2 190/2/2
f 189/2/2 188/2/2 190/2/2
f 191/1/2 192/1/2 195/1/2
f 195/1/2 192/1/2 196/1/2
f 193/1/2 194/1/2 199/1/2
f 199/1/2 194/1/2 200/1/2
f 196/1/2 197/1/2 201/1/2
f 201/1/2 197/1/2 202/1/2
f 198/1/2 199/1/2 205/1/2
f 205/1/2 199/1/2 206/1/2
f 202/1/2 203/1/2 207/1/2
f 207/1/2 203/1/2 208/1/2
f 204/1/2 205/1/2 211/1/2
f 211/1/2 205/1/2 212/1/2
f 208/1/2 209/1/2 213/1/2
f 213/1/2 209/1/2 214/1/2
f 210/1/2 211/1/2 217/1/2
f 217/1/2 211/1/2 218/1/2
f 214/1/2 215/1/2 219/1/2
f 219/1/2 215/1/2 220/1/2
f 216/1/2 217/1/2 223/1/2
f 223/1/2 217/1/2 224/1/2
f 220/1/2 221/1/2 225/1/2
f 225/1/2 221/1/2 226/1/2
f 222/1/2 223/1/2 229/1/2
f 229/1/2 223/1/2 230/1/2
f 226/1/2 227/1/2 231/1/2
f 231/1/2 227/1/2 232/1/2
f 228/1/2 229/1/2 235/1/2
f 235/1/2 229/1/2 236/1/2
f 232/1/2 233/1/2 237/1/2
f 237/1/2 233/1/2 238/1/2
f 234/1/2 235/1/2 239/1/2
f 239/1/2 235/1/2 240/1/2
f 241/2/2 242/2/2 245/2/2
f 243/2/2 244/2/2 246/2/2
f 241/2/2 245/2/2 247/2/2
f 245/2/2 246/2/2 247/2/2
f 246/2/2 244/2/2 248/2/2
f 247/2/2 246/2/2 248/2/2
f 249/1/2 250/1/2 251/1/2
f 251/1/2 250/1/2 252/1/2
f 252/1/2 250/1/2 253/1/2
f 253/1/2 250/1/2 254/1/2
f 252/1/2 253/1/2 255/1/2
f 255/1/2 253/1/2 256/1/2
f 256/1/2 253/1/2 257/1/2
f 257/1/2 253/1/2 258/1/2
f 256/1/2 257/1/2 259/1/2
f 259/1/2 257/1/2 260/1/2
f 260/1/2 257/1/2 261/1/2
f 261/1/2 257/1/2 262/1/2
f 260/1/2 261/1/2 263/1/2
f 263/1/2 261/1/2 264/1/2
f 264/1/2 261/1/2 265/1/2
f 265/1/2 261/1/2 266/1/2
f 264/1/2 265/1/2 267/1/2
f 267/1/2 265/1/2 268/1/2
f 268/1/2 265/1/2 269/1/2
f 269/1/2 265/1/2 270/1/2
f 268/1/2 269/1/2 271/1/2
f 271/1/2 269/1/2 272/1/2
f 272/1/2 269/1/2 273/1/2
f 273/1/2 269/1/2 274/1/2
f 272/1/2 273/1/2 275/1/2
f 275/1/2 273/1/2 276/1/2
f 276/1/2 273/1/2 277/1/2
f 277/1/2 273/1/2 278/1/2
f 276/1/2 277/1/2 279/1/2
f 279/1/2 277/1/2 280/1/2
f 280/1/2 277/1/2 281/1/2
f 281/1/2 277/1/2 282/1/2
f 280/1/2 281/1/2 283/1/2
f 283/1/2 281/1/2 284/1/2
f 287/1/3 286/1/3 285/1/3
f 289/1/3 287/1/3 285/1/3
f 289/1/3 288/1/3 287/1/3
f 290/1/3 288/1/3 289/1/3
f 291/1/3 289/1/3 285/1/3
f 292/1/3 289/1/3 291/1/3
f 295/1/3 294/1/3 293/1/3
f 296/1/3 294/1/3 295/1/3
f 299/1/3 297/1/3 296/1/3
f 300/1/3 297/1/3 299/1/3
f 301/1/3 299/1/3 298/1/3
f 302/1/3 299/1/3 301/1/3
f 305/2/3 304/2/3 303/2/3
f 306/2/3 304/2/3 305/2/3
f 309/2/3 308/2/3 307/2/3
f 310/2/3 308/2/3 309/2/3
f 313/1/3 312/1/3 311/1/3
f 314/1/3 312/1/3 313/1/3
f 318/2/3 317/2/3 316/2/3
f 319/2/3 317/2/3 318/2/3
f 321/1/3 315/1/3 314/1/3
f 322/1/3 315/1/3 321/1/3
f 323/1/3 321/1/3 320/1/3
f 324/1/3 321/1/3 323/1/3
f 327/1/3 326/1/3 325/1/3
f 328/1/3 326/1/3 327/1/3
f 331/1/3 329/1/3 328/1/3
f 332/1/3 329/1/3 331/1/3
f 333/1/3 331/1/3 330/1/3
f 334/1/3 331/1/3 333/1/3
f 337/1/3 336/1/3 335/1/3
f 338/1/3 336/1/3 337/1/3
f 341/1/3 339/1/3 338/1/3
f 342/1/3 339/1/3 341/1/3
f 343/1/3 341/1/3 340/1/3
f 344/1/3 341/1/3 343/1/3
f 347/1/3 346/1/3 345/1/3
f 348/1/3 346/1/3 347/1/3
f 351/1/3 349/1/3 348/1/3
f 352/1/3 349/1/3 351/1/3
f 353/1/3 351/1/3 350/1/3
f 354/1/3 351/1/3 353/1/3
f 357/1/3 356/1/3 355/1/3
f 358/1/3 356/1/3 357/1/3
f 361/1/3 359/1/3 358/1/3
f 362/1/3 359/1/3 361/1/3
f 363/1/3 361/1/3 360/1/3
f 364/1/3 361/1/3 363/1/3
f 367/1/3 366/1/3 365/1/3
f 368/1/3 366/1/3 367/1/3
f 374/2/3 371/2/3 370/2/3
f 374/2/3 373/2/3 372/2/3
f 374/2/3 372/2/3 371/2/3
f 375/2/3 373/2/3 374/2/3
f 376/2/3 374/2/3 370/2/3
f 377/2/3 374/2/3 376/2/3
f 379/1/3 369/1/3 368/1/3
f 380/1/3 369/1/3 379/1/3
f 381/2/3 376/2/3 370/2/3
f 382/2/3 376/2/3 381/2/3
f 383/1/3 379/1/3 378/1/3
f 384/1/3 379/1/3 383/1/3
f 387/1/3 386/1/3 385/1/3
f 388/1/3 386/1/3 387/1/3
f 390/1/3 386/1/3 388/1/3
f 391/1/3 390/1/3 389/1/3
f 392/1/3 386/1/3 390/1/3
f 392/1/3 390/1/3 391/1/3
f 397/2/3 394/2/3 393/2/3
f 398/2/3 394/2/3 397/2/3
f 399/2/3 394/2/3 398/2/3
f 400/2/3 396/2/3 395/2/3
f 401/2/3 396/2/3 400/2/3
f 402/2/3 397/2/3 393/2/3
f 403/2/3 397/2/3 402/2/3
f 404/2/3 397/2/3 403/2/3
f 405/2/3 402/2/3 393/2/3
f 406/2/3 402/2/3 405/2/3
f 409/2/3 408/2/3 407/2/3
f 410/2/3 408/2/3 409/2/3
f 411/2/3 409/2/3 407/2/3
f 412/2/3 409/2/3 411/2/3
f 413/2/3 408/2/3 410/2/3
f 414/2/3 408/2/3 413/2/3
f 419/2/3 416/2/3 415/2/3
f 420/2/3 418/2/3 417/2/3
f 421/2/3 419/2/3 415/2/3
f 421/2/3 420/2/3 419/2/3
f 422/2/3 418/2/3 420/2/3
f 422/2/3 420/2/3 421/2/3
f 423/2/4 424/2/4 425/2/4
f 425/2/4 424/2/4 426/2/4
f 423/2/4 425/2/4 427/2/4
f 427/2/4 425/2/4 428/2/4
f 426/2/4 424/2/4 429/2/4
f 429/2/4 424/2/4 430/2/4
f 431/2/4 432/2/4 435/2/4
f 433/2/4 434/2/4 436/2/4
f 431/2/4 435/2/4 437/2/4
f 435/2/4 436/2/4 437/2/4
f 436/2/4 434/2/4 438/2/4
f 437/2/4 436/2/4 438/2/4
f 439/2/4 440/2/4 443/2/4
f 443/2/4 440/2/4 444/2/4
f 444/2/4 440/2/4 445/2/4
f 441/2/4 442/2/4 446/2/4
f 446/2/4 442/2/4 447/2/4
f 439/2/4 443/2/4 448/2/4
f 448/2/4 443/2/4 449/2/4
f 449/2/4 443/2/4 450/2/4
f 439/2/4 448/2/4 451/2/4
f 451/2/4 448/2/4 452/2/4
f 453/2/4 454/2/4 457/2/4
f 455/2/4 456/2/4 457/2/4
f 454/2/4 455/2/4 457/2/4
f 457/2/4 456/2/4 458/2/4
f 453/2/4 457/2/4 459/2/4
f 459/2/4 457/2/4 460/2/4
f 453/2/4 459/2/4 461/2/4
f 461/2/4 459/2/4 462/2/4
f 463/1/4 464/1/4 465/1/4
f 465/1/4 464/1/4 466/1/4
f 466/1/4 464/1/4 468/1/4
f 467/1/4 468/1/4 469/1/4
f 468/1/4 464/1/4 470/1/4
f 469/1/4 468/1/4 470/1/4
f 471/1/4 472/1/4 473/1/4
f 473/1/4 472/1/4 474/1/4
f 474/1/4 475/1/4 477/1/4
f 477/1/4 475/1/4 478/1/4
f 476/1/4 477/1/4 479/1/4
f 479/1/4 477/1/4 480/1/4
f 481/1/4 482/1/4 483/1/4
f 483/1/4 482/1/4 484/1/4
f 484/1/4 485/1/4 487/1/4
f 487/1/4 485/1/4 488/1/4
f 486/1/4 487/1/4 489/1/4
f 489/1/4 487/1/4 490/1/4
f 491/1/4 492/1/4 493/1/4
f 493/1/4 492/1/4 494/1/4
f 494/1/4 495/1/4 497/1/4
f 497/1/4 495/1/4 498/1/4
f 496/1/4 497/1/4 499/1/4
f 499/1/4 497/1/4 500/1/4
f 501/1/4 502/1/4 503/1/4
f 503/1/4 502/1/4 504/1/4
f 504/1/4 505/1/4 507/1/4
f 507/1/4 505/1/4 508/1/4
f 506/1/4 507/1/4 509/1/4
f 509/1/4 507/1/4 510/1/4
f 511/1/4 512/1/4 513/1/4
f 513/1/4 512/1/4 514/1/4
f 514/1/4 515/1/4 517/1/4
f 517/1/4 515/1/4 518/1/4
f 516/1/4 517/1/4 519/1/4
f 519/1/4 517/1/4 520/1/4
f 521/1/4 522/1/4 523/1/4
f 523/1/4 522/1/4 524/1/4
f 524/1/4 525/1/4 527/1/4
f 527/1/4 525/1/4 528/1/4
f 526/1/4 527/1/4 529/1/4
f 529/1/4 527/1/4 530/1/4
f 531/2/4 532/2/4 533/2/4
f 533/2/4 532/2/4 534/2/4
f 535/1/4 536/1/4 537/1/4
f 537/1/4 536/1/4 538/1/4
f 540/2/4 541/2/4 542/2/4
f 542/2/4 541/2/4 543/2/4
f 544/2/4 545/2/4 546/2/4
f 546/2/4 545/2/4 547/2/4
f 538/1/4 539/1/4 549/1/4
f 549/1/4 539/1/4 550/1/4
f 548/1/4 549/1/4 551/1/4
f 551/1/4 549/1/4 552/1/4
f 553/1/4 554/1/4 555/1/4
f 553/1/4 555/1/4 557/1/4
f 555/1/4 556/1/4 557/1/4
f 557/1/4 556/1/4 558/1/4
f 553/1/4 557/1/4 559/1/4
f 559/1/4 557/1/4 560/1/4
f 565/2/5 562/2/5 561/2/5
f 566/2/5 562/2/5 565/2/5
f 567/2/5 564/2/5 563/2/5
f 568/2/5 564/2/5 567/2/5
f 571/2/5 570/2/5 569/2/5
f 572/2/5 570/2/5 571/2/5
f 575/2/5 574/2/5 573/2/5
f 576/2/5 574/2/5 575/2/5
f 581/2/5 578/2/5 577/2/5
f 582/2/5 578/2/5 581/2/5
f 583/2/5 580/2/5 579/2/5
f 584/2/5 580/2/5 583/2/5
f 587/2/5 586/2/5 585/2/5
f 588/2/5 586/2/5 587/2/5
f 591/2/5 590/2/5 589/2/5
f 592/2/5 590/2/5 591/2/5
f 596/2/5 594/2/5 593/2/5
f 597/2/5 594/2/5 596/2/5
f 599/2/5 596/2/5 595/2/5
f 599/2/5 598/2/5 597/2/5
f 599/2/5 597/2/5 596/2/5
f 600/2/5 599/2/5 595/2/5
f 602/2/5 600/2/5 595/2/5
f 602/2/5 601/2/5 600/2/5
f 603/2/5 601/2/5 602/2/5
f 604/2/5 602/2/5 595/2/5
f 605/2/5 604/2/5 595/2/5
f 606/2/5 604/2/5 605/2/5
f 607/2/5 604/2/5 606/2/5
f 608/2/5 604/2/5 607/2/5
f 609/2/5 607/2/5 606/2/5
f 610/2/5 607/2/5 609/2/5
f 613/1/5 612/1/5 611/1/5
f 614/1/5 612/1/5 613/1/5
f 615/1/5 612/1/5 614/1/5
f 616/1/5 612/1/5 615/1/5
f 617/1/5 613/1/5 611/1/5
f 618/1/5 615/1/5 614/1/5
f 619/1/5 615/1/5 618/1/5
f 620/1/5 612/1/5 616/1/5
f 621/1/5 619/1/5 618/1/5
f 621/1/5 620/1/5 619/1/5
f 621/1/5 617/1/5 611/1/5
f 621/1/5 618/1/5 617/1/5
f 622/1/5 620/1/5 621/1/5
f 623/1/5 620/1/5 622/1/5
f 624/1/5 612/1/5 620/1/5
f 624/1/5 620/1/5 623/1/5
f 625/1/5 621/1/5 611/1/5
f 626/1/5 623/1/5 622/1/5
f 627/1/5 623/1/5 626/1/5
f 628/1/5 612/1/5 624/1/5
f 629/1/5 625/1/5 611/1/5
f 629/1/5 628/1/5 627/1/5
f 629/1/5 627/1/5 626/1/5
f 629/1/5 626/1/5 625/1/5
f 630/1/5 612/1/5 628/1/5
f 630/1/5 628/1/5 629/1/5
f 631/2/6 632/2/6 633/2/6
f 633/2/6 632/2/6 634/2/6
f 634/2/6 632/2/6 635/2/6
f 635/2/6 632/2/6 636/2/6
f 637/2/6 638/2/6 639/2/6
f 639/2/6 638/2/6 640/2/6
f 640/2/6 638/2/6 641/2/6
f 641/2/6 638/2/6 642/2/6
f 643/2/6 644/2/6 646/2/6
f 646/2/6 644/2/6 647/2/6
f 645/2/6 646/2/6 649/2/6
f 647/2/6 648/2/6 649/2/6
f 646/2/6 647/2/6 649/2/6
f 645/2/6 649/2/6 650/2/6
f 645/2/6 650/2/6 652/2/6
f 650/2/6 651/2/6 652/2/6
f 652/2/6 651/2/6 653/2/6
f 645/2/6 652/2/6 654/2/6
f 645/2/6 654/2/6 655/2/6
f 655/2/6 654/2/6 656/2/6
f 656/2/6 654/2/6 657/2/6
f 657/2/6 654/2/6 658/2/6
f 656/2/6 657/2/6 659/2/6
f 659/2/6 657/2/6 660/2/6
f 661/2/6 662/2/6 663/2/6
f 663/2/6 662/2/6 664/2/6
f 665/2/6 666/2/6 667/2/6
f 667/2/6 666/2/6 668/2/6
f 669/1/6 670/1/6 673/1/6
f 673/1/6 670/1/6 674/1/6
f 671/1/6 672/1/6 675/1/6
f 675/1/6 672/1/6 676/1/6
f 677/1/6 678/1/6 681/1/6
f 681/1/6 678/1/6 682/1/6
f 679/1/6 680/1/6 683/1/6
f 683/1/6 680/1/6 684/1/6
f 685/1/6 686/1/6 688/1/6
f 688/1/6 686/1/6 689/1/6
f 687/1/6 688/1/6 691/1/6
f 691/1/6 688/1/6 692/1/6
f 689/1/6 690/1/6 693/1/6
f 693/1/6 690/1/6 694/1/6
f 695/1/6 696/1/6 699/1/6
f 699/1/6 696/1/6 700/1/6
f 697/1/6 698/1/6 701/1/6
f 701/1/6 698/1/6 702/1/6
f 700/1/6 701/1/6 703/1/6
f 703/1/6 701/1/6 704/1/6
f 705/1/6 706/1/6 708/1/6
f 708/1/6 706/1/6 709/1/6
f 707/1/6 708/1/6 711/1/6
f 711/1/6 708/1/6 712/1/6
f 709/1/6 710/1/6 713/1/6
f 713/1/6 710/1/6 714/1/6
f 715/1/6 716/1/6 719/1/6
f 719/1/6 716/1/6 720/1/6
f 717/1/6 718/1/6 721/1/6
f 721/1/6 718/1/6 722/1/6
f 720/1/6 721/1/6 723/1/6
f 723/1/6 721/1/6 724/1/6
f 725/1/6 726/1/6 728/1/6
f 728/1/6 726/1/6 729/1/6
f 727/1/6 728/1/6 731/1/6
f 731/1/6 728/1/6 732/1/6
f 729/1/6 730/1/6 733/1/6
f 733/1/6 730/1/6 734/1/6
f 735/1/6 736/1/6 739/1/6
f 739/1/6 736/1/6 740/1/6
f 737/1/6 738/1/6 741/1/6
f 741/1/6 738/1/6 742/1/6
f 740/1/6 741/1/6 743/1/6
f 743/1/6 741/1/6 744/1/6
f 745/1/6 746/1/6 748/1/6
f 748/1/6 746/1/6 749/1/6
f 747/1/6 748/1/6 751/1/6
f 751/1/6 748/1/6 752/1/6
f 749/1/6 750/1/6 753/1/6
f 753/1/6 750/1/6 754/1/6
f 755/1/6 756/1/6 759/1/6
f 759/1/6 756/1/6 760/1/6
f 757/1/6 758/1/6 761/1/6
f 761/1/6 758/1/6 762/1/6
f 760/1/6 761/1/6 763/1/6
f 763/1/6 761/1/6 764/1/6
f 765/1/6 766/1/6 768/1/6
f 768/1/6 766/1/6 769/1/6
f 767/1/6 768/1/6 771/1/6
f 771/1/6 768/1/6 772/1/6
f 769/1/6 770/1/6 773/1/6
f 773/1/6 770/1/6 774/1/6
f 775/1/6 776/1/6 779/1/6
f 779/1/6 776/1/6 780/1/6
f 777/1/6 778/1/6 781/1/6
f 781/1/6 778/1/6 782/1/6
f 780/1/6 781/1/6 783/1/6
f 783/1/6 781/1/6 784/1/6
f 785/1/6 786/1/6 788/1/6
f 788/1/6 786/1/6 789/1/6
f 787/1/6 788/1/6 791/1/6
f 791/1/6 788/1/6 792/1/6
f 789/1/6 790/1/6 793/1/6
f 793/1/6 790/1/6 794/1/6
f 795/1/6 796/1/6 799/1/6
f 799/1/6 796/1/6 800/1/6
f 797/1/6 798/1/6 801/1/6
f 801/1/6 798/1/6 802/1/6
f 800/1/6 801/1/6 803/1/6
f 803/1/6 801/1/6 804/1/6
f 805/1/6 806/1/6 808/1/6
f 808/1/6 806/1/6 809/1/6
f 807/1/6 808/1/6 811/1/6
f 811/1/6 808/1/6 812/1/6
f 809/1/6 810/1/6 813/1/6
f 813/1/6 810/1/6 814/1/6
f 815/1/6 816/1/6 819/1/6
f 819/1/6 816/1/6 820/1/6
f 817/1/6 818/1/6 821/1/6
f 821/1/6 818/1/6 822/1/6
f 820/1/6 821/1/6 823/1/6
f 823/1/6 821/1/6 824/1/6
f 825/1/6 826/1/6 827/1/6
f 827/1/6 826/1/6 828/1/6
f 829/1/6 830/1/6 831/1/6
f 831/1/6 830/1/6 832/1/6
f 833/1/6 834/1/6 835/1/6
f 835/1/6 834/1/6 836/1/6
