# MagicaVoxel @ Ephtracy

# group
g no44

# material
mtllib no44.mtl
usemtl palette

# normals
vn -1 0 0
vn 1 0 0
vn 0 0 1
vn 0 0 -1
vn 0 -1 0
vn 0 1 0

# texcoords
vt 0.0136719 0.5
vt 0.0175781 0.5
vt 0.0214844 0.5
vt 0.0332031 0.5
vt 0.751953 0.5
vt 0.822266 0.5
vt 0.841797 0.5
vt 0.904297 0.5
vt 0.958984 0.5
vt 0.994141 0.5

# verts
v -6 4 0.5
v -6 4 -1.5
v -6 5 0.5
v -6 5 -1.5
v -6 9 0.5
v -6 9 -1.5
v -6 15 1.5
v -6 15 -1.5
v -6 17 1.5
v -6 17 -1.5
v -5 10 2.5
v -5 10 -2.5
v -5 12 1.5
v -5 12 0.5
v -5 14 3.5
v -5 14 2.5
v -5 14 1.5
v -5 14 0.5
v -5 15 3.5
v -5 15 2.5
v -5 15 1.5
v -5 15 -1.5
v -5 15 -2.5
v -5 17 1.5
v -5 17 -1.5
v -5 18 2.5
v -5 18 -2.5
v -4 4 1.5
v -4 4 0.5
v -4 4 -1.5
v -4 4 -2.5
v -4 5 0.5
v -4 5 -1.5
v -4 9 0.5
v -4 9 -1.5
v -4 10 1.5
v -4 10 -2.5
v -4 10 -3.5
v -4 15 6.5
v -4 15 3.5
v -4 15 2.5
v -4 15 -2.5
v -4 15 -3.5
v -4 16 6.5
v -4 16 5.5
v -4 17 5.5
v -4 17 3.5
v -4 18 3.5
v -4 18 2.5
v -4 18 -2.5
v -4 18 -3.5
v -4 19 3.5
v -4 19 -3.5
v -4 20 3.5
v -4 20 -3.5
v -3 0 1.5
v -3 0 -2.5
v -3 1 1.5
v -3 1 0.5
v -3 1 -1.5
v -3 1 -2.5
v -3 4 0.5
v -3 4 -1.5
v -3 10 -3.5
v -3 10 -4.5
v -3 15 -3.5
v -3 15 -4.5
v -3 18 -3.5
v -3 18 -4.5
v -2 15 -4.5
v -2 15 -5.5
v -2 17 -4.5
v -2 17 -5.5
v 1 0 1.5
v 1 0 -2.5
v 1 1 1.5
v 1 1 0.5
v 1 1 -1.5
v 1 1 -2.5
v 1 3 0.5
v 1 3 -1.5
v -1 0 1.5
v -1 0 -2.5
v -1 1 1.5
v -1 1 0.5
v -1 1 -1.5
v -1 1 -2.5
v -1 3 0.5
v -1 3 -1.5
v 2 15 -4.5
v 2 15 -5.5
v 2 17 -4.5
v 2 17 -5.5
v 3 0 1.5
v 3 0 -2.5
v 3 1 1.5
v 3 1 0.5
v 3 1 -1.5
v 3 1 -2.5
v 3 4 0.5
v 3 4 -1.5
v 3 10 -3.5
v 3 10 -4.5
v 3 15 -3.5
v 3 15 -4.5
v 3 18 -3.5
v 3 18 -4.5
v 4 4 1.5
v 4 4 0.5
v 4 4 -1.5
v 4 4 -2.5
v 4 5 0.5
v 4 5 -1.5
v 4 7 1.5
v 4 7 0.5
v 4 8 1.5
v 4 8 0.5
v 4 9 1.5
v 4 9 0.5
v 4 9 -1.5
v 4 10 1.5
v 4 10 -2.5
v 4 10 -3.5
v 4 15 6.5
v 4 15 3.5
v 4 15 2.5
v 4 15 -2.5
v 4 15 -3.5
v 4 16 6.5
v 4 16 5.5
v 4 17 5.5
v 4 17 3.5
v 4 18 3.5
v 4 18 2.5
v 4 18 -2.5
v 4 18 -3.5
v 4 19 3.5
v 4 19 -3.5
v 4 20 3.5
v 4 20 -3.5
v 5 10 2.5
v 5 10 -2.5
v 5 12 1.5
v 5 12 0.5
v 5 14 3.5
v 5 14 2.5
v 5 14 1.5
v 5 14 0.5
v 5 15 3.5
v 5 15 2.5
v 5 15 1.5
v 5 15 -1.5
v 5 15 -2.5
v 5 17 1.5
v 5 17 -1.5
v 5 18 2.5
v 5 18 -2.5
v 6 4 0.5
v 6 4 -1.5
v 6 5 0.5
v 6 5 -1.5
v 6 9 0.5
v 6 9 -1.5
v 6 15 1.5
v 6 15 -1.5
v 6 17 1.5
v 6 17 -1.5
v -4 15 6.5
v -4 16 6.5
v 4 15 6.5
v 4 16 6.5
v -4 16 5.5
v -4 17 5.5
v 4 16 5.5
v 4 17 5.5
v -5 14 3.5
v -5 15 3.5
v -4 15 3.5
v -4 17 3.5
v -4 18 3.5
v -4 19 3.5
v -4 20 3.5
v 4 15 3.5
v 4 17 3.5
v 4 18 3.5
v 4 19 3.5
v 4 20 3.5
v 5 14 3.5
v 5 15 3.5
v -5 10 2.5
v -5 14 2.5
v -5 15 2.5
v -5 18 2.5
v -4 10 2.5
v -4 14 2.5
v -4 15 2.5
v -4 18 2.5
v -3 13 2.5
v -3 14 2.5
v -2 13 2.5
v -2 14 2.5
v -1 11 2.5
v -1 12 2.5
v 1 11 2.5
v 1 12 2.5
v 2 13 2.5
v 2 14 2.5
v 3 13 2.5
v 3 14 2.5
v 4 10 2.5
v 4 14 2.5
v 4 15 2.5
v 4 18 2.5
v 5 10 2.5
v 5 14 2.5
v 5 15 2.5
v 5 18 2.5
v -6 15 1.5
v -6 17 1.5
v -5 15 1.5
v -5 17 1.5
v -4 4 1.5
v -4 10 1.5
v -3 0 1.5
v -3 1 1.5
v -3 7 1.5
v -3 8 1.5
v -3 9 1.5
v -2 7 1.5
v -2 8 1.5
v -2 9 1.5
v -1 0 1.5
v -1 1 1.5
v -1 7 1.5
v -1 10 1.5
v 1 0 1.5
v 1 1 1.5
v 1 7 1.5
v 1 10 1.5
v 2 7 1.5
v 2 8 1.5
v 2 9 1.5
v 3 0 1.5
v 3 1 1.5
v 3 7 1.5
v 3 8 1.5
v 3 9 1.5
v 4 4 1.5
v 4 7 1.5
v 4 8 1.5
v 4 9 1.5
v 4 10 1.5
v 5 15 1.5
v 5 17 1.5
v 6 15 1.5
v 6 17 1.5
v -6 4 0.5
v -6 5 0.5
v -6 9 0.5
v -4 4 0.5
v -4 5 0.5
v -4 9 0.5
v -3 1 0.5
v -3 4 0.5
v -1 1 0.5
v -1 3 0.5
v 1 1 0.5
v 1 3 0.5
v 3 1 0.5
v 3 4 0.5
v 4 4 0.5
v 4 5 0.5
v 4 7 0.5
v 4 8 0.5
v 4 9 0.5
v 6 4 0.5
v 6 5 0.5
v 6 9 0.5
v -6 4 -1.5
v -6 5 -1.5
v -6 9 -1.5
v -6 15 -1.5
v -6 17 -1.5
v -5 15 -1.5
v -5 17 -1.5
v -4 4 -1.5
v -4 5 -1.5
v -4 9 -1.5
v -3 1 -1.5
v -3 4 -1.5
v -1 1 -1.5
v -1 3 -1.5
v 1 1 -1.5
v 1 3 -1.5
v 3 1 -1.5
v 3 4 -1.5
v 4 4 -1.5
v 4 5 -1.5
v 4 9 -1.5
v 5 15 -1.5
v 5 17 -1.5
v 6 4 -1.5
v 6 5 -1.5
v 6 9 -1.5
v 6 15 -1.5
v 6 17 -1.5
v -5 10 -2.5
v -5 15 -2.5
v -5 18 -2.5
v -4 4 -2.5
v -4 10 -2.5
v -4 15 -2.5
v -4 18 -2.5
v -3 0 -2.5
v -3 1 -2.5
v -1 0 -2.5
v -1 1 -2.5
v 1 0 -2.5
v 1 1 -2.5
v 3 0 -2.5
v 3 1 -2.5
v 4 4 -2.5
v 4 10 -2.5
v 4 15 -2.5
v 4 18 -2.5
v 5 10 -2.5
v 5 15 -2.5
v 5 18 -2.5
v -4 10 -3.5
v -4 15 -3.5
v -4 18 -3.5
v -4 19 -3.5
v -4 20 -3.5
v -3 10 -3.5
v -3 15 -3.5
v -3 18 -3.5
v 3 10 -3.5
v 3 15 -3.5
v 3 18 -3.5
v 4 10 -3.5
v 4 15 -3.5
v 4 18 -3.5
v 4 19 -3.5
v 4 20 -3.5
v -3 10 -4.5
v -3 15 -4.5
v -3 18 -4.5
v -2 15 -4.5
v -2 17 -4.5
v 2 15 -4.5
v 2 17 -4.5
v 3 10 -4.5
v 3 15 -4.5
v 3 18 -4.5
v -2 15 -5.5
v -2 17 -5.5
v 2 15 -5.5
v 2 17 -5.5
v -3 0 1.5
v -1 0 1.5
v 1 0 1.5
v 3 0 1.5
v -3 0 -2.5
v -1 0 -2.5
v 1 0 -2.5
v 3 0 -2.5
v -1 3 0.5
v 1 3 0.5
v -1 3 -1.5
v 1 3 -1.5
v -4 4 1.5
v 4 4 1.5
v -6 4 0.5
v -4 4 0.5
v -3 4 0.5
v 3 4 0.5
v 4 4 0.5
v 6 4 0.5
v -6 4 -1.5
v -4 4 -1.5
v -3 4 -1.5
v 3 4 -1.5
v 4 4 -1.5
v 6 4 -1.5
v -4 4 -2.5
v 4 4 -2.5
v -5 10 2.5
v -4 10 2.5
v 4 10 2.5
v 5 10 2.5
v -4 10 1.5
v -1 10 1.5
v 1 10 1.5
v 4 10 1.5
v -5 10 -2.5
v -4 10 -2.5
v 4 10 -2.5
v 5 10 -2.5
v -4 10 -3.5
v -3 10 -3.5
v 3 10 -3.5
v 4 10 -3.5
v -3 10 -4.5
v 3 10 -4.5
v -5 14 3.5
v 5 14 3.5
v -5 14 2.5
v -4 14 2.5
v -3 14 2.5
v -2 14 2.5
v 2 14 2.5
v 3 14 2.5
v 4 14 2.5
v 5 14 2.5
v -4 15 6.5
v 4 15 6.5
v -4 15 3.5
v 4 15 3.5
v -6 15 1.5
v -5 15 1.5
v 5 15 1.5
v 6 15 1.5
v -6 15 -1.5
v -5 15 -1.5
v 5 15 -1.5
v 6 15 -1.5
v -2 15 -4.5
v 2 15 -4.5
v -2 15 -5.5
v 2 15 -5.5
v -3 1 1.5
v -1 1 1.5
v 1 1 1.5
v 3 1 1.5
v -3 1 0.5
v -1 1 0.5
v 1 1 0.5
v 3 1 0.5
v -3 1 -1.5
v -1 1 -1.5
v 1 1 -1.5
v 3 1 -1.5
v -3 1 -2.5
v -1 1 -2.5
v 1 1 -2.5
v 3 1 -2.5
v -6 9 0.5
v -4 9 0.5
v 4 9 0.5
v 6 9 0.5
v -6 9 -1.5
v -4 9 -1.5
v 4 9 -1.5
v 6 9 -1.5
v -5 15 3.5
v -4 15 3.5
v 4 15 3.5
v 5 15 3.5
v -5 15 2.5
v -4 15 2.5
v 4 15 2.5
v 5 15 2.5
v -4 16 6.5
v 4 16 6.5
v -4 16 5.5
v 4 16 5.5
v -4 17 5.5
v 4 17 5.5
v -4 17 3.5
v 4 17 3.5
v -6 17 1.5
v -5 17 1.5
v 5 17 1.5
v 6 17 1.5
v -6 17 -1.5
v -5 17 -1.5
v 5 17 -1.5
v 6 17 -1.5
v -2 17 -4.5
v 2 17 -4.5
v -2 17 -5.5
v 2 17 -5.5
v -5 18 2.5
v -4 18 2.5
v 4 18 2.5
v 5 18 2.5
v -5 18 -2.5
v -4 18 -2.5
v 4 18 -2.5
v 5 18 -2.5
v -3 18 -3.5
v 3 18 -3.5
v -3 18 -4.5
v 3 18 -4.5
v -4 20 3.5
v 4 20 3.5
v -4 20 -3.5
v 4 20 -3.5

# faces
f 3/9/1 2/9/1 1/9/1
f 4/9/1 2/9/1 3/9/1
f 5/8/1 4/8/1 3/8/1
f 6/8/1 4/8/1 5/8/1
f 9/8/1 8/8/1 7/8/1
f 10/8/1 8/8/1 9/8/1
f 13/10/1 12/10/1 11/10/1
f 14/10/1 12/10/1 13/10/1
f 16/10/1 13/10/1 11/10/1
f 17/4/1 14/4/1 13/4/1
f 17/10/1 13/10/1 16/10/1
f 18/10/1 12/10/1 14/10/1
f 18/4/1 14/4/1 17/4/1
f 19/10/1 17/10/1 16/10/1
f 19/10/1 16/10/1 15/10/1
f 19/10/1 18/10/1 17/10/1
f 20/10/1 18/10/1 19/10/1
f 21/10/1 18/10/1 20/10/1
f 22/10/1 12/10/1 18/10/1
f 22/10/1 18/10/1 21/10/1
f 23/10/1 12/10/1 22/10/1
f 24/8/1 21/8/1 20/8/1
f 25/8/1 23/8/1 22/8/1
f 26/8/1 24/8/1 20/8/1
f 26/8/1 25/8/1 24/8/1
f 27/8/1 23/8/1 25/8/1
f 27/8/1 25/8/1 26/8/1
f 32/8/1 29/8/1 28/8/1
f 33/8/1 31/8/1 30/8/1
f 34/8/1 32/8/1 28/8/1
f 35/8/1 31/8/1 33/8/1
f 36/8/1 34/8/1 28/8/1
f 36/8/1 35/8/1 34/8/1
f 37/8/1 31/8/1 35/8/1
f 37/8/1 35/8/1 36/8/1
f 42/10/1 38/10/1 37/10/1
f 43/10/1 38/10/1 42/10/1
f 44/8/1 41/8/1 40/8/1
f 44/8/1 40/8/1 39/8/1
f 45/8/1 41/8/1 44/8/1
f 46/8/1 41/8/1 45/8/1
f 47/8/1 41/8/1 46/8/1
f 48/8/1 41/8/1 47/8/1
f 49/8/1 41/8/1 48/8/1
f 50/8/1 43/8/1 42/8/1
f 51/8/1 43/8/1 50/8/1
f 52/7/1 49/7/1 48/7/1
f 52/7/1 50/7/1 49/7/1
f 52/7/1 51/7/1 50/7/1
f 53/7/1 51/7/1 52/7/1
f 54/8/1 53/8/1 52/8/1
f 55/8/1 53/8/1 54/8/1
f 58/10/1 57/10/1 56/10/1
f 59/10/1 57/10/1 58/10/1
f 60/10/1 57/10/1 59/10/1
f 61/10/1 57/10/1 60/10/1
f 62/8/1 60/8/1 59/8/1
f 63/8/1 60/8/1 62/8/1
f 66/10/1 65/10/1 64/10/1
f 67/10/1 65/10/1 66/10/1
f 68/8/1 67/8/1 66/8/1
f 69/8/1 67/8/1 68/8/1
f 72/8/1 71/8/1 70/8/1
f 73/8/1 71/8/1 72/8/1
f 76/10/1 75/10/1 74/10/1
f 77/10/1 75/10/1 76/10/1
f 78/10/1 75/10/1 77/10/1
f 79/10/1 75/10/1 78/10/1
f 80/8/1 78/8/1 77/8/1
f 81/8/1 78/8/1 80/8/1
f 82/10/2 83/10/2 84/10/2
f 84/10/2 83/10/2 85/10/2
f 85/10/2 83/10/2 86/10/2
f 86/10/2 83/10/2 87/10/2
f 85/8/2 86/8/2 88/8/2
f 88/8/2 86/8/2 89/8/2
f 90/8/2 91/8/2 92/8/2
f 92/8/2 91/8/2 93/8/2
f 94/10/2 95/10/2 96/10/2
f 96/10/2 95/10/2 97/10/2
f 97/10/2 95/10/2 98/10/2
f 98/10/2 95/10/2 99/10/2
f 97/8/2 98/8/2 100/8/2
f 100/8/2 98/8/2 101/8/2
f 102/10/2 103/10/2 104/10/2
f 104/10/2 103/10/2 105/10/2
f 104/8/2 105/8/2 106/8/2
f 106/8/2 105/8/2 107/8/2
f 108/8/2 109/8/2 112/8/2
f 110/8/2 111/8/2 113/8/2
f 108/8/2 112/8/2 114/8/2
f 114/8/2 112/8/2 115/8/2
f 114/7/2 115/7/2 116/7/2
f 116/7/2 115/7/2 117/7/2
f 116/2/2 117/2/2 118/2/2
f 118/2/2 117/2/2 119/2/2
f 113/8/2 111/8/2 120/8/2
f 118/8/2 119/8/2 121/8/2
f 119/8/2 120/8/2 121/8/2
f 120/8/2 111/8/2 122/8/2
f 121/8/2 120/8/2 122/8/2
f 122/10/2 123/10/2 127/10/2
f 127/10/2 123/10/2 128/10/2
f 125/8/2 126/8/2 129/8/2
f 124/8/2 125/8/2 129/8/2
f 129/8/2 126/8/2 130/8/2
f 130/8/2 126/8/2 131/8/2
f 131/8/2 126/8/2 132/8/2
f 132/8/2 126/8/2 133/8/2
f 133/8/2 126/8/2 134/8/2
f 127/8/2 128/8/2 135/8/2
f 135/8/2 128/8/2 136/8/2
f 133/7/2 134/7/2 137/7/2
f 134/7/2 135/7/2 137/7/2
f 135/7/2 136/7/2 137/7/2
f 137/7/2 136/7/2 138/7/2
f 137/8/2 138/8/2 139/8/2
f 139/8/2 138/8/2 140/8/2
f 141/10/2 142/10/2 143/10/2
f 143/10/2 142/10/2 144/10/2
f 141/10/2 143/10/2 146/10/2
f 143/4/2 144/4/2 147/4/2
f 146/10/2 143/10/2 147/10/2
f 144/10/2 142/10/2 148/10/2
f 147/4/2 144/4/2 148/4/2
f 146/10/2 147/10/2 149/10/2
f 145/10/2 146/10/2 149/10/2
f 147/10/2 148/10/2 149/10/2
f 149/10/2 148/10/2 150/10/2
f 150/10/2 148/10/2 151/10/2
f 148/10/2 142/10/2 152/10/2
f 151/10/2 148/10/2 152/10/2
f 152/10/2 142/10/2 153/10/2
f 150/8/2 151/8/2 154/8/2
f 152/8/2 153/8/2 155/8/2
f 150/8/2 154/8/2 156/8/2
f 154/8/2 155/8/2 156/8/2
f 155/8/2 153/8/2 157/8/2
f 156/8/2 155/8/2 157/8/2
f 158/9/2 159/9/2 160/9/2
f 160/9/2 159/9/2 161/9/2
f 160/8/2 161/8/2 162/8/2
f 162/8/2 161/8/2 163/8/2
f 164/8/2 165/8/2 166/8/2
f 166/8/2 165/8/2 167/8/2
f 170/8/3 169/8/3 168/8/3
f 171/8/3 169/8/3 170/8/3
f 174/8/3 173/8/3 172/8/3
f 175/8/3 173/8/3 174/8/3
f 178/10/3 177/10/3 176/10/3
f 183/10/3 178/10/3 176/10/3
f 184/8/3 180/8/3 179/8/3
f 185/7/3 181/7/3 180/7/3
f 185/8/3 180/8/3 184/8/3
f 186/8/3 182/8/3 181/8/3
f 186/7/3 181/7/3 185/7/3
f 187/8/3 182/8/3 186/8/3
f 188/10/3 183/10/3 176/10/3
f 189/10/3 183/10/3 188/10/3
f 194/10/3 191/10/3 190/10/3
f 195/10/3 191/10/3 194/10/3
f 196/8/3 193/8/3 192/8/3
f 197/8/3 193/8/3 196/8/3
f 198/4/3 195/4/3 194/4/3
f 199/4/3 195/4/3 198/4/3
f 200/4/3 198/4/3 194/4/3
f 200/10/3 199/10/3 198/10/3
f 201/10/3 199/10/3 200/10/3
f 202/4/3 200/4/3 194/4/3
f 202/4/3 201/4/3 200/4/3
f 203/4/3 201/4/3 202/4/3
f 204/4/3 202/4/3 194/4/3
f 204/10/3 203/10/3 202/10/3
f 205/4/3 201/4/3 203/4/3
f 205/10/3 203/10/3 204/10/3
f 206/4/3 205/4/3 204/4/3
f 206/4/3 201/4/3 205/4/3
f 207/4/3 201/4/3 206/4/3
f 208/4/3 206/4/3 204/4/3
f 208/10/3 207/10/3 206/10/3
f 209/10/3 207/10/3 208/10/3
f 210/4/3 204/4/3 194/4/3
f 210/4/3 208/4/3 204/4/3
f 210/4/3 209/4/3 208/4/3
f 211/4/3 209/4/3 210/4/3
f 214/10/3 211/10/3 210/10/3
f 215/10/3 211/10/3 214/10/3
f 216/8/3 213/8/3 212/8/3
f 217/8/3 213/8/3 216/8/3
f 220/8/3 219/8/3 218/8/3
f 221/8/3 219/8/3 220/8/3
f 226/8/3 223/8/3 222/8/3
f 227/8/3 223/8/3 226/8/3
f 228/8/3 223/8/3 227/8/3
f 229/8/3 226/8/3 222/8/3
f 229/1/3 227/1/3 226/1/3
f 230/3/3 228/3/3 227/3/3
f 230/1/3 227/1/3 229/1/3
f 231/8/3 223/8/3 228/8/3
f 231/3/3 228/3/3 230/3/3
f 232/10/3 225/10/3 224/10/3
f 233/10/3 225/10/3 232/10/3
f 234/8/3 230/8/3 229/8/3
f 234/8/3 229/8/3 222/8/3
f 234/8/3 231/8/3 230/8/3
f 235/8/3 223/8/3 231/8/3
f 235/8/3 231/8/3 234/8/3
f 238/8/3 234/8/3 222/8/3
f 238/7/3 235/7/3 234/7/3
f 239/7/3 235/7/3 238/7/3
f 240/8/3 238/8/3 222/8/3
f 240/8/3 239/8/3 238/8/3
f 241/8/3 239/8/3 240/8/3
f 242/8/3 239/8/3 241/8/3
f 243/10/3 237/10/3 236/10/3
f 244/10/3 237/10/3 243/10/3
f 245/8/3 240/8/3 222/8/3
f 245/2/3 241/2/3 240/2/3
f 246/7/3 242/7/3 241/7/3
f 246/2/3 241/2/3 245/2/3
f 247/8/3 239/8/3 242/8/3
f 247/7/3 242/7/3 246/7/3
f 248/8/3 245/8/3 222/8/3
f 249/7/3 246/7/3 245/7/3
f 249/8/3 245/8/3 248/8/3
f 250/2/3 247/2/3 246/2/3
f 250/7/3 246/7/3 249/7/3
f 251/8/3 239/8/3 247/8/3
f 251/2/3 247/2/3 250/2/3
f 252/8/3 239/8/3 251/8/3
f 255/8/3 254/8/3 253/8/3
f 256/8/3 254/8/3 255/8/3
f 260/9/3 258/9/3 257/9/3
f 261/8/3 259/8/3 258/8/3
f 261/9/3 258/9/3 260/9/3
f 262/8/3 259/8/3 261/8/3
f 265/8/3 264/8/3 263/8/3
f 266/8/3 264/8/3 265/8/3
f 268/8/3 264/8/3 266/8/3
f 269/8/3 268/8/3 267/8/3
f 270/8/3 264/8/3 268/8/3
f 270/8/3 268/8/3 269/8/3
f 276/9/3 272/9/3 271/9/3
f 277/8/3 275/8/3 274/8/3
f 277/9/3 272/9/3 276/9/3
f 277/8/3 273/8/3 272/8/3
f 277/8/3 274/8/3 273/8/3
f 278/8/3 275/8/3 277/8/3
f 282/8/4 283/8/4 284/8/4
f 284/8/4 283/8/4 285/8/4
f 279/9/4 280/9/4 286/9/4
f 280/8/4 281/8/4 287/8/4
f 286/9/4 280/9/4 287/9/4
f 287/8/4 281/8/4 288/8/4
f 289/8/4 290/8/4 291/8/4
f 291/8/4 290/8/4 292/8/4
f 292/8/4 290/8/4 294/8/4
f 293/8/4 294/8/4 295/8/4
f 294/8/4 290/8/4 296/8/4
f 295/8/4 294/8/4 296/8/4
f 297/9/4 298/9/4 302/9/4
f 298/8/4 299/8/4 303/8/4
f 302/9/4 298/9/4 303/9/4
f 303/8/4 299/8/4 304/8/4
f 300/8/4 301/8/4 305/8/4
f 305/8/4 301/8/4 306/8/4
f 307/10/4 308/10/4 311/10/4
f 308/8/4 309/8/4 312/8/4
f 311/10/4 308/10/4 312/10/4
f 312/8/4 309/8/4 313/8/4
f 314/10/4 315/10/4 316/10/4
f 316/10/4 315/10/4 317/10/4
f 318/10/4 319/10/4 320/10/4
f 320/10/4 319/10/4 321/10/4
f 310/8/4 311/8/4 322/8/4
f 322/8/4 311/8/4 323/8/4
f 323/10/4 324/10/4 326/10/4
f 324/8/4 325/8/4 327/8/4
f 326/10/4 324/10/4 327/10/4
f 327/8/4 325/8/4 328/8/4
f 329/10/4 330/10/4 334/10/4
f 330/8/4 331/8/4 335/8/4
f 334/10/4 330/10/4 335/10/4
f 331/7/4 332/7/4 336/7/4
f 335/8/4 331/8/4 336/8/4
f 336/7/4 332/7/4 339/7/4
f 337/10/4 338/10/4 340/10/4
f 338/8/4 339/8/4 341/8/4
f 340/10/4 338/10/4 341/10/4
f 339/7/4 332/7/4 342/7/4
f 341/8/4 339/8/4 342/8/4
f 332/8/4 333/8/4 343/8/4
f 342/7/4 332/7/4 343/7/4
f 343/8/4 333/8/4 344/8/4
f 345/10/4 346/10/4 348/10/4
f 346/8/4 347/8/4 348/8/4
f 348/8/4 347/8/4 349/8/4
f 345/10/4 348/10/4 350/10/4
f 349/8/4 347/8/4 351/8/4
f 345/10/4 350/10/4 352/10/4
f 350/8/4 351/8/4 353/8/4
f 352/10/4 350/10/4 353/10/4
f 351/8/4 347/8/4 354/8/4
f 353/8/4 351/8/4 354/8/4
f 355/8/4 356/8/4 357/8/4
f 357/8/4 356/8/4 358/8/4
f 363/10/5 360/10/5 359/10/5
f 364/10/5 360/10/5 363/10/5
f 365/10/5 362/10/5 361/10/5
f 366/10/5 362/10/5 365/10/5
f 369/8/5 368/8/5 367/8/5
f 370/8/5 368/8/5 369/8/5
f 374/8/5 372/8/5 371/8/5
f 375/8/5 372/8/5 374/8/5
f 376/8/5 372/8/5 375/8/5
f 377/8/5 372/8/5 376/8/5
f 379/9/5 374/9/5 373/9/5
f 380/8/5 375/8/5 374/8/5
f 380/9/5 374/9/5 379/9/5
f 381/8/5 375/8/5 380/8/5
f 382/8/5 377/8/5 376/8/5
f 383/9/5 378/9/5 377/9/5
f 383/8/5 377/8/5 382/8/5
f 384/9/5 378/9/5 383/9/5
f 385/8/5 382/8/5 381/8/5
f 385/8/5 381/8/5 380/8/5
f 385/8/5 383/8/5 382/8/5
f 386/8/5 383/8/5 385/8/5
f 391/10/5 388/10/5 387/10/5
f 391/4/5 389/4/5 388/4/5
f 392/4/5 389/4/5 391/4/5
f 393/4/5 389/4/5 392/4/5
f 394/10/5 390/10/5 389/10/5
f 394/4/5 389/4/5 393/4/5
f 395/10/5 391/10/5 387/10/5
f 396/10/5 391/10/5 395/10/5
f 397/10/5 390/10/5 394/10/5
f 398/10/5 390/10/5 397/10/5
f 399/10/5 397/10/5 396/10/5
f 400/10/5 397/10/5 399/10/5
f 401/10/5 397/10/5 400/10/5
f 402/10/5 397/10/5 401/10/5
f 403/10/5 401/10/5 400/10/5
f 404/10/5 401/10/5 403/10/5
f 407/10/5 406/10/5 405/10/5
f 408/10/5 406/10/5 407/10/5
f 409/10/5 406/10/5 408/10/5
f 410/10/5 406/10/5 409/10/5
f 411/10/5 406/10/5 410/10/5
f 412/10/5 406/10/5 411/10/5
f 413/10/5 406/10/5 412/10/5
f 414/10/5 406/10/5 413/10/5
f 417/8/5 416/8/5 415/8/5
f 418/8/5 416/8/5 417/8/5
f 423/8/5 420/8/5 419/8/5
f 424/8/5 420/8/5 423/8/5
f 425/8/5 422/8/5 421/8/5
f 426/8/5 422/8/5 425/8/5
f 429/8/5 428/8/5 427/8/5
f 430/8/5 428/8/5 429/8/5
f 431/10/6 432/10/6 435/10/6
f 435/10/6 432/10/6 436/10/6
f 433/10/6 434/10/6 437/10/6
f 437/10/6 434/10/6 438/10/6
f 439/10/6 440/10/6 443/10/6
f 443/10/6 440/10/6 444/10/6
f 441/10/6 442/10/6 445/10/6
f 445/10/6 442/10/6 446/10/6
f 447/8/6 448/8/6 451/8/6
f 451/8/6 448/8/6 452/8/6
f 449/8/6 450/8/6 453/8/6
f 453/8/6 450/8/6 454/8/6
f 455/10/6 456/10/6 459/10/6
f 459/10/6 456/10/6 460/10/6
f 457/10/6 458/10/6 461/10/6
f 461/10/6 458/10/6 462/10/6
f 463/8/6 464/8/6 465/8/6
f 465/8/6 464/8/6 466/8/6
f 467/8/6 468/8/6 469/8/6
f 469/8/6 468/8/6 470/8/6
f 471/8/6 472/8/6 475/8/6
f 475/8/6 472/8/6 476/8/6
f 473/8/6 474/8/6 477/8/6
f 477/8/6 474/8/6 478/8/6
f 479/8/6 480/8/6 481/8/6
f 481/8/6 480/8/6 482/8/6
f 483/8/6 484/8/6 487/8/6
f 487/8/6 484/8/6 488/8/6
f 485/8/6 486/8/6 489/8/6
f 489/8/6 486/8/6 490/8/6
f 491/8/6 492/8/6 493/8/6
f 493/8/6 492/8/6 494/8/6
f 495/8/6 496/8/6 497/8/6
f 497/8/6 496/8/6 498/8/6
