# MagicaVoxel @ Ephtracy

# group
g road-2

# material
mtllib road-2.mtl
usemtl palette

# normals
vn -1 0 0
vn 1 0 0
vn 0 0 1
vn 0 0 -1
vn 0 -1 0
vn 0 1 0

# texcoords
vt 0.0175781 0.5
vt 0.982422 0.5

# verts
v -15 0 15
v -15 0 -15
v -15 2 15
v -15 2 -15
v 13 1 15
v 13 1 13
v 13 2 15
v 13 2 13
v -13 1 15
v -13 1 -13
v -13 2 15
v -13 2 -13
v 15 0 15
v 15 0 -15
v 15 1 13
v 15 1 -13
v 15 2 15
v 15 2 13
v 15 2 -13
v 15 2 -15
v -15 0 15
v -15 2 15
v -13 1 15
v -13 2 15
v 13 1 15
v 13 2 15
v 15 0 15
v 15 2 15
v -13 1 -13
v -13 2 -13
v 15 1 -13
v 15 2 -13
v 13 1 13
v 13 2 13
v 15 1 13
v 15 2 13
v -15 0 -15
v -15 2 -15
v 15 0 -15
v 15 2 -15
v -15 0 15
v 15 0 15
v -1 0 10
v 1 0 10
v 1 0 1
v 10 0 1
v -1 0 -1
v 10 0 -1
v -15 0 -15
v 15 0 -15
v -13 1 15
v 13 1 15
v 13 1 13
v 15 1 13
v -1 1 10
v 1 1 10
v 1 1 1
v 10 1 1
v -1 1 -1
v 10 1 -1
v -13 1 -13
v 15 1 -13
v -15 2 15
v -13 2 15
v 13 2 15
v 15 2 15
v 13 2 13
v 15 2 13
v -13 2 -13
v 15 2 -13
v -15 2 -15
v 15 2 -15

# faces
f 3/2/1 2/2/1 1/2/1
f 4/2/1 2/2/1 3/2/1
f 7/2/1 6/2/1 5/2/1
f 8/2/1 6/2/1 7/2/1
f 9/2/2 10/2/2 11/2/2
f 11/2/2 10/2/2 12/2/2
f 13/2/2 14/2/2 15/2/2
f 15/2/2 14/2/2 16/2/2
f 13/2/2 15/2/2 17/2/2
f 17/2/2 15/2/2 18/2/2
f 16/2/2 14/2/2 19/2/2
f 19/2/2 14/2/2 20/2/2
f 23/2/3 22/2/3 21/2/3
f 24/2/3 22/2/3 23/2/3
f 25/2/3 23/2/3 21/2/3
f 27/2/3 25/2/3 21/2/3
f 27/2/3 26/2/3 25/2/3
f 28/2/3 26/2/3 27/2/3
f 31/2/3 30/2/3 29/2/3
f 32/2/3 30/2/3 31/2/3
f 33/2/4 34/2/4 35/2/4
f 35/2/4 34/2/4 36/2/4
f 37/2/4 38/2/4 39/2/4
f 39/2/4 38/2/4 40/2/4
f 43/2/5 42/2/5 41/2/5
f 44/2/5 42/2/5 43/2/5
f 45/1/5 44/1/5 43/1/5
f 45/2/5 42/2/5 44/2/5
f 46/2/5 42/2/5 45/2/5
f 47/2/5 43/2/5 41/2/5
f 47/1/5 45/1/5 43/1/5
f 47/1/5 46/1/5 45/1/5
f 48/2/5 42/2/5 46/2/5
f 48/1/5 46/1/5 47/1/5
f 49/2/5 47/2/5 41/2/5
f 49/2/5 48/2/5 47/2/5
f 50/2/5 42/2/5 48/2/5
f 50/2/5 48/2/5 49/2/5
f 51/2/6 52/2/6 53/2/6
f 51/2/6 53/2/6 55/2/6
f 53/2/6 54/2/6 55/2/6
f 55/2/6 54/2/6 56/2/6
f 55/1/6 56/1/6 57/1/6
f 56/2/6 54/2/6 57/2/6
f 57/2/6 54/2/6 58/2/6
f 51/2/6 55/2/6 59/2/6
f 55/1/6 57/1/6 59/1/6
f 57/1/6 58/1/6 59/1/6
f 58/2/6 54/2/6 60/2/6
f 59/1/6 58/1/6 60/1/6
f 51/2/6 59/2/6 61/2/6
f 59/2/6 60/2/6 61/2/6
f 60/2/6 54/2/6 62/2/6
f 61/2/6 60/2/6 62/2/6
f 65/2/6 66/2/6 67/2/6
f 67/2/6 66/2/6 68/2/6
f 63/2/6 64/2/6 69/2/6
f 63/2/6 69/2/6 71/2/6
f 69/2/6 70/2/6 71/2/6
f 71/2/6 70/2/6 72/2/6
