# MagicaVoxel @ Ephtracy

# group
g tank

# material
mtllib tank.mtl
usemtl palette

# normals
vn -1 0 0
vn 1 0 0
vn 0 0 1
vn 0 0 -1
vn 0 -1 0
vn 0 1 0

# texcoords
vt 0.626953 0.5
vt 0.978516 0.5
vt 0.990234 0.5
vt 0.994141 0.5

# verts
v -9 0 6.5
v -9 0 -11.5
v -9 1 4.5
v -9 1 -9.5
v -9 3 6.5
v -9 3 5.5
v -9 3 4.5
v -9 3 -9.5
v -9 3 -11.5
v -9 5 5.5
v -9 5 -11.5
v -8 1 4.5
v -8 1 2.5
v -8 1 1.5
v -8 1 -1.5
v -8 1 -2.5
v -8 1 -5.5
v -8 1 -6.5
v -8 1 -9.5
v -8 3 4.5
v -8 3 2.5
v -8 3 1.5
v -8 3 -1.5
v -8 3 -2.5
v -8 3 -5.5
v -8 3 -6.5
v -8 3 -9.5
v -8 5 2.5
v -8 5 -11.5
v -8 6 2.5
v -8 6 -11.5
v -7 3 7.5
v -7 3 6.5
v -7 3 5.5
v -7 3 -11.5
v -7 3 -13.5
v -7 5 7.5
v -7 5 5.5
v -7 5 4.5
v -7 5 2.5
v -7 5 -12.5
v -7 5 -13.5
v -7 6 4.5
v -7 6 2.5
v -7 6 -11.5
v -7 6 -12.5
v -6 5 5.5
v -6 5 4.5
v -6 6 5.5
v -6 6 4.5
v -6 6 2.5
v -6 6 -9.5
v -6 6 -11.5
v -6 7 2.5
v -6 7 -9.5
v -6 8 -9.5
v -6 8 -11.5
v -5 5 6.5
v -5 5 5.5
v -5 6 6.5
v -5 6 5.5
v -5 6 3.5
v -5 6 2.5
v -5 7 3.5
v -5 7 2.5
v -5 7 1.5
v -5 7 -9.5
v -5 8 1.5
v -5 8 -9.5
v -4 7 2.5
v -4 7 1.5
v -4 8 2.5
v -4 8 1.5
v -3 8 -2.5
v -3 8 -9.5
v -3 9 -2.5
v -3 9 -9.5
v -2 6 13.5
v -2 6 6.5
v -2 6 3.5
v -2 7 3.5
v -2 7 2.5
v -2 8 2.5
v -2 8 -1.5
v -2 8 -2.5
v -2 9 13.5
v -2 9 -1.5
v -2 9 -2.5
v -2 9 -3.5
v -2 9 -9.5
v -2 10 -3.5
v -2 10 -9.5
v 0 7 13.5
v 0 7 6.5
v 0 8 13.5
v 0 8 6.5
v 0 9 -5.5
v 0 9 -7.5
v 0 10 -5.5
v 0 10 -7.5
v 3 0 6.5
v 3 0 -11.5
v 3 1 4.5
v 3 1 -9.5
v 3 3 6.5
v 3 3 4.5
v 3 3 -9.5
v 3 3 -11.5
v 4 1 4.5
v 4 1 2.5
v 4 1 1.5
v 4 1 -1.5
v 4 1 -2.5
v 4 1 -5.5
v 4 1 -6.5
v 4 1 -9.5
v 4 3 4.5
v 4 3 2.5
v 4 3 1.5
v 4 3 -1.5
v 4 3 -2.5
v 4 3 -5.5
v 4 3 -6.5
v 4 3 -9.5
v -5 1 4.5
v -5 1 2.5
v -5 1 1.5
v -5 1 -1.5
v -5 1 -2.5
v -5 1 -5.5
v -5 1 -6.5
v -5 1 -9.5
v -5 3 4.5
v -5 3 2.5
v -5 3 1.5
v -5 3 -1.5
v -5 3 -2.5
v -5 3 -5.5
v -5 3 -6.5
v -5 3 -9.5
v -4 0 6.5
v -4 0 -11.5
v -4 1 4.5
v -4 1 -9.5
v -4 3 6.5
v -4 3 4.5
v -4 3 -9.5
v -4 3 -11.5
v -1 7 13.5
v -1 7 6.5
v -1 8 13.5
v -1 8 6.5
v -1 9 -5.5
v -1 9 -7.5
v -1 10 -5.5
v -1 10 -7.5
v 1 6 13.5
v 1 6 6.5
v 1 6 3.5
v 1 7 3.5
v 1 7 2.5
v 1 8 2.5
v 1 8 -1.5
v 1 8 -2.5
v 1 9 13.5
v 1 9 -1.5
v 1 9 -2.5
v 1 9 -3.5
v 1 9 -9.5
v 1 10 -3.5
v 1 10 -9.5
v 2 8 -2.5
v 2 8 -9.5
v 2 9 -2.5
v 2 9 -9.5
v 3 7 2.5
v 3 7 1.5
v 3 8 2.5
v 3 8 1.5
v 4 5 6.5
v 4 5 5.5
v 4 6 6.5
v 4 6 5.5
v 4 6 3.5
v 4 6 2.5
v 4 7 3.5
v 4 7 2.5
v 4 7 1.5
v 4 7 -9.5
v 4 8 1.5
v 4 8 -9.5
v 5 5 5.5
v 5 5 4.5
v 5 6 5.5
v 5 6 4.5
v 5 6 2.5
v 5 6 -9.5
v 5 6 -11.5
v 5 7 2.5
v 5 7 -9.5
v 5 8 -9.5
v 5 8 -11.5
v 6 3 7.5
v 6 3 6.5
v 6 3 5.5
v 6 3 -11.5
v 6 3 -13.5
v 6 5 7.5
v 6 5 5.5
v 6 5 4.5
v 6 5 2.5
v 6 5 -12.5
v 6 5 -13.5
v 6 6 4.5
v 6 6 2.5
v 6 6 -11.5
v 6 6 -12.5
v 7 1 4.5
v 7 1 2.5
v 7 1 1.5
v 7 1 -1.5
v 7 1 -2.5
v 7 1 -5.5
v 7 1 -6.5
v 7 1 -9.5
v 7 3 4.5
v 7 3 2.5
v 7 3 1.5
v 7 3 -1.5
v 7 3 -2.5
v 7 3 -5.5
v 7 3 -6.5
v 7 3 -9.5
v 7 5 2.5
v 7 5 -11.5
v 7 6 2.5
v 7 6 -11.5
v 8 0 6.5
v 8 0 -11.5
v 8 1 4.5
v 8 1 -9.5
v 8 3 6.5
v 8 3 5.5
v 8 3 4.5
v 8 3 -9.5
v 8 3 -11.5
v 8 5 5.5
v 8 5 -11.5
v -2 6 13.5
v -2 9 13.5
v -1 7 13.5
v -1 8 13.5
v 0 7 13.5
v 0 8 13.5
v 1 6 13.5
v 1 9 13.5
v -7 3 7.5
v -7 5 7.5
v 6 3 7.5
v 6 5 7.5
v -9 0 6.5
v -9 3 6.5
v -7 3 6.5
v -5 5 6.5
v -5 6 6.5
v -4 0 6.5
v -4 3 6.5
v -2 6 6.5
v -1 7 6.5
v -1 8 6.5
v 0 7 6.5
v 0 8 6.5
v 1 6 6.5
v 3 0 6.5
v 3 3 6.5
v 4 5 6.5
v 4 6 6.5
v 6 3 6.5
v 8 0 6.5
v 8 3 6.5
v -9 3 5.5
v -9 5 5.5
v -7 3 5.5
v -7 5 5.5
v -6 5 5.5
v -6 6 5.5
v -5 5 5.5
v -5 6 5.5
v 4 5 5.5
v 4 6 5.5
v 5 5 5.5
v 5 6 5.5
v 6 3 5.5
v 6 5 5.5
v 8 3 5.5
v 8 5 5.5
v -7 5 4.5
v -7 6 4.5
v -6 5 4.5
v -6 6 4.5
v 5 5 4.5
v 5 6 4.5
v 6 5 4.5
v 6 6 4.5
v -5 6 3.5
v -5 7 3.5
v -2 6 3.5
v -2 7 3.5
v 1 6 3.5
v 1 7 3.5
v 4 6 3.5
v 4 7 3.5
v -8 5 2.5
v -8 6 2.5
v -7 5 2.5
v -7 6 2.5
v -6 6 2.5
v -6 7 2.5
v -5 6 2.5
v -5 7 2.5
v -4 7 2.5
v -4 8 2.5
v -2 7 2.5
v -2 8 2.5
v 1 7 2.5
v 1 8 2.5
v 3 7 2.5
v 3 8 2.5
v 4 6 2.5
v 4 7 2.5
v 5 6 2.5
v 5 7 2.5
v 6 5 2.5
v 6 6 2.5
v 7 5 2.5
v 7 6 2.5
v -5 7 1.5
v -5 8 1.5
v -4 7 1.5
v -4 8 1.5
v 3 7 1.5
v 3 8 1.5
v 4 7 1.5
v 4 8 1.5
v -3 8 -2.5
v -3 9 -2.5
v -2 8 -2.5
v -2 9 -2.5
v 1 8 -2.5
v 1 9 -2.5
v 2 8 -2.5
v 2 9 -2.5
v -2 9 -3.5
v -2 10 -3.5
v 1 9 -3.5
v 1 10 -3.5
v -1 9 -7.5
v -1 10 -7.5
v 0 9 -7.5
v 0 10 -7.5
v -9 1 -9.5
v -9 3 -9.5
v -8 1 -9.5
v -8 3 -9.5
v -6 7 -9.5
v -6 8 -9.5
v -5 1 -9.5
v -5 3 -9.5
v -5 7 -9.5
v -5 8 -9.5
v -4 1 -9.5
v -4 3 -9.5
v 3 1 -9.5
v 3 3 -9.5
v 4 1 -9.5
v 4 3 -9.5
v 4 7 -9.5
v 4 8 -9.5
v 5 7 -9.5
v 5 8 -9.5
v 7 1 -9.5
v 7 3 -9.5
v 8 1 -9.5
v 8 3 -9.5
v -9 1 4.5
v -9 3 4.5
v -8 1 4.5
v -8 3 4.5
v -5 1 4.5
v -5 3 4.5
v -4 1 4.5
v -4 3 4.5
v 3 1 4.5
v 3 3 4.5
v 4 1 4.5
v 4 3 4.5
v 7 1 4.5
v 7 3 4.5
v 8 1 4.5
v 8 3 4.5
v -1 9 -5.5
v -1 10 -5.5
v 0 9 -5.5
v 0 10 -5.5
v -3 8 -9.5
v -3 9 -9.5
v -2 9 -9.5
v -2 10 -9.5
v 1 9 -9.5
v 1 10 -9.5
v 2 8 -9.5
v 2 9 -9.5
v -9 0 -11.5
v -9 3 -11.5
v -9 5 -11.5
v -8 5 -11.5
v -8 6 -11.5
v -7 3 -11.5
v -7 6 -11.5
v -6 6 -11.5
v -6 8 -11.5
v -5 6 -11.5
v -5 8 -11.5
v -4 0 -11.5
v -4 3 -11.5
v 3 0 -11.5
v 3 3 -11.5
v 4 6 -11.5
v 4 8 -11.5
v 5 6 -11.5
v 5 8 -11.5
v 6 3 -11.5
v 6 6 -11.5
v 7 5 -11.5
v 7 6 -11.5
v 8 0 -11.5
v 8 3 -11.5
v 8 5 -11.5
v -7 5 -12.5
v -7 6 -12.5
v 6 5 -12.5
v 6 6 -12.5
v -7 3 -13.5
v -7 5 -13.5
v 6 3 -13.5
v 6 5 -13.5
v -9 0 6.5
v -4 0 6.5
v 3 0 6.5
v 8 0 6.5
v -9 0 -11.5
v -4 0 -11.5
v 3 0 -11.5
v 8 0 -11.5
v -7 3 7.5
v 6 3 7.5
v -7 3 6.5
v -4 3 6.5
v 3 3 6.5
v 6 3 6.5
v -9 3 4.5
v -8 3 4.5
v -5 3 4.5
v -4 3 4.5
v 3 3 4.5
v 4 3 4.5
v 7 3 4.5
v 8 3 4.5
v -8 3 2.5
v -5 3 2.5
v 4 3 2.5
v 7 3 2.5
v -8 3 1.5
v -5 3 1.5
v 4 3 1.5
v 7 3 1.5
v -8 3 -1.5
v -5 3 -1.5
v 4 3 -1.5
v 7 3 -1.5
v -8 3 -2.5
v -5 3 -2.5
v 4 3 -2.5
v 7 3 -2.5
v -8 3 -5.5
v -5 3 -5.5
v 4 3 -5.5
v 7 3 -5.5
v -8 3 -6.5
v -5 3 -6.5
v 4 3 -6.5
v 7 3 -6.5
v -9 3 -9.5
v -8 3 -9.5
v -5 3 -9.5
v -4 3 -9.5
v 3 3 -9.5
v 4 3 -9.5
v 7 3 -9.5
v 8 3 -9.5
v -7 3 -11.5
v -4 3 -11.5
v 3 3 -11.5
v 6 3 -11.5
v -7 3 -13.5
v 6 3 -13.5
v -2 6 13.5
v 1 6 13.5
v -2 6 6.5
v 1 6 6.5
v -1 8 13.5
v 0 8 13.5
v -1 8 6.5
v 0 8 6.5
v -9 1 4.5
v -8 1 4.5
v -5 1 4.5
v -4 1 4.5
v 3 1 4.5
v 4 1 4.5
v 7 1 4.5
v 8 1 4.5
v -8 1 2.5
v -5 1 2.5
v 4 1 2.5
v 7 1 2.5
v -8 1 1.5
v -5 1 1.5
v 4 1 1.5
v 7 1 1.5
v -8 1 -1.5
v -5 1 -1.5
v 4 1 -1.5
v 7 1 -1.5
v -8 1 -2.5
v -5 1 -2.5
v 4 1 -2.5
v 7 1 -2.5
v -8 1 -5.5
v -5 1 -5.5
v 4 1 -5.5
v 7 1 -5.5
v -8 1 -6.5
v -5 1 -6.5
v 4 1 -6.5
v 7 1 -6.5
v -9 1 -9.5
v -8 1 -9.5
v -5 1 -9.5
v -4 1 -9.5
v 3 1 -9.5
v 4 1 -9.5
v 7 1 -9.5
v 8 1 -9.5
v -9 3 6.5
v -7 3 6.5
v 6 3 6.5
v 8 3 6.5
v -9 3 5.5
v -7 3 5.5
v 6 3 5.5
v 8 3 5.5
v -7 5 7.5
v 6 5 7.5
v -5 5 6.5
v 4 5 6.5
v -9 5 5.5
v -7 5 5.5
v -6 5 5.5
v -5 5 5.5
v 4 5 5.5
v 5 5 5.5
v 6 5 5.5
v 8 5 5.5
v -7 5 4.5
v -6 5 4.5
v 5 5 4.5
v 6 5 4.5
v -8 5 2.5
v -7 5 2.5
v 6 5 2.5
v 7 5 2.5
v -9 5 -11.5
v -8 5 -11.5
v 7 5 -11.5
v 8 5 -11.5
v -7 5 -12.5
v 6 5 -12.5
v -7 5 -13.5
v 6 5 -13.5
v -5 6 6.5
v -2 6 6.5
v 1 6 6.5
v 4 6 6.5
v -6 6 5.5
v -5 6 5.5
v 4 6 5.5
v 5 6 5.5
v -7 6 4.5
v -6 6 4.5
v 5 6 4.5
v 6 6 4.5
v -5 6 3.5
v -2 6 3.5
v 1 6 3.5
v 4 6 3.5
v -8 6 2.5
v -7 6 2.5
v -6 6 2.5
v -5 6 2.5
v 4 6 2.5
v 5 6 2.5
v 6 6 2.5
v 7 6 2.5
v -6 6 -9.5
v 5 6 -9.5
v -8 6 -11.5
v -7 6 -11.5
v -6 6 -11.5
v -5 6 -11.5
v 4 6 -11.5
v 5 6 -11.5
v 6 6 -11.5
v 7 6 -11.5
v -7 6 -12.5
v 6 6 -12.5
v -1 7 13.5
v 0 7 13.5
v -1 7 6.5
v 0 7 6.5
v -5 7 3.5
v -2 7 3.5
v 1 7 3.5
v 4 7 3.5
v -6 7 2.5
v -5 7 2.5
v -4 7 2.5
v -2 7 2.5
v 1 7 2.5
v 3 7 2.5
v 4 7 2.5
v 5 7 2.5
v -5 7 1.5
v -4 7 1.5
v 3 7 1.5
v 4 7 1.5
v -6 7 -9.5
v -5 7 -9.5
v 4 7 -9.5
v 5 7 -9.5
v -4 8 2.5
v -2 8 2.5
v 1 8 2.5
v 3 8 2.5
v -5 8 1.5
v -4 8 1.5
v 3 8 1.5
v 4 8 1.5
v -2 8 -1.5
v 1 8 -1.5
v -3 8 -2.5
v -2 8 -2.5
v 1 8 -2.5
v 2 8 -2.5
v -6 8 -9.5
v -5 8 -9.5
v -3 8 -9.5
v 2 8 -9.5
v 4 8 -9.5
v 5 8 -9.5
v -6 8 -11.5
v -5 8 -11.5
v 4 8 -11.5
v 5 8 -11.5
v -2 9 13.5
v 1 9 13.5
v -2 9 -1.5
v 1 9 -1.5
v -3 9 -2.5
v -2 9 -2.5
v 1 9 -2.5
v 2 9 -2.5
v -2 9 -3.5
v 1 9 -3.5
v -1 9 -5.5
v 0 9 -5.5
v -1 9 -7.5
v 0 9 -7.5
v -3 9 -9.5
v -2 9 -9.5
v 1 9 -9.5
v 2 9 -9.5
v -2 10 -3.5
v 1 10 -3.5
v -1 10 -5.5
v 0 10 -5.5
v -1 10 -7.5
v 0 10 -7.5
v -2 10 -9.5
v 1 10 -9.5

# faces
f 3/4/1 2/4/1 1/4/1
f 4/4/1 2/4/1 3/4/1
f 5/4/1 3/4/1 1/4/1
f 6/4/1 3/4/1 5/4/1
f 7/4/1 3/4/1 6/4/1
f 8/4/1 2/4/1 4/4/1
f 9/4/1 2/4/1 8/4/1
f 10/1/1 7/1/1 6/1/1
f 10/1/1 9/1/1 8/1/1
f 10/1/1 8/1/1 7/1/1
f 11/1/1 9/1/1 10/1/1
f 20/2/1 13/2/1 12/2/1
f 21/4/1 14/4/1 13/4/1
f 21/2/1 13/2/1 20/2/1
f 22/2/1 15/2/1 14/2/1
f 22/4/1 14/4/1 21/4/1
f 23/4/1 16/4/1 15/4/1
f 23/2/1 15/2/1 22/2/1
f 24/2/1 17/2/1 16/2/1
f 24/4/1 16/4/1 23/4/1
f 25/4/1 18/4/1 17/4/1
f 25/2/1 17/2/1 24/2/1
f 26/2/1 19/2/1 18/2/1
f 26/4/1 18/4/1 25/4/1
f 27/2/1 19/2/1 26/2/1
f 30/1/1 29/1/1 28/1/1
f 31/1/1 29/1/1 30/1/1
f 37/1/1 33/1/1 32/1/1
f 37/1/1 34/1/1 33/1/1
f 38/1/1 34/1/1 37/1/1
f 41/1/1 36/1/1 35/1/1
f 42/1/1 36/1/1 41/1/1
f 43/1/1 40/1/1 39/1/1
f 44/1/1 40/1/1 43/1/1
f 45/1/1 41/1/1 35/1/1
f 46/1/1 41/1/1 45/1/1
f 49/1/1 48/1/1 47/1/1
f 50/1/1 48/1/1 49/1/1
f 54/1/1 52/1/1 51/1/1
f 55/3/1 53/3/1 52/3/1
f 55/1/1 52/1/1 54/1/1
f 56/3/1 53/3/1 55/3/1
f 57/3/1 53/3/1 56/3/1
f 60/1/1 59/1/1 58/1/1
f 61/1/1 59/1/1 60/1/1
f 64/1/1 63/1/1 62/1/1
f 65/1/1 63/1/1 64/1/1
f 68/1/1 67/1/1 66/1/1
f 69/1/1 67/1/1 68/1/1
f 72/1/1 71/1/1 70/1/1
f 73/1/1 71/1/1 72/1/1
f 76/1/1 75/1/1 74/1/1
f 77/1/1 75/1/1 76/1/1
f 81/2/1 79/2/1 78/2/1
f 81/2/1 80/2/1 79/2/1
f 83/2/1 82/2/1 81/2/1
f 86/2/1 81/2/1 78/2/1
f 86/2/1 83/2/1 81/2/1
f 86/2/1 84/2/1 83/2/1
f 87/1/1 85/1/1 84/1/1
f 87/2/1 84/2/1 86/2/1
f 88/1/1 85/1/1 87/1/1
f 91/1/1 90/1/1 89/1/1
f 92/1/1 90/1/1 91/1/1
f 95/2/1 94/2/1 93/2/1
f 96/2/1 94/2/1 95/2/1
f 99/1/1 98/1/1 97/1/1
f 100/1/1 98/1/1 99/1/1
f 103/4/1 102/4/1 101/4/1
f 104/4/1 102/4/1 103/4/1
f 105/4/1 103/4/1 101/4/1
f 106/4/1 103/4/1 105/4/1
f 107/4/1 102/4/1 104/4/1
f 108/4/1 102/4/1 107/4/1
f 117/2/1 110/2/1 109/2/1
f 118/4/1 111/4/1 110/4/1
f 118/2/1 110/2/1 117/2/1
f 119/2/1 112/2/1 111/2/1
f 119/4/1 111/4/1 118/4/1
f 120/4/1 113/4/1 112/4/1
f 120/2/1 112/2/1 119/2/1
f 121/2/1 114/2/1 113/2/1
f 121/4/1 113/4/1 120/4/1
f 122/4/1 115/4/1 114/4/1
f 122/2/1 114/2/1 121/2/1
f 123/2/1 116/2/1 115/2/1
f 123/4/1 115/4/1 122/4/1
f 124/2/1 116/2/1 123/2/1
f 125/2/2 126/2/2 133/2/2
f 126/4/2 127/4/2 134/4/2
f 133/2/2 126/2/2 134/2/2
f 127/2/2 128/2/2 135/2/2
f 134/4/2 127/4/2 135/4/2
f 128/4/2 129/4/2 136/4/2
f 135/2/2 128/2/2 136/2/2
f 129/2/2 130/2/2 137/2/2
f 136/4/2 129/4/2 137/4/2
f 130/4/2 131/4/2 138/4/2
f 137/2/2 130/2/2 138/2/2
f 131/2/2 132/2/2 139/2/2
f 138/4/2 131/4/2 139/4/2
f 139/2/2 132/2/2 140/2/2
f 141/4/2 142/4/2 143/4/2
f 143/4/2 142/4/2 144/4/2
f 141/4/2 143/4/2 145/4/2
f 145/4/2 143/4/2 146/4/2
f 144/4/2 142/4/2 147/4/2
f 147/4/2 142/4/2 148/4/2
f 149/2/2 150/2/2 151/2/2
f 151/2/2 150/2/2 152/2/2
f 153/1/2 154/1/2 155/1/2
f 155/1/2 154/1/2 156/1/2
f 157/2/2 158/2/2 160/2/2
f 158/2/2 159/2/2 160/2/2
f 160/2/2 161/2/2 162/2/2
f 157/2/2 160/2/2 165/2/2
f 160/2/2 162/2/2 165/2/2
f 162/2/2 163/2/2 165/2/2
f 163/1/2 164/1/2 166/1/2
f 165/2/2 163/2/2 166/2/2
f 166/1/2 164/1/2 167/1/2
f 168/1/2 169/1/2 170/1/2
f 170/1/2 169/1/2 171/1/2
f 172/1/2 173/1/2 174/1/2
f 174/1/2 173/1/2 175/1/2
f 176/1/2 177/1/2 178/1/2
f 178/1/2 177/1/2 179/1/2
f 180/1/2 181/1/2 182/1/2
f 182/1/2 181/1/2 183/1/2
f 184/1/2 185/1/2 186/1/2
f 186/1/2 185/1/2 187/1/2
f 188/1/2 189/1/2 190/1/2
f 190/1/2 189/1/2 191/1/2
f 192/1/2 193/1/2 194/1/2
f 194/1/2 193/1/2 195/1/2
f 196/1/2 197/1/2 199/1/2
f 197/3/2 198/3/2 200/3/2
f 199/1/2 197/1/2 200/1/2
f 200/3/2 198/3/2 201/3/2
f 201/3/2 198/3/2 202/3/2
f 203/1/2 204/1/2 208/1/2
f 204/1/2 205/1/2 208/1/2
f 208/1/2 205/1/2 209/1/2
f 206/1/2 207/1/2 212/1/2
f 212/1/2 207/1/2 213/1/2
f 210/1/2 211/1/2 214/1/2
f 214/1/2 211/1/2 215/1/2
f 206/1/2 212/1/2 216/1/2
f 216/1/2 212/1/2 217/1/2
f 218/2/2 219/2/2 226/2/2
f 219/4/2 220/4/2 227/4/2
f 226/2/2 219/2/2 227/2/2
f 220/2/2 221/2/2 228/2/2
f 227/4/2 220/4/2 228/4/2
f 221/4/2 222/4/2 229/4/2
f 228/2/2 221/2/2 229/2/2
f 222/2/2 223/2/2 230/2/2
f 229/4/2 222/4/2 230/4/2
f 223/4/2 224/4/2 231/4/2
f 230/2/2 223/2/2 231/2/2
f 224/2/2 225/2/2 232/2/2
f 231/4/2 224/4/2 232/4/2
f 232/2/2 225/2/2 233/2/2
f 234/1/2 235/1/2 236/1/2
f 236/1/2 235/1/2 237/1/2
f 238/4/2 239/4/2 240/4/2
f 240/4/2 239/4/2 241/4/2
f 238/4/2 240/4/2 242/4/2
f 242/4/2 240/4/2 243/4/2
f 243/4/2 240/4/2 244/4/2
f 241/4/2 239/4/2 245/4/2
f 245/4/2 239/4/2 246/4/2
f 243/1/2 244/1/2 247/1/2
f 245/1/2 246/1/2 247/1/2
f 244/1/2 245/1/2 247/1/2
f 247/1/2 246/1/2 248/1/2
f 251/2/3 250/2/3 249/2/3
f 252/2/3 250/2/3 251/2/3
f 253/2/3 251/2/3 249/2/3
f 254/2/3 250/2/3 252/2/3
f 255/2/3 253/2/3 249/2/3
f 255/2/3 254/2/3 253/2/3
f 256/2/3 250/2/3 254/2/3
f 256/2/3 254/2/3 255/2/3
f 259/1/3 258/1/3 257/1/3
f 260/1/3 258/1/3 259/1/3
f 263/4/3 262/4/3 261/4/3
f 266/4/3 263/4/3 261/4/3
f 267/4/3 263/4/3 266/4/3
f 268/1/3 265/1/3 264/1/3
f 271/2/3 270/2/3 269/2/3
f 272/2/3 270/2/3 271/2/3
f 273/1/3 268/1/3 264/1/3
f 276/1/3 273/1/3 264/1/3
f 277/1/3 273/1/3 276/1/3
f 278/4/3 275/4/3 274/4/3
f 279/4/3 278/4/3 274/4/3
f 280/4/3 278/4/3 279/4/3
f 283/1/3 282/1/3 281/1/3
f 284/1/3 282/1/3 283/1/3
f 287/1/3 286/1/3 285/1/3
f 288/1/3 286/1/3 287/1/3
f 291/1/3 290/1/3 289/1/3
f 292/1/3 290/1/3 291/1/3
f 295/1/3 294/1/3 293/1/3
f 296/1/3 294/1/3 295/1/3
f 299/1/3 298/1/3 297/1/3
f 300/1/3 298/1/3 299/1/3
f 303/1/3 302/1/3 301/1/3
f 304/1/3 302/1/3 303/1/3
f 307/1/3 306/1/3 305/1/3
f 308/1/3 306/1/3 307/1/3
f 311/1/3 310/1/3 309/1/3
f 312/1/3 310/1/3 311/1/3
f 315/1/3 314/1/3 313/1/3
f 316/1/3 314/1/3 315/1/3
f 319/1/3 318/1/3 317/1/3
f 320/1/3 318/1/3 319/1/3
f 323/1/3 322/1/3 321/1/3
f 324/1/3 322/1/3 323/1/3
f 327/1/3 326/1/3 325/1/3
f 328/1/3 326/1/3 327/1/3
f 331/1/3 330/1/3 329/1/3
f 332/1/3 330/1/3 331/1/3
f 335/1/3 334/1/3 333/1/3
f 336/1/3 334/1/3 335/1/3
f 339/1/3 338/1/3 337/1/3
f 340/1/3 338/1/3 339/1/3
f 343/1/3 342/1/3 341/1/3
f 344/1/3 342/1/3 343/1/3
f 347/1/3 346/1/3 345/1/3
f 348/1/3 346/1/3 347/1/3
f 351/1/3 350/1/3 349/1/3
f 352/1/3 350/1/3 351/1/3
f 355/1/3 354/1/3 353/1/3
f 356/1/3 354/1/3 355/1/3
f 359/1/3 358/1/3 357/1/3
f 360/1/3 358/1/3 359/1/3
f 363/4/3 362/4/3 361/4/3
f 364/4/3 362/4/3 363/4/3
f 369/3/3 366/3/3 365/3/3
f 370/3/3 366/3/3 369/3/3
f 371/4/3 368/4/3 367/4/3
f 372/4/3 368/4/3 371/4/3
f 375/4/3 374/4/3 373/4/3
f 376/4/3 374/4/3 375/4/3
f 379/3/3 378/3/3 377/3/3
f 380/3/3 378/3/3 379/3/3
f 383/4/3 382/4/3 381/4/3
f 384/4/3 382/4/3 383/4/3
f 385/4/4 386/4/4 387/4/4
f 387/4/4 386/4/4 388/4/4
f 389/4/4 390/4/4 391/4/4
f 391/4/4 390/4/4 392/4/4
f 393/4/4 394/4/4 395/4/4
f 395/4/4 394/4/4 396/4/4
f 397/4/4 398/4/4 399/4/4
f 399/4/4 398/4/4 400/4/4
f 401/1/4 402/1/4 403/1/4
f 403/1/4 402/1/4 404/1/4
f 405/1/4 406/1/4 407/1/4
f 405/1/4 407/1/4 409/1/4
f 407/1/4 408/1/4 409/1/4
f 409/1/4 408/1/4 410/1/4
f 405/1/4 409/1/4 411/1/4
f 411/1/4 409/1/4 412/1/4
f 414/1/4 415/1/4 416/1/4
f 413/4/4 414/4/4 418/4/4
f 416/1/4 417/1/4 418/1/4
f 414/1/4 416/1/4 418/1/4
f 418/1/4 417/1/4 419/1/4
f 420/3/4 421/3/4 422/3/4
f 422/3/4 421/3/4 423/3/4
f 413/4/4 418/4/4 424/4/4
f 424/4/4 418/4/4 425/4/4
f 422/2/4 423/2/4 428/2/4
f 428/2/4 423/2/4 429/2/4
f 428/3/4 429/3/4 430/3/4
f 430/3/4 429/3/4 431/3/4
f 426/4/4 427/4/4 432/4/4
f 432/1/4 433/1/4 434/1/4
f 434/1/4 433/1/4 435/1/4
f 426/4/4 432/4/4 436/4/4
f 432/1/4 434/1/4 437/1/4
f 436/4/4 432/4/4 437/4/4
f 437/1/4 434/1/4 438/1/4
f 439/1/4 440/1/4 441/1/4
f 441/1/4 440/1/4 442/1/4
f 443/1/4 444/1/4 445/1/4
f 445/1/4 444/1/4 446/1/4
f 451/4/5 448/4/5 447/4/5
f 452/4/5 448/4/5 451/4/5
f 453/4/5 450/4/5 449/4/5
f 454/4/5 450/4/5 453/4/5
f 457/1/5 456/1/5 455/1/5
f 458/1/5 456/1/5 457/1/5
f 459/1/5 456/1/5 458/1/5
f 460/1/5 456/1/5 459/1/5
f 464/1/5 459/1/5 458/1/5
f 465/1/5 459/1/5 464/1/5
f 469/1/5 462/1/5 461/1/5
f 470/1/5 466/1/5 465/1/5
f 470/1/5 464/1/5 463/1/5
f 470/1/5 465/1/5 464/1/5
f 471/1/5 466/1/5 470/1/5
f 472/1/5 468/1/5 467/1/5
f 473/1/5 469/1/5 461/1/5
f 474/1/5 471/1/5 470/1/5
f 475/1/5 471/1/5 474/1/5
f 476/1/5 468/1/5 472/1/5
f 477/1/5 473/1/5 461/1/5
f 478/1/5 475/1/5 474/1/5
f 479/1/5 475/1/5 478/1/5
f 480/1/5 468/1/5 476/1/5
f 481/1/5 477/1/5 461/1/5
f 482/1/5 479/1/5 478/1/5
f 483/1/5 479/1/5 482/1/5
f 484/1/5 468/1/5 480/1/5
f 485/1/5 481/1/5 461/1/5
f 486/1/5 483/1/5 482/1/5
f 487/1/5 483/1/5 486/1/5
f 488/1/5 468/1/5 484/1/5
f 489/1/5 485/1/5 461/1/5
f 490/1/5 487/1/5 486/1/5
f 491/1/5 487/1/5 490/1/5
f 492/1/5 468/1/5 488/1/5
f 493/1/5 489/1/5 461/1/5
f 494/1/5 489/1/5 493/1/5
f 495/1/5 491/1/5 490/1/5
f 496/1/5 491/1/5 495/1/5
f 497/1/5 491/1/5 496/1/5
f 498/1/5 491/1/5 497/1/5
f 499/1/5 468/1/5 492/1/5
f 500/1/5 468/1/5 499/1/5
f 502/1/5 497/1/5 496/1/5
f 503/1/5 497/1/5 502/1/5
f 505/1/5 502/1/5 501/1/5
f 505/1/5 504/1/5 503/1/5
f 505/1/5 503/1/5 502/1/5
f 506/1/5 504/1/5 505/1/5
f 509/2/5 508/2/5 507/2/5
f 510/2/5 508/2/5 509/2/5
f 513/2/5 512/2/5 511/2/5
f 514/2/5 512/2/5 513/2/5
f 515/4/6 516/4/6 523/4/6
f 517/4/6 518/4/6 524/4/6
f 519/4/6 520/4/6 525/4/6
f 521/4/6 522/4/6 526/4/6
f 515/4/6 523/4/6 527/4/6
f 524/4/6 518/4/6 528/4/6
f 519/4/6 525/4/6 529/4/6
f 526/4/6 522/4/6 530/4/6
f 515/4/6 527/4/6 531/4/6
f 528/4/6 518/4/6 532/4/6
f 519/4/6 529/4/6 533/4/6
f 530/4/6 522/4/6 534/4/6
f 515/4/6 531/4/6 535/4/6
f 532/4/6 518/4/6 536/4/6
f 519/4/6 533/4/6 537/4/6
f 534/4/6 522/4/6 538/4/6
f 515/4/6 535/4/6 539/4/6
f 536/4/6 518/4/6 540/4/6
f 519/4/6 537/4/6 541/4/6
f 538/4/6 522/4/6 542/4/6
f 515/4/6 539/4/6 543/4/6
f 540/4/6 518/4/6 544/4/6
f 519/4/6 541/4/6 545/4/6
f 542/4/6 522/4/6 546/4/6
f 515/4/6 543/4/6 547/4/6
f 547/4/6 543/4/6 548/4/6
f 544/4/6 518/4/6 549/4/6
f 549/4/6 518/4/6 550/4/6
f 519/4/6 545/4/6 551/4/6
f 551/4/6 545/4/6 552/4/6
f 546/4/6 522/4/6 553/4/6
f 553/4/6 522/4/6 554/4/6
f 555/4/6 556/4/6 559/4/6
f 559/4/6 556/4/6 560/4/6
f 557/4/6 558/4/6 561/4/6
f 561/4/6 558/4/6 562/4/6
f 563/1/6 564/1/6 565/1/6
f 565/1/6 564/1/6 566/1/6
f 563/1/6 565/1/6 568/1/6
f 568/1/6 565/1/6 569/1/6
f 569/1/6 565/1/6 570/1/6
f 566/1/6 564/1/6 571/1/6
f 571/1/6 564/1/6 572/1/6
f 572/1/6 564/1/6 573/1/6
f 567/1/6 568/1/6 575/1/6
f 568/1/6 569/1/6 575/1/6
f 575/1/6 569/1/6 576/1/6
f 573/1/6 574/1/6 577/1/6
f 572/1/6 573/1/6 577/1/6
f 577/1/6 574/1/6 578/1/6
f 567/1/6 575/1/6 579/1/6
f 579/1/6 575/1/6 580/1/6
f 578/1/6 574/1/6 581/1/6
f 581/1/6 574/1/6 582/1/6
f 567/1/6 579/1/6 583/1/6
f 583/1/6 579/1/6 584/1/6
f 582/1/6 574/1/6 585/1/6
f 585/1/6 574/1/6 586/1/6
f 587/1/6 588/1/6 589/1/6
f 589/1/6 588/1/6 590/1/6
f 591/1/6 592/1/6 596/1/6
f 593/1/6 594/1/6 597/1/6
f 595/1/6 596/1/6 600/1/6
f 597/1/6 598/1/6 601/1/6
f 599/1/6 600/1/6 603/1/6
f 596/1/6 592/1/6 603/1/6
f 600/1/6 596/1/6 603/1/6
f 603/1/6 592/1/6 604/1/6
f 601/1/6 602/1/6 605/1/6
f 597/1/6 601/1/6 605/1/6
f 593/1/6 597/1/6 605/1/6
f 605/1/6 602/1/6 606/1/6
f 599/1/6 603/1/6 608/1/6
f 608/1/6 603/1/6 609/1/6
f 609/1/6 603/1/6 610/1/6
f 606/1/6 602/1/6 611/1/6
f 611/1/6 602/1/6 612/1/6
f 612/1/6 602/1/6 613/1/6
f 607/1/6 608/1/6 615/1/6
f 608/1/6 609/1/6 615/1/6
f 613/1/6 614/1/6 616/1/6
f 612/1/6 613/1/6 616/1/6
f 607/1/6 615/1/6 617/1/6
f 617/1/6 615/1/6 618/1/6
f 618/1/6 615/1/6 619/1/6
f 616/1/6 614/1/6 622/1/6
f 622/1/6 614/1/6 623/1/6
f 623/1/6 614/1/6 624/1/6
f 620/1/6 621/1/6 625/1/6
f 622/1/6 623/1/6 625/1/6
f 621/1/6 622/1/6 625/1/6
f 618/1/6 619/1/6 625/1/6
f 619/1/6 620/1/6 625/1/6
f 625/1/6 623/1/6 626/1/6
f 627/2/6 628/2/6 629/2/6
f 629/2/6 628/2/6 630/2/6
f 631/1/6 632/1/6 636/1/6
f 636/1/6 632/1/6 637/1/6
f 637/1/6 632/1/6 638/1/6
f 633/1/6 634/1/6 639/1/6
f 639/1/6 634/1/6 640/1/6
f 640/1/6 634/1/6 641/1/6
f 635/1/6 636/1/6 643/1/6
f 636/1/6 637/1/6 643/1/6
f 643/1/6 637/1/6 644/1/6
f 641/1/6 642/1/6 645/1/6
f 640/1/6 641/1/6 645/1/6
f 645/1/6 642/1/6 646/1/6
f 635/1/6 643/1/6 647/1/6
f 647/1/6 643/1/6 648/1/6
f 646/1/6 642/1/6 649/1/6
f 649/1/6 642/1/6 650/1/6
f 651/1/6 652/1/6 656/1/6
f 653/1/6 654/1/6 657/1/6
f 655/1/6 656/1/6 659/1/6
f 656/1/6 652/1/6 659/1/6
f 657/1/6 658/1/6 660/1/6
f 653/1/6 657/1/6 660/1/6
f 655/1/6 659/1/6 661/1/6
f 661/1/6 659/1/6 662/1/6
f 660/1/6 658/1/6 663/1/6
f 663/1/6 658/1/6 664/1/6
f 655/1/6 661/1/6 666/1/6
f 666/1/6 661/1/6 667/1/6
f 664/1/6 658/1/6 668/1/6
f 668/1/6 658/1/6 669/1/6
f 665/3/6 666/3/6 671/3/6
f 666/2/6 667/2/6 672/2/6
f 671/3/6 666/3/6 672/3/6
f 667/2/6 668/2/6 672/2/6
f 668/2/6 669/2/6 672/2/6
f 669/3/6 670/3/6 673/3/6
f 672/2/6 669/2/6 673/2/6
f 673/3/6 670/3/6 674/3/6
f 675/2/6 676/2/6 677/2/6
f 677/2/6 676/2/6 678/2/6
f 677/1/6 678/1/6 680/1/6
f 680/1/6 678/1/6 681/1/6
f 680/1/6 681/1/6 683/1/6
f 681/1/6 682/1/6 683/1/6
f 679/1/6 680/1/6 683/1/6
f 683/1/6 682/1/6 684/1/6
f 685/1/6 686/1/6 687/1/6
f 687/1/6 686/1/6 688/1/6
f 679/1/6 683/1/6 689/1/6
f 689/1/6 683/1/6 690/1/6
f 684/1/6 682/1/6 691/1/6
f 691/1/6 682/1/6 692/1/6
f 693/1/6 694/1/6 695/1/6
f 695/1/6 694/1/6 696/1/6
f 693/1/6 695/1/6 697/1/6
f 696/1/6 694/1/6 698/1/6
f 693/1/6 697/1/6 699/1/6
f 697/1/6 698/1/6 699/1/6
f 698/1/6 694/1/6 700/1/6
f 699/1/6 698/1/6 700/1/6
