# MagicaVoxel @ Ephtracy

# group
g คอก

# material
mtllib คอก.mtl
usemtl palette

# normals
vn -1 0 0
vn 1 0 0
vn 0 0 1
vn 0 0 -1
vn 0 -1 0
vn 0 1 0

# texcoords
vt 0.369141 0.5
vt 0.373047 0.5
vt 0.537109 0.5

# verts
v -20 0 20
v -20 0 -20
v -20 1 20
v -20 1 18
v -20 1 -18
v -20 1 -20
v -20 10 20
v -20 10 18
v -20 10 -18
v -20 10 -20
v -19 4 18
v -19 4 -18
v -19 6 18
v -19 6 -18
v -19 7 18
v -19 7 -18
v -19 9 18
v -19 9 -18
v 18 1 20
v 18 1 18
v 18 1 -18
v 18 1 -20
v 18 4 19
v 18 4 18
v 18 4 -18
v 18 4 -19
v 18 6 19
v 18 6 18
v 18 6 -18
v 18 6 -19
v 18 7 19
v 18 7 18
v 18 7 -18
v 18 7 -19
v 18 9 19
v 18 9 18
v 18 9 -18
v 18 9 -19
v 18 10 20
v 18 10 18
v 18 10 -18
v 18 10 -20
v -18 1 20
v -18 1 18
v -18 1 -18
v -18 1 -20
v -18 4 19
v -18 4 18
v -18 4 -18
v -18 4 -19
v -18 6 19
v -18 6 18
v -18 6 -18
v -18 6 -19
v -18 7 19
v -18 7 18
v -18 7 -18
v -18 7 -19
v -18 9 19
v -18 9 18
v -18 9 -18
v -18 9 -19
v -18 10 20
v -18 10 18
v -18 10 -18
v -18 10 -20
v 19 4 18
v 19 4 -18
v 19 6 18
v 19 6 -18
v 19 7 18
v 19 7 -18
v 19 9 18
v 19 9 -18
v 20 0 20
v 20 0 -20
v 20 1 20
v 20 1 18
v 20 1 -18
v 20 1 -20
v 20 10 20
v 20 10 18
v 20 10 -18
v 20 10 -20
v -20 0 20
v -20 1 20
v -20 10 20
v -18 1 20
v -18 10 20
v 18 1 20
v 18 10 20
v 20 0 20
v 20 1 20
v 20 10 20
v -18 4 19
v -18 6 19
v -18 7 19
v -18 9 19
v 18 4 19
v 18 6 19
v 18 7 19
v 18 9 19
v -20 1 -18
v -20 10 -18
v -19 4 -18
v -19 6 -18
v -19 7 -18
v -19 9 -18
v -18 1 -18
v -18 4 -18
v -18 6 -18
v -18 7 -18
v -18 9 -18
v -18 10 -18
v 18 1 -18
v 18 4 -18
v 18 6 -18
v 18 7 -18
v 18 9 -18
v 18 10 -18
v 19 4 -18
v 19 6 -18
v 19 7 -18
v 19 9 -18
v 20 1 -18
v 20 10 -18
v -20 1 18
v -20 10 18
v -19 4 18
v -19 6 18
v -19 7 18
v -19 9 18
v -18 1 18
v -18 4 18
v -18 6 18
v -18 7 18
v -18 9 18
v -18 10 18
v 18 1 18
v 18 4 18
v 18 6 18
v 18 7 18
v 18 9 18
v 18 10 18
v 19 4 18
v 19 6 18
v 19 7 18
v 19 9 18
v 20 1 18
v 20 10 18
v -18 4 -19
v -18 6 -19
v -18 7 -19
v -18 9 -19
v 18 4 -19
v 18 6 -19
v 18 7 -19
v 18 9 -19
v -20 0 -20
v -20 1 -20
v -20 10 -20
v -18 1 -20
v -18 10 -20
v 18 1 -20
v 18 10 -20
v 20 0 -20
v 20 1 -20
v 20 10 -20
v -20 0 20
v 20 0 20
v 12 0 15
v 13 0 15
v -2 0 14
v -1 0 14
v 12 0 14
v 13 0 14
v -2 0 13
v -1 0 13
v 6 0 12
v 7 0 12
v 6 0 11
v 7 0 11
v -16 0 8
v -15 0 8
v -1 0 8
v 0 0 8
v -9 0 7
v -8 0 7
v -1 0 7
v 0 0 7
v 11 0 7
v 12 0 7
v -16 0 6
v -15 0 6
v -9 0 6
v -8 0 6
v 11 0 6
v 12 0 6
v 7 0 4
v 8 0 4
v 7 0 3
v 8 0 3
v -8 0 -3
v -7 0 -3
v -8 0 -4
v -7 0 -4
v -2 0 -4
v -1 0 -4
v 6 0 -4
v 7 0 -4
v -14 0 -5
v -13 0 -5
v -8 0 -5
v -7 0 -5
v -2 0 -5
v -1 0 -5
v 6 0 -5
v 7 0 -5
v -14 0 -6
v -13 0 -6
v -8 0 -6
v -7 0 -6
v -5 0 -12
v -4 0 -12
v 10 0 -12
v 11 0 -12
v -17 0 -13
v -16 0 -13
v -5 0 -13
v -4 0 -13
v 10 0 -13
v 11 0 -13
v -17 0 -14
v -16 0 -14
v 16 0 -14
v 17 0 -14
v 16 0 -15
v 17 0 -15
v -20 0 -20
v 20 0 -20
v -18 4 19
v 18 4 19
v -19 4 18
v -18 4 18
v 18 4 18
v 19 4 18
v -19 4 -18
v -18 4 -18
v 18 4 -18
v 19 4 -18
v -18 4 -19
v 18 4 -19
v -18 7 19
v 18 7 19
v -19 7 18
v -18 7 18
v 18 7 18
v 19 7 18
v -19 7 -18
v -18 7 -18
v 18 7 -18
v 19 7 -18
v -18 7 -19
v 18 7 -19
v -18 1 20
v 18 1 20
v -20 1 18
v -18 1 18
v 18 1 18
v 20 1 18
v 12 1 15
v 13 1 15
v -2 1 14
v -1 1 14
v 12 1 14
v 13 1 14
v -2 1 13
v -1 1 13
v 6 1 12
v 7 1 12
v 6 1 11
v 7 1 11
v -16 1 8
v -15 1 8
v -1 1 8
v 0 1 8
v -9 1 7
v -8 1 7
v -1 1 7
v 0 1 7
v 11 1 7
v 12 1 7
v -16 1 6
v -15 1 6
v -9 1 6
v -8 1 6
v 11 1 6
v 12 1 6
v 7 1 4
v 8 1 4
v 7 1 3
v 8 1 3
v -8 1 -3
v -7 1 -3
v -8 1 -4
v -7 1 -4
v -2 1 -4
v -1 1 -4
v 6 1 -4
v 7 1 -4
v -14 1 -5
v -13 1 -5
v -8 1 -5
v -7 1 -5
v -2 1 -5
v -1 1 -5
v 6 1 -5
v 7 1 -5
v -14 1 -6
v -13 1 -6
v -8 1 -6
v -7 1 -6
v -5 1 -12
v -4 1 -12
v 10 1 -12
v 11 1 -12
v -17 1 -13
v -16 1 -13
v -5 1 -13
v -4 1 -13
v 10 1 -13
v 11 1 -13
v -17 1 -14
v -16 1 -14
v 16 1 -14
v 17 1 -14
v 16 1 -15
v 17 1 -15
v -20 1 -18
v -18 1 -18
v 18 1 -18
v 20 1 -18
v -18 1 -20
v 18 1 -20
v -18 6 19
v 18 6 19
v -19 6 18
v -18 6 18
v 18 6 18
v 19 6 18
v -19 6 -18
v -18 6 -18
v 18 6 -18
v 19 6 -18
v -18 6 -19
v 18 6 -19
v -18 9 19
v 18 9 19
v -19 9 18
v -18 9 18
v 18 9 18
v 19 9 18
v -19 9 -18
v -18 9 -18
v 18 9 -18
v 19 9 -18
v -18 9 -19
v 18 9 -19
v -20 10 20
v -18 10 20
v 18 10 20
v 20 10 20
v -20 10 18
v -18 10 18
v 18 10 18
v 20 10 18
v -20 10 -18
v -18 10 -18
v 18 10 -18
v 20 10 -18
v -20 10 -20
v -18 10 -20
v 18 10 -20
v 20 10 -20

# faces
f 3/2/1 2/2/1 1/2/1
f 4/2/1 2/2/1 3/2/1
f 5/2/1 2/2/1 4/2/1
f 6/2/1 2/2/1 5/2/1
f 7/3/1 4/3/1 3/3/1
f 8/3/1 4/3/1 7/3/1
f 9/3/1 6/3/1 5/3/1
f 10/3/1 6/3/1 9/3/1
f 13/3/1 12/3/1 11/3/1
f 14/3/1 12/3/1 13/3/1
f 17/3/1 16/3/1 15/3/1
f 18/3/1 16/3/1 17/3/1
f 23/3/1 20/3/1 19/3/1
f 24/3/1 20/3/1 23/3/1
f 25/3/1 22/3/1 21/3/1
f 26/3/1 22/3/1 25/3/1
f 27/3/1 23/3/1 19/3/1
f 28/3/1 25/3/1 24/3/1
f 29/3/1 25/3/1 28/3/1
f 30/3/1 22/3/1 26/3/1
f 31/3/1 27/3/1 19/3/1
f 31/3/1 28/3/1 27/3/1
f 32/3/1 28/3/1 31/3/1
f 33/3/1 30/3/1 29/3/1
f 34/3/1 22/3/1 30/3/1
f 34/3/1 30/3/1 33/3/1
f 35/3/1 31/3/1 19/3/1
f 36/3/1 33/3/1 32/3/1
f 37/3/1 33/3/1 36/3/1
f 38/3/1 22/3/1 34/3/1
f 39/3/1 35/3/1 19/3/1
f 39/3/1 36/3/1 35/3/1
f 40/3/1 36/3/1 39/3/1
f 41/3/1 38/3/1 37/3/1
f 42/3/1 22/3/1 38/3/1
f 42/3/1 38/3/1 41/3/1
f 43/3/2 44/3/2 47/3/2
f 47/3/2 44/3/2 48/3/2
f 45/3/2 46/3/2 49/3/2
f 49/3/2 46/3/2 50/3/2
f 43/3/2 47/3/2 51/3/2
f 48/3/2 49/3/2 52/3/2
f 52/3/2 49/3/2 53/3/2
f 50/3/2 46/3/2 54/3/2
f 43/3/2 51/3/2 55/3/2
f 51/3/2 52/3/2 55/3/2
f 55/3/2 52/3/2 56/3/2
f 53/3/2 54/3/2 57/3/2
f 54/3/2 46/3/2 58/3/2
f 57/3/2 54/3/2 58/3/2
f 43/3/2 55/3/2 59/3/2
f 56/3/2 57/3/2 60/3/2
f 60/3/2 57/3/2 61/3/2
f 58/3/2 46/3/2 62/3/2
f 43/3/2 59/3/2 63/3/2
f 59/3/2 60/3/2 63/3/2
f 63/3/2 60/3/2 64/3/2
f 61/3/2 62/3/2 65/3/2
f 62/3/2 46/3/2 66/3/2
f 65/3/2 62/3/2 66/3/2
f 67/3/2 68/3/2 69/3/2
f 69/3/2 68/3/2 70/3/2
f 71/3/2 72/3/2 73/3/2
f 73/3/2 72/3/2 74/3/2
f 75/2/2 76/2/2 77/2/2
f 77/2/2 76/2/2 78/2/2
f 78/2/2 76/2/2 79/2/2
f 79/2/2 76/2/2 80/2/2
f 77/3/2 78/3/2 81/3/2
f 81/3/2 78/3/2 82/3/2
f 79/3/2 80/3/2 83/3/2
f 83/3/2 80/3/2 84/3/2
f 88/2/3 86/2/3 85/2/3
f 88/3/3 87/3/3 86/3/3
f 89/3/3 87/3/3 88/3/3
f 90/2/3 88/2/3 85/2/3
f 92/2/3 90/2/3 85/2/3
f 93/3/3 91/3/3 90/3/3
f 93/2/3 90/2/3 92/2/3
f 94/3/3 91/3/3 93/3/3
f 99/3/3 96/3/3 95/3/3
f 100/3/3 96/3/3 99/3/3
f 101/3/3 98/3/3 97/3/3
f 102/3/3 98/3/3 101/3/3
f 105/3/3 104/3/3 103/3/3
f 106/3/3 104/3/3 105/3/3
f 107/3/3 104/3/3 106/3/3
f 108/3/3 104/3/3 107/3/3
f 109/3/3 105/3/3 103/3/3
f 110/3/3 105/3/3 109/3/3
f 111/3/3 107/3/3 106/3/3
f 112/3/3 107/3/3 111/3/3
f 113/3/3 104/3/3 108/3/3
f 114/3/3 104/3/3 113/3/3
f 116/3/3 111/3/3 110/3/3
f 117/3/3 111/3/3 116/3/3
f 118/3/3 113/3/3 112/3/3
f 119/3/3 113/3/3 118/3/3
f 121/3/3 116/3/3 115/3/3
f 122/3/3 118/3/3 117/3/3
f 123/3/3 118/3/3 122/3/3
f 124/3/3 120/3/3 119/3/3
f 125/3/3 123/3/3 122/3/3
f 125/3/3 124/3/3 123/3/3
f 125/3/3 121/3/3 115/3/3
f 125/3/3 122/3/3 121/3/3
f 126/3/3 120/3/3 124/3/3
f 126/3/3 124/3/3 125/3/3
f 127/3/4 128/3/4 129/3/4
f 129/3/4 128/3/4 130/3/4
f 130/3/4 128/3/4 131/3/4
f 131/3/4 128/3/4 132/3/4
f 127/3/4 129/3/4 133/3/4
f 133/3/4 129/3/4 134/3/4
f 130/3/4 131/3/4 135/3/4
f 135/3/4 131/3/4 136/3/4
f 132/3/4 128/3/4 137/3/4
f 137/3/4 128/3/4 138/3/4
f 134/3/4 135/3/4 140/3/4
f 140/3/4 135/3/4 141/3/4
f 136/3/4 137/3/4 142/3/4
f 142/3/4 137/3/4 143/3/4
f 139/3/4 140/3/4 145/3/4
f 141/3/4 142/3/4 146/3/4
f 146/3/4 142/3/4 147/3/4
f 143/3/4 144/3/4 148/3/4
f 146/3/4 147/3/4 149/3/4
f 147/3/4 148/3/4 149/3/4
f 139/3/4 145/3/4 149/3/4
f 145/3/4 146/3/4 149/3/4
f 148/3/4 144/3/4 150/3/4
f 149/3/4 148/3/4 150/3/4
f 151/3/4 152/3/4 155/3/4
f 155/3/4 152/3/4 156/3/4
f 153/3/4 154/3/4 157/3/4
f 157/3/4 154/3/4 158/3/4
f 159/2/4 160/2/4 162/2/4
f 160/3/4 161/3/4 162/3/4
f 162/3/4 161/3/4 163/3/4
f 159/2/4 162/2/4 164/2/4
f 159/2/4 164/2/4 166/2/4
f 164/3/4 165/3/4 167/3/4
f 166/2/4 164/2/4 167/2/4
f 167/3/4 165/3/4 168/3/4
f 171/2/5 170/2/5 169/2/5
f 172/2/5 170/2/5 171/2/5
f 173/2/5 171/2/5 169/2/5
f 174/2/5 171/2/5 173/2/5
f 175/3/5 172/3/5 171/3/5
f 175/2/5 171/2/5 174/2/5
f 176/2/5 170/2/5 172/2/5
f 176/3/5 172/3/5 175/3/5
f 177/3/5 174/3/5 173/3/5
f 177/2/5 173/2/5 169/2/5
f 178/2/5 175/2/5 174/2/5
f 178/3/5 174/3/5 177/3/5
f 178/2/5 176/2/5 175/2/5
f 179/2/5 178/2/5 177/2/5
f 179/2/5 176/2/5 178/2/5
f 180/2/5 176/2/5 179/2/5
f 181/2/5 179/2/5 177/2/5
f 181/3/5 180/3/5 179/3/5
f 182/2/5 176/2/5 180/2/5
f 182/3/5 180/3/5 181/3/5
f 183/2/5 177/2/5 169/2/5
f 183/2/5 181/2/5 177/2/5
f 183/2/5 182/2/5 181/2/5
f 184/2/5 182/2/5 183/2/5
f 185/2/5 182/2/5 184/2/5
f 186/2/5 182/2/5 185/2/5
f 187/2/5 185/2/5 184/2/5
f 188/2/5 185/2/5 187/2/5
f 189/3/5 186/3/5 185/3/5
f 189/2/5 185/2/5 188/2/5
f 190/2/5 182/2/5 186/2/5
f 190/3/5 186/3/5 189/3/5
f 191/2/5 176/2/5 182/2/5
f 191/2/5 182/2/5 190/2/5
f 192/2/5 176/2/5 191/2/5
f 193/2/5 183/2/5 169/2/5
f 193/3/5 184/3/5 183/3/5
f 194/2/5 187/2/5 184/2/5
f 194/3/5 184/3/5 193/3/5
f 195/3/5 188/3/5 187/3/5
f 195/2/5 187/2/5 194/2/5
f 196/2/5 190/2/5 189/2/5
f 196/3/5 188/3/5 195/3/5
f 196/2/5 189/2/5 188/2/5
f 196/2/5 191/2/5 190/2/5
f 197/3/5 192/3/5 191/3/5
f 197/2/5 191/2/5 196/2/5
f 198/2/5 176/2/5 192/2/5
f 198/3/5 192/3/5 197/3/5
f 199/2/5 195/2/5 194/2/5
f 199/2/5 197/2/5 196/2/5
f 199/2/5 198/2/5 197/2/5
f 199/2/5 194/2/5 193/2/5
f 199/2/5 196/2/5 195/2/5
f 200/2/5 198/2/5 199/2/5
f 201/2/5 199/2/5 193/2/5
f 201/3/5 200/3/5 199/3/5
f 202/2/5 198/2/5 200/2/5
f 202/3/5 200/3/5 201/3/5
f 203/2/5 201/2/5 193/2/5
f 203/2/5 202/2/5 201/2/5
f 204/2/5 202/2/5 203/2/5
f 205/2/5 203/2/5 193/2/5
f 205/3/5 204/3/5 203/3/5
f 206/2/5 202/2/5 204/2/5
f 206/3/5 204/3/5 205/3/5
f 207/2/5 202/2/5 206/2/5
f 208/2/5 202/2/5 207/2/5
f 209/2/5 202/2/5 208/2/5
f 210/2/5 202/2/5 209/2/5
f 211/2/5 205/2/5 193/2/5
f 211/2/5 206/2/5 205/2/5
f 211/2/5 207/2/5 206/2/5
f 212/2/5 207/2/5 211/2/5
f 213/2/5 207/2/5 212/2/5
f 214/2/5 207/2/5 213/2/5
f 215/3/5 208/3/5 207/3/5
f 215/2/5 207/2/5 214/2/5
f 216/2/5 209/2/5 208/2/5
f 216/3/5 208/3/5 215/3/5
f 217/3/5 210/3/5 209/3/5
f 217/2/5 209/2/5 216/2/5
f 218/2/5 202/2/5 210/2/5
f 218/3/5 210/3/5 217/3/5
f 219/2/5 211/2/5 193/2/5
f 219/3/5 212/3/5 211/3/5
f 220/2/5 213/2/5 212/2/5
f 220/3/5 212/3/5 219/3/5
f 221/1/5 214/1/5 213/1/5
f 221/2/5 213/2/5 220/2/5
f 222/2/5 217/2/5 216/2/5
f 222/1/5 214/1/5 221/1/5
f 222/2/5 216/2/5 215/2/5
f 222/2/5 215/2/5 214/2/5
f 222/2/5 218/2/5 217/2/5
f 223/2/5 221/2/5 220/2/5
f 223/2/5 218/2/5 222/2/5
f 223/2/5 222/2/5 221/2/5
f 223/2/5 220/2/5 219/2/5
f 224/2/5 218/2/5 223/2/5
f 225/2/5 198/2/5 202/2/5
f 225/2/5 218/2/5 224/2/5
f 225/2/5 202/2/5 218/2/5
f 226/2/5 198/2/5 225/2/5
f 227/2/5 193/2/5 169/2/5
f 227/2/5 223/2/5 219/2/5
f 227/2/5 219/2/5 193/2/5
f 228/2/5 223/2/5 227/2/5
f 229/3/5 224/3/5 223/3/5
f 229/2/5 223/2/5 228/2/5
f 230/2/5 225/2/5 224/2/5
f 230/3/5 224/3/5 229/3/5
f 231/3/5 226/3/5 225/3/5
f 231/2/5 225/2/5 230/2/5
f 232/2/5 198/2/5 226/2/5
f 232/3/5 226/3/5 231/3/5
f 233/1/5 228/1/5 227/1/5
f 233/2/5 227/2/5 169/2/5
f 234/2/5 231/2/5 230/2/5
f 234/1/5 228/1/5 233/1/5
f 234/2/5 230/2/5 229/2/5
f 234/2/5 232/2/5 231/2/5
f 234/2/5 229/2/5 228/2/5
f 235/2/5 176/2/5 198/2/5
f 235/2/5 232/2/5 234/2/5
f 235/2/5 170/2/5 176/2/5
f 235/2/5 198/2/5 232/2/5
f 236/2/5 170/2/5 235/2/5
f 237/2/5 234/2/5 233/2/5
f 237/2/5 235/2/5 234/2/5
f 237/3/5 236/3/5 235/3/5
f 238/2/5 170/2/5 236/2/5
f 238/3/5 236/3/5 237/3/5
f 239/2/5 237/2/5 233/2/5
f 239/2/5 233/2/5 169/2/5
f 239/2/5 238/2/5 237/2/5
f 240/2/5 170/2/5 238/2/5
f 240/2/5 238/2/5 239/2/5
f 244/3/5 242/3/5 241/3/5
f 245/3/5 242/3/5 244/3/5
f 247/3/5 244/3/5 243/3/5
f 248/3/5 244/3/5 247/3/5
f 249/3/5 246/3/5 245/3/5
f 250/3/5 246/3/5 249/3/5
f 251/3/5 249/3/5 248/3/5
f 252/3/5 249/3/5 251/3/5
f 256/3/5 254/3/5 253/3/5
f 257/3/5 254/3/5 256/3/5
f 259/3/5 256/3/5 255/3/5
f 260/3/5 256/3/5 259/3/5
f 261/3/5 258/3/5 257/3/5
f 262/3/5 258/3/5 261/3/5
f 263/3/5 261/3/5 260/3/5
f 264/3/5 261/3/5 263/3/5
f 265/2/6 266/2/6 268/2/6
f 268/2/6 266/2/6 269/2/6
f 267/2/6 268/2/6 271/2/6
f 269/2/6 270/2/6 271/2/6
f 268/2/6 269/2/6 271/2/6
f 271/2/6 270/2/6 272/2/6
f 267/2/6 271/2/6 273/2/6
f 273/2/6 271/2/6 274/2/6
f 271/3/6 272/3/6 275/3/6
f 274/2/6 271/2/6 275/2/6
f 272/2/6 270/2/6 276/2/6
f 275/3/6 272/3/6 276/3/6
f 273/3/6 274/3/6 277/3/6
f 267/2/6 273/2/6 277/2/6
f 274/2/6 275/2/6 278/2/6
f 277/3/6 274/3/6 278/3/6
f 275/2/6 276/2/6 278/2/6
f 277/2/6 278/2/6 279/2/6
f 278/2/6 276/2/6 279/2/6
f 279/2/6 276/2/6 280/2/6
f 277/2/6 279/2/6 281/2/6
f 279/3/6 280/3/6 281/3/6
f 280/2/6 276/2/6 282/2/6
f 281/3/6 280/3/6 282/3/6
f 267/2/6 277/2/6 283/2/6
f 277/2/6 281/2/6 283/2/6
f 281/2/6 282/2/6 283/2/6
f 283/2/6 282/2/6 284/2/6
f 284/2/6 282/2/6 285/2/6
f 285/2/6 282/2/6 286/2/6
f 284/2/6 285/2/6 287/2/6
f 287/2/6 285/2/6 288/2/6
f 285/3/6 286/3/6 289/3/6
f 288/2/6 285/2/6 289/2/6
f 286/2/6 282/2/6 290/2/6
f 289/3/6 286/3/6 290/3/6
f 282/2/6 276/2/6 291/2/6
f 290/2/6 282/2/6 291/2/6
f 291/2/6 276/2/6 292/2/6
f 267/2/6 283/2/6 293/2/6
f 283/3/6 284/3/6 293/3/6
f 284/2/6 287/2/6 294/2/6
f 293/3/6 284/3/6 294/3/6
f 287/3/6 288/3/6 295/3/6
f 294/2/6 287/2/6 295/2/6
f 289/2/6 290/2/6 296/2/6
f 295/3/6 288/3/6 296/3/6
f 288/2/6 289/2/6 296/2/6
f 290/2/6 291/2/6 296/2/6
f 291/3/6 292/3/6 297/3/6
f 296/2/6 291/2/6 297/2/6
f 292/2/6 276/2/6 298/2/6
f 297/3/6 292/3/6 298/3/6
f 294/2/6 295/2/6 299/2/6
f 296/2/6 297/2/6 299/2/6
f 297/2/6 298/2/6 299/2/6
f 293/2/6 294/2/6 299/2/6
f 295/2/6 296/2/6 299/2/6
f 299/2/6 298/2/6 300/2/6
f 293/2/6 299/2/6 301/2/6
f 299/3/6 300/3/6 301/3/6
f 300/2/6 298/2/6 302/2/6
f 301/3/6 300/3/6 302/3/6
f 293/2/6 301/2/6 303/2/6
f 301/2/6 302/2/6 303/2/6
f 303/2/6 302/2/6 304/2/6
f 293/2/6 303/2/6 305/2/6
f 303/3/6 304/3/6 305/3/6
f 304/2/6 302/2/6 306/2/6
f 305/3/6 304/3/6 306/3/6
f 306/2/6 302/2/6 307/2/6
f 307/2/6 302/2/6 308/2/6
f 308/2/6 302/2/6 309/2/6
f 309/2/6 302/2/6 310/2/6
f 293/2/6 305/2/6 311/2/6
f 305/2/6 306/2/6 311/2/6
f 306/2/6 307/2/6 311/2/6
f 311/2/6 307/2/6 312/2/6
f 312/2/6 307/2/6 313/2/6
f 313/2/6 307/2/6 314/2/6
f 307/3/6 308/3/6 315/3/6
f 314/2/6 307/2/6 315/2/6
f 308/2/6 309/2/6 316/2/6
f 315/3/6 308/3/6 316/3/6
f 309/3/6 310/3/6 317/3/6
f 316/2/6 309/2/6 317/2/6
f 310/2/6 302/2/6 318/2/6
f 317/3/6 310/3/6 318/3/6
f 293/2/6 311/2/6 319/2/6
f 311/3/6 312/3/6 319/3/6
f 312/2/6 313/2/6 320/2/6
f 319/3/6 312/3/6 320/3/6
f 313/1/6 314/1/6 321/1/6
f 320/2/6 313/2/6 321/2/6
f 316/2/6 317/2/6 322/2/6
f 321/1/6 314/1/6 322/1/6
f 315/2/6 316/2/6 322/2/6
f 314/2/6 315/2/6 322/2/6
f 317/2/6 318/2/6 322/2/6
f 320/2/6 321/2/6 323/2/6
f 322/2/6 318/2/6 323/2/6
f 321/2/6 322/2/6 323/2/6
f 319/2/6 320/2/6 323/2/6
f 323/2/6 318/2/6 324/2/6
f 302/2/6 298/2/6 325/2/6
f 324/2/6 318/2/6 325/2/6
f 318/2/6 302/2/6 325/2/6
f 325/2/6 298/2/6 326/2/6
f 267/2/6 293/2/6 327/2/6
f 319/2/6 323/2/6 327/2/6
f 293/2/6 319/2/6 327/2/6
f 327/2/6 323/2/6 328/2/6
f 323/3/6 324/3/6 329/3/6
f 328/2/6 323/2/6 329/2/6
f 324/2/6 325/2/6 330/2/6
f 329/3/6 324/3/6 330/3/6
f 325/3/6 326/3/6 331/3/6
f 330/2/6 325/2/6 331/2/6
f 326/2/6 298/2/6 332/2/6
f 331/3/6 326/3/6 332/3/6
f 327/1/6 328/1/6 333/1/6
f 267/2/6 327/2/6 333/2/6
f 330/2/6 331/2/6 334/2/6
f 333/1/6 328/1/6 334/1/6
f 329/2/6 330/2/6 334/2/6
f 331/2/6 332/2/6 334/2/6
f 328/2/6 329/2/6 334/2/6
f 298/2/6 276/2/6 335/2/6
f 334/2/6 332/2/6 335/2/6
f 276/2/6 270/2/6 335/2/6
f 332/2/6 298/2/6 335/2/6
f 335/2/6 270/2/6 336/2/6
f 333/2/6 334/2/6 337/2/6
f 334/2/6 335/2/6 337/2/6
f 335/3/6 336/3/6 337/3/6
f 336/2/6 270/2/6 338/2/6
f 337/3/6 336/3/6 338/3/6
f 333/2/6 337/2/6 339/2/6
f 267/2/6 333/2/6 339/2/6
f 337/2/6 338/2/6 339/2/6
f 339/2/6 338/2/6 340/2/6
f 338/2/6 270/2/6 341/2/6
f 340/2/6 338/2/6 341/2/6
f 341/2/6 270/2/6 342/2/6
f 340/2/6 341/2/6 343/2/6
f 343/2/6 341/2/6 344/2/6
f 345/3/6 346/3/6 348/3/6
f 348/3/6 346/3/6 349/3/6
f 347/3/6 348/3/6 351/3/6
f 351/3/6 348/3/6 352/3/6
f 349/3/6 350/3/6 353/3/6
f 353/3/6 350/3/6 354/3/6
f 352/3/6 353/3/6 355/3/6
f 355/3/6 353/3/6 356/3/6
f 357/3/6 358/3/6 360/3/6
f 360/3/6 358/3/6 361/3/6
f 359/3/6 360/3/6 363/3/6
f 363/3/6 360/3/6 364/3/6
f 361/3/6 362/3/6 365/3/6
f 365/3/6 362/3/6 366/3/6
f 364/3/6 365/3/6 367/3/6
f 367/3/6 365/3/6 368/3/6
f 369/3/6 370/3/6 373/3/6
f 373/3/6 370/3/6 374/3/6
f 371/3/6 372/3/6 375/3/6
f 375/3/6 372/3/6 376/3/6
f 377/3/6 378/3/6 381/3/6
f 381/3/6 378/3/6 382/3/6
f 379/3/6 380/3/6 383/3/6
f 383/3/6 380/3/6 384/3/6
